<svg xmlns="http://www.w3.org/2000/svg" version="1.1" xmlns:xlink="http://www.w3.org/1999/xlink" xmlns:svgjs="http://svgjs.dev/svgjs" viewBox="0 0 800 800"><defs><symbol id="bbburst-shape-1" viewBox="0 0 194 167"><path d="m97 0 96.129 166.5H.871L97 0Z"></path></symbol><symbol id="bbburst-shape-4" viewBox="0 0 149 143"><path d="M71.647 2.781c.898-2.764 4.808-2.764 5.706 0l15.445 47.534a3 3 0 0 0 2.853 2.073h49.98c2.906 0 4.115 3.719 1.764 5.427L106.96 87.193a2.999 2.999 0 0 0-1.09 3.354l15.445 47.534c.898 2.764-2.266 5.062-4.617 3.354l-40.435-29.378a3 3 0 0 0-3.526 0l-40.435 29.378c-2.351 1.708-5.515-.59-4.617-3.354L43.13 90.547a3 3 0 0 0-1.09-3.354L1.605 57.815c-2.35-1.708-1.142-5.427 1.764-5.427h49.98a3 3 0 0 0 2.853-2.073L71.647 2.781Z"></path></symbol><symbol id="bbburst-shape-6" viewBox="0 0 133 116"><path d="M59.7487 10.2513c-13.6683-13.66839-35.8291-13.66839-49.4974 0-13.66839 13.6683-13.66839 35.8291 0 49.4974l49.4974-49.4974ZM66.5 66.5 41.7513 91.2487 66.5 115.997l24.7487-24.7483L66.5 66.5Zm56.249-6.7513c13.668-13.6683 13.668-35.8291 0-49.4974-13.669-13.66839-35.8294-13.66839-49.4977 0l49.4977 49.4974Zm-112.4977 0 31.5 31.5 49.4974-49.4974-31.5-31.5-49.4974 49.4974Zm80.9974 31.5 31.5003-31.5-49.4977-49.4974-31.5 31.5 49.4974 49.4974Z"></path></symbol><symbol id="bbburst-shape-7" viewBox="0 0 139 124"><path fill-rule="evenodd" clip-rule="evenodd" d="M70.1641 15.0917C54.6093.764854 37.8293-2.10782 24.4032 2.82615 10.3804 7.97941.763366 21.4591 1.00047 37.0608c.1068 7.0273 2.86132 13.7317 7.0039 20.2001C12.1442 63.7249 17.853 70.2322 24.25 76.9024c3.8209 3.9842 7.8871 8.0312 12.0767 12.201h.0001c10.0335 9.9862 20.7748 20.6766 30.5497 32.8956 1.38 1.725 3.8972 2.005 5.6223.624.6706-.536 1.1228-1.244 1.3439-2.011 9.5768-11.748 20.0328-22.0735 29.8163-31.7351 4.19-4.1373 8.256-8.1528 12.078-12.1062 6.396-6.6176 12.106-13.0752 16.247-19.4911 4.144-6.4196 6.905-13.0811 7.012-20.0691.237-15.5124-9.399-28.8902-23.411-33.99923-13.32-4.85681-29.9542-2.08621-45.4209 11.88043Zm-3.7351 7.4919C52.1278 8.44857 37.6826 6.46918 27.1626 10.3352 16.2859 14.3323 8.8148 24.7824 8.99955 36.9392c.07575 4.9844 2.03755 10.2234 5.74165 16.0072 3.707 5.7881 8.9752 11.8418 15.2827 18.4187 3.5798 3.7328 7.4978 7.6329 11.6 11.7163 9.0476 9.0063 18.9911 18.9046 28.1786 29.8666 9.2999-11.068 19.4036-21.0473 28.5839-30.1144l.0007-.0006c4.1019-4.0508 8.0189-7.9196 11.5979-11.6222 6.307-6.5252 11.573-12.5298 15.278-18.2697 3.703-5.7362 5.658-10.924 5.734-15.8531.184-12.0276-7.267-22.3914-18.153-26.3608-10.71-3.90518-25.4722-1.80041-40.0023 12.867-1.5547 1.5694-4.0874 1.5813-5.6568.0265-.3146-.3116-.5666-.6625-.7559-1.0371Z"></path></symbol><symbol id="bbburst-shape-8" viewBox="0 0 87 168"><path d="m12 12 31.2546 18.0749c16.4102 9.4902 20.014 31.6325 7.4603 45.8369L36.3296 92.1884c-12.5684 14.2206-8.9394 36.3916 7.5068 45.8636L75 156" stroke-width="14" stroke-linecap="round" stroke-linejoin="round"></path></symbol><symbol id="bbburst-shape-10" viewBox="0 0 145 145"><circle cx="72.5" cy="72.5" r="61.5" fill="none" stroke-width="22"></circle></symbol></defs><use xlink:href="#bbburst-shape-4" width="8.940627935429376" opacity="0.9101243034900477" transform="matrix(0.8520906873371835,0.5233941732129296,-0.5233941732129296,0.8520906873371835,221.51490832895996,-254.72374873878226)" fill="#ff794e"></use><use xlink:href="#bbburst-shape-6" width="35.394429297364255" opacity="0.45118042982290196" transform="matrix(0.9992738314981053,-0.03810262042296006,0.03810262042296006,0.9992738314981053,159.24251573739892,115.04144619302394)" fill="#303841"></use><use xlink:href="#bbburst-shape-7" width="17.061541423006776" opacity="0.9018926198442431" transform="matrix(0.9671047413936175,0.25437849589535744,-0.25437849589535744,0.9671047413936175,173.6229217897029,-332.4968947391231)" fill="#ffa6d5"></use><use xlink:href="#bbburst-shape-7" width="38.75711493472561" opacity="0.4414704577213342" transform="matrix(0.9585120739542986,-0.2850519322576663,0.2850519322576663,0.9585120739542986,284.11793161017374,-6.112727032468854)" fill="#303841"></use><use xlink:href="#bbburst-shape-6" width="27.690569371016277" opacity="0.7401436290306229" transform="matrix(0.9721746166098674,0.23425736876234537,-0.23425736876234537,0.9721746166098674,306.65304388406344,-264.58348261254247)" fill="#ffa6d5"></use><use xlink:href="#bbburst-shape-7" width="42.498451531333004" opacity="0.2949639409784024" transform="matrix(0.961747366176838,0.2739379558438645,-0.2739379558438645,0.961747366176838,236.2564679773452,298.9103715159001)" fill="#ffbd9b"></use><use xlink:href="#bbburst-shape-4" width="9.262383088794476" opacity="0.9239329099492679" transform="matrix(0.9008816904407719,0.4340647184793729,-0.4340647184793729,0.9008816904407719,243.71212466331758,-345.8826555698394)" fill="#ffa6d5"></use><use xlink:href="#bbburst-shape-7" width="18.677332852142033" opacity="0.7120508206342773" transform="matrix(0.928103423766618,0.3723224876268977,-0.3723224876268977,0.928103423766618,163.24517423308234,-87.72333734544083)" fill="#ffa6d5"></use><use xlink:href="#bbburst-shape-4" width="14.281146375949643" opacity="0.8439548524618191" transform="matrix(0.9986946032424342,-0.05107924680765009,0.05107924680765009,0.9986946032424342,123.98057231601314,-361.8866696471173)" fill="#ffbd9b"></use><use xlink:href="#bbburst-shape-4" width="28.72178109018402" opacity="0.2960614809605715" transform="matrix(0.9991369911560063,0.04153640455940424,-0.04153640455940424,0.9991369911560063,41.90897456409609,302.5960635305332)" fill="#303841"></use><use xlink:href="#bbburst-shape-8" width="9.585758274988887" opacity="0.9358634084239975" transform="matrix(0.7945302130581856,-0.6072246211557253,0.6072246211557253,0.7945302130581856,-194.45273663867746,-277.7003662234129)" fill="none" stroke="#303841"></use><use xlink:href="#bbburst-shape-1" width="29.60068669379637" opacity="0.5005487468887968" transform="matrix(0.9974897345874696,-0.0708112236345297,0.0708112236345297,0.9974897345874696,68.04062503528255,89.02206645341994)" fill="#303841"></use><use xlink:href="#bbburst-shape-6" width="27.091655490302756" opacity="0.5282162000577268" transform="matrix(0.8219363687242699,0.5695793235084654,-0.5695793235084654,0.8219363687242699,252.6149580124886,133.92489092657132)" fill="#303841"></use><use xlink:href="#bbburst-shape-6" width="28.2099527029377" opacity="0.6286860944470427" transform="matrix(0.9642130654464489,0.26512858092322306,-0.26512858092322306,0.9642130654464489,449.1183704444278,-286.1651456979573)" fill="#7dd5d9"></use><use xlink:href="#bbburst-shape-10" width="19.971167652235962" opacity="0.6393519162074186" transform="matrix(0.9847362302142982,-0.17405331626640322,0.17405331626640322,0.9847362302142982,279.8867234137671,-361.4818715603369)" fill="none" stroke="#ffbd9b"></use><use xlink:href="#bbburst-shape-8" width="23.57507797856599" opacity="0.7183794336804055" transform="matrix(0.971967450218572,0.23511545188610564,-0.23511545188610564,0.971967450218572,266.8345464212034,-178.57073494776841)" fill="none" stroke="#ffa6d5"></use><use xlink:href="#bbburst-shape-8" width="22.573316082543467" opacity="0.6946182718861359" transform="matrix(0.9912840387158741,-0.1317420000878438,0.1317420000878438,0.9912840387158741,172.08802769115397,-201.18476685325814)" fill="none" stroke="#ff794e"></use><use xlink:href="#bbburst-shape-8" width="14.251755668457204" opacity="0.7559187710942544" transform="matrix(0.9985091908525562,0.05458384177550689,-0.05458384177550689,0.9985091908525562,37.90046060018575,-156.81478966929734)" fill="none" stroke="#303841"></use><use xlink:href="#bbburst-shape-10" width="58.345850261167456" opacity="0.05737432938994835" transform="matrix(0.9764118063040296,-0.21591661471526968,0.21591661471526968,0.9764118063040296,626.3455187040067,198.11743017071916)" fill="none" stroke="#ff794e"></use><use xlink:href="#bbburst-shape-4" width="15.57352757337113" opacity="0.8176262433933607" transform="matrix(0.9648151211956149,-0.2629292336585852,0.2629292336585852,0.9648151211956149,68.02482699236941,-359.25471781030575)" fill="#ffbd9b"></use><use xlink:href="#bbburst-shape-6" width="49.2561128597578" opacity="0.3797306397107907" transform="matrix(0.73590010887138,-0.6770901193807889,0.6770901193807889,0.73590010887138,9.19640997553978,266.2249157045459)" fill="#ffa6d5"></use><use xlink:href="#bbburst-shape-7" width="33.90527946764885" opacity="0.4574907425466851" transform="matrix(0.8727425278782005,-0.4881807862183521,0.4881807862183521,0.8727425278782005,-177.20965823807802,200.73502591371852)" fill="#7dd5d9"></use><use xlink:href="#bbburst-shape-6" width="8.13286568375679" opacity="0.9650385688634303" transform="matrix(0.9929985969054032,-0.11812614674110311,0.11812614674110311,0.9929985969054032,-20.632304860899296,-379.91111518530465)" fill="#7dd5d9"></use><use xlink:href="#bbburst-shape-10" width="40.21287732273844" opacity="0.4273526916329986" transform="matrix(0.9980773073737155,-0.06198135611322096,0.06198135611322096,0.9980773073737155,493.80205474652223,-203.64535036100787)" fill="none" stroke="#7dd5d9"></use><use xlink:href="#bbburst-shape-6" width="39.767237931509314" opacity="0.5104120857606108" transform="matrix(0.7287467019418197,0.6847833558205987,-0.6847833558205987,0.7287467019418197,679.3985586484016,-53.48606408436734)" fill="#303841"></use><use xlink:href="#bbburst-shape-6" width="21.13457185027495" opacity="0.7057077888749506" transform="matrix(0.9510159239202501,-0.30914189695043437,0.30914189695043437,0.9510159239202501,145.0296798920128,-282.72464409429836)" fill="#ffa6d5"></use><use xlink:href="#bbburst-shape-10" width="10.994660498980089" opacity="0.8987539605672372" transform="matrix(0.8152460308388825,-0.5791147634117506,0.5791147634117506,0.8152460308388825,-137.48156987362594,-300.1173532785142)" fill="none" stroke="#ffa6d5"></use><use xlink:href="#bbburst-shape-10" width="13.748245678305953" opacity="0.8181829752269286" transform="matrix(0.898489193577032,0.4389956366813851,-0.4389956366813851,0.898489193577032,231.11924098411328,-191.38452309094578)" fill="none" stroke="#ff794e"></use><use xlink:href="#bbburst-shape-7" width="41.91465260652882" opacity="0.3209531610301327" transform="matrix(0.9102577428507134,0.4140420770650304,-0.4140420770650304,0.9102577428507134,660.7172113363662,70.53176361362347)" fill="#ffa6d5"></use><use xlink:href="#bbburst-shape-10" width="12.731608350453477" opacity="0.7970810662389068" transform="matrix(0.9369990600580708,0.34933187866310156,-0.34933187866310156,0.9369990600580708,151.5357619849059,-174.8838459819705)" fill="none" stroke="#303841"></use><use xlink:href="#bbburst-shape-6" width="61.64972439982745" opacity="-0.01961370063574419" transform="matrix(0.9288305892293273,0.37050470511438943,-0.37050470511438943,0.9288305892293273,828.8538901719585,349.5292060917764)" fill="#303841"></use><use xlink:href="#bbburst-shape-8" width="15.534686821433569" opacity="0.6697562151659366" transform="matrix(0.9845249276388827,0.17524459152182928,-0.17524459152182928,0.9845249276388827,89.27575432290381,-66.01864799895156)" fill="none" stroke="#ffbd9b"></use><use xlink:href="#bbburst-shape-1" width="15.738880855161952" opacity="0.7817604879945337" transform="matrix(0.9999737493006978,0.007245737333442205,-0.007245737333442205,0.9999737493006978,212.30575981380133,-379.5504801436489)" fill="#ffa6d5"></use><use xlink:href="#bbburst-shape-8" width="56.34482458888836" opacity="0.22450967664984334" transform="matrix(0.9892313823825211,-0.14636007689792466,0.14636007689792466,0.9892313823825211,539.6982355326744,66.00030166279578)" fill="none" stroke="#303841"></use><use xlink:href="#bbburst-shape-10" width="19.788935697079673" opacity="0.8280654386565887" transform="matrix(0.9315237524267268,-0.3636804898050349,0.3636804898050349,0.9315237524267268,-58.391843434872484,-226.573979659871)" fill="none" stroke="#ffa6d5"></use><use xlink:href="#bbburst-shape-8" width="44.307740538106074" opacity="0.5413016863093365" transform="matrix(0.8058549239889872,0.5921130310022772,-0.5921130310022772,0.8058549239889872,551.2952015290977,-19.265011069799755)" fill="none" stroke="#303841"></use><use xlink:href="#bbburst-shape-4" width="56.688134493647965" opacity="0.13773736366346245" transform="matrix(0.9905974322475048,-0.13680909043133802,0.13680909043133802,0.9905974322475048,534.2361455845952,209.99394099980492)" fill="#7dd5d9"></use><use xlink:href="#bbburst-shape-6" width="15.548229211883672" opacity="0.8279584143475622" transform="matrix(0.7702883480348472,0.637695743189294,-0.637695743189294,0.7702883480348472,399.2972212886786,-229.19149559806868)" fill="#ffa6d5"></use><use xlink:href="#bbburst-shape-6" width="11.568313670968571" opacity="0.8522830339439507" transform="matrix(0.7532236282860731,0.6577645215360612,-0.6577645215360612,0.7532236282860731,310.05874924616523,-166.5746234995421)" fill="#303841"></use><use xlink:href="#bbburst-shape-10" width="31.22444999751137" opacity="0.4935040262006698" transform="matrix(0.7636754799485014,-0.6456003108157756,0.6456003108157756,0.7636754799485014,233.50507368395347,-241.9414517342284)" fill="none" stroke="#ffbd9b"></use><use xlink:href="#bbburst-shape-1" width="31.149573674562294" opacity="0.5590432778040062" transform="matrix(0.7721168446746177,-0.6354805883500394,0.6354805883500394,0.7721168446746177,-11.753791222998672,61.225992638441596)" fill="#ffbd9b"></use><use xlink:href="#bbburst-shape-8" width="17.518694733209248" opacity="0.8675968886384368" transform="matrix(0.8644660434406141,0.5026912170887117,-0.5026912170887117,0.8644660434406141,311.0981722494541,-289.34336744894716)" fill="none" stroke="#303841"></use><use xlink:href="#bbburst-shape-8" width="10.242580059743142" opacity="0.9272657286619006" transform="matrix(0.9832362704055618,0.18233605391957183,-0.18233605391957183,0.9832362704055618,109.35938856785944,-334.4678738859239)" fill="none" stroke="#303841"></use><use xlink:href="#bbburst-shape-6" width="27.695699865268818" opacity="0.5442807414784646" transform="matrix(0.9997873929622072,0.02061962351336837,-0.02061962351336837,0.9997873929622072,172.58654712697032,19.24067976637724)" fill="#7dd5d9"></use><use xlink:href="#bbburst-shape-8" width="18.2094409062986" opacity="0.8657400103502586" transform="matrix(0.9628735897335442,-0.26995268139738554,0.26995268139738554,0.9628735897335442,-20.887553301463456,-288.68859093319656)" fill="none" stroke="#ffbd9b"></use><use xlink:href="#bbburst-shape-8" width="20.52507141564797" opacity="0.7762129587570354" transform="matrix(0.9959643703987091,-0.08974950081366949,0.08974950081366949,0.9959643703987091,95.71438757628587,-224.36533986902342)" fill="none" stroke="#ffa6d5"></use><use xlink:href="#bbburst-shape-8" width="41.83203533000859" opacity="0.29299311629013336" transform="matrix(0.8685084366090752,0.4956743845901865,-0.4956743845901865,0.8685084366090752,450.6885457484337,295.40804483465183)" fill="none" stroke="#ffbd9b"></use><use xlink:href="#bbburst-shape-1" width="5.958506531763102" opacity="0.9741323064482597" transform="matrix(0.9101673677719204,0.4142407061638605,-0.4142407061638605,0.9101673677719204,172.0967986823653,-341.08564846824817)" fill="#ffbd9b"></use><use xlink:href="#bbburst-shape-8" width="42.57537614078303" opacity="0.5268331997738354" transform="matrix(0.9970874054687752,0.07626733150927915,-0.07626733150927915,0.9970874054687752,460.1838518265083,-257.0232954295767)" fill="none" stroke="#ffbd9b"></use><use xlink:href="#bbburst-shape-7" width="15.497767278937363" opacity="0.7846465501150092" transform="matrix(0.9142395956670009,0.4051739894349571,-0.4051739894349571,0.9142395956670009,256.30884028725006,-178.86064831920177)" fill="#303841"></use><use xlink:href="#bbburst-shape-10" width="20.491645420844694" opacity="0.5628500245239896" transform="matrix(0.8181228637861371,0.5750434590101603,-0.5750434590101603,0.8181228637861371,325.51233869245135,91.48784985695579)" fill="none" stroke="#ff794e"></use><use xlink:href="#bbburst-shape-8" width="37.62784302624484" opacity="0.372289084918461" transform="matrix(0.9872880686450098,-0.15894108817799887,0.15894108817799887,0.9872880686450098,99.36240225269957,208.9692505718644)" fill="none" stroke="#ff794e"></use><use xlink:href="#bbburst-shape-8" width="46.36052122350126" opacity="0.2580439992315756" transform="matrix(0.7799500874445723,0.6258417220793161,-0.6258417220793161,0.7799500874445723,623.2654020528847,304.0770832211326)" fill="none" stroke="#303841"></use><use xlink:href="#bbburst-shape-6" width="31.725374401332882" opacity="0.42837877047851425" transform="matrix(0.9975715479768705,0.06964916845900027,-0.06964916845900027,0.9975715479768705,119.25338418875361,161.34277537006614)" fill="#7dd5d9"></use><use xlink:href="#bbburst-shape-4" width="35.61186573392588" opacity="0.5909957593268143" transform="matrix(0.8762046979451149,0.48193913235896296,-0.48193913235896296,0.8762046979451149,545.6578569956373,-181.57338690236574)" fill="#7dd5d9"></use><use xlink:href="#bbburst-shape-6" width="46.0799304688624" opacity="0.16679966344338182" transform="matrix(0.9022418735407036,0.43123033477453887,-0.43123033477453887,0.9022418735407036,524.573111100266,374.280016758077)" fill="#303841"></use><use xlink:href="#bbburst-shape-4" width="7.851826436819967" opacity="0.934290765975852" transform="matrix(0.9311872582083277,-0.36454120501043125,0.36454120501043125,0.9311872582083277,-136.27391845731478,-306.66649234618075)" fill="#303841"></use><use xlink:href="#bbburst-shape-1" width="41.34130420202017" opacity="0.459444894886583" transform="matrix(0.79413277276738,-0.6077443041417935,0.6077443041417935,0.79413277276738,72.72363059259106,121.37890739178101)" fill="#ffa6d5"></use><use xlink:href="#bbburst-shape-4" width="34.19728169747309" opacity="0.3744441776664802" transform="matrix(0.7414279333813227,0.6710325026419368,-0.6710325026419368,0.7414279333813227,309.3349170912938,315.23160160753827)" fill="#7dd5d9"></use><use xlink:href="#bbburst-shape-1" width="15.03534405493253" opacity="0.8221671942242634" transform="matrix(0.7796123770067359,-0.62626235845523,0.62626235845523,0.7796123770067359,-124.86270596303086,-187.39448763303085)" fill="#7dd5d9"></use><use xlink:href="#bbburst-shape-6" width="25.639389098074737" opacity="0.22774806313994878" transform="matrix(0.9529866549040688,0.30301226967691164,-0.30301226967691164,0.9529866549040688,190.40066599215965,382.8696564201054)" fill="#7dd5d9"></use><use xlink:href="#bbburst-shape-6" width="8.663721777592837" opacity="0.9482559670922577" transform="matrix(0.9629133900904916,-0.2698106802638412,0.2698106802638412,0.9629133900904916,-61.47137045350183,-373.2891165100287)" fill="#ffa6d5"></use><use xlink:href="#bbburst-shape-7" width="23.80898912655123" opacity="0.7616991029318158" transform="matrix(0.8288421398895904,0.5594825351548023,-0.5594825351548023,0.8288421398895904,442.64999086032367,-271.60064560931016)" fill="#ffa6d5"></use><use xlink:href="#bbburst-shape-1" width="38.6599113324643" opacity="0.31373054829738845" transform="matrix(0.9997731842897809,-0.02129741709860285,0.02129741709860285,0.9997731842897809,656.8309871571745,-352.68626647058153)" fill="#ff794e"></use><use xlink:href="#bbburst-shape-8" width="26.67747515860489" opacity="0.6095209920442477" transform="matrix(0.836967356379071,0.5472528157587031,-0.5472528157587031,0.836967356379071,521.0983183306723,-109.10900108272594)" fill="none" stroke="#ff794e"></use><use xlink:href="#bbburst-shape-6" width="41.30394778606132" opacity="0.14660012800853373" transform="matrix(0.9985764040096983,0.053340091442177114,-0.053340091442177114,0.9985764040096983,741.9363229544647,22.410362117171076)" fill="#ffa6d5"></use><use xlink:href="#bbburst-shape-6" width="12.663577145376715" opacity="0.870922032953259" transform="matrix(0.9676908406442885,0.25213971708786853,-0.25213971708786853,0.9676908406442885,222.87627064083918,-373.20319269120716)" fill="#ff794e"></use><use xlink:href="#bbburst-shape-7" width="27.813112273902615" opacity="0.6317761797338477" transform="matrix(0.9929043231094116,0.11891595835143937,-0.11891595835143937,0.9929043231094116,281.38475500008684,-126.40011514650206)" fill="#7dd5d9"></use><use xlink:href="#bbburst-shape-1" width="22.93424998596742" opacity="0.7283836058216222" transform="matrix(0.7352961223719039,0.6777459792760427,-0.6777459792760427,0.7352961223719039,398.41084318571166,-66.61642890105574)" fill="#ffa6d5"></use><use xlink:href="#bbburst-shape-1" width="28.040760175957615" opacity="0.572553153595194" transform="matrix(0.9065020218763254,0.4222014736285674,-0.4222014736285674,0.9065020218763254,581.0335276160847,-321.6927164959039)" fill="#7dd5d9"></use><use xlink:href="#bbburst-shape-10" width="25.941669550384866" opacity="0.6209337160715562" transform="matrix(0.9307282251646016,-0.3657115952249131,0.3657115952249131,0.9307282251646016,-88.25384334175294,4.979878273711108)" fill="none" stroke="#ff794e"></use><use xlink:href="#bbburst-shape-10" width="14.922108271685566" opacity="0.8310254875801661" transform="matrix(0.9071236865871638,0.4208641315585269,-0.4208641315585269,0.9071236865871638,182.20483524860214,-198.27879865768597)" fill="none" stroke="#ffa6d5"></use><use xlink:href="#bbburst-shape-7" width="23.015541949195097" opacity="0.6725671195909482" transform="matrix(0.9996093970464691,0.027947331471795192,-0.027947331471795192,0.9996093970464691,76.32501506768517,-81.86009556684672)" fill="#7dd5d9"></use><use xlink:href="#bbburst-shape-10" width="25.613766212205874" opacity="0.6691573477866279" transform="matrix(0.9507665002243537,0.30990815099176416,-0.30990815099176416,0.9507665002243537,403.19074120777816,-227.62095344959766)" fill="none" stroke="#7dd5d9"></use><use xlink:href="#bbburst-shape-4" width="18.742005611679495" opacity="0.5829946266005557" transform="matrix(0.8577040897333005,0.5141436515748983,-0.5141436515748983,0.8577040897333005,230.04191541671034,67.85728059634152)" fill="#ffbd9b"></use><use xlink:href="#bbburst-shape-8" width="14.414027886546496" opacity="0.6292583400929239" transform="matrix(0.7469850679706957,0.6648408142020277,-0.6648408142020277,0.7469850679706957,280.3651160039922,66.62635502681712)" fill="none" stroke="#303841"></use><use xlink:href="#bbburst-shape-6" width="20.191933289130585" opacity="0.6918444993104316" transform="matrix(0.8618283369633293,0.5072000765053393,-0.5072000765053393,0.8618283369633293,499.80515132520395,-310.45103241385834)" fill="#7dd5d9"></use><use xlink:href="#bbburst-shape-4" width="19.313788163739858" opacity="0.7478366274583448" transform="matrix(0.8770730779020743,0.480356967285145,-0.480356967285145,0.8770730779020743,273.87981549984426,-119.97954552446603)" fill="#ff794e"></use><use xlink:href="#bbburst-shape-10" width="4.977537411948915" opacity="0.986363961305428" transform="matrix(0.9922973332479352,-0.12387898299968478,0.12387898299968478,0.9922973332479352,-40.255974163777815,-389.71706451470476)" fill="none" stroke="#ffa6d5"></use><use xlink:href="#bbburst-shape-10" width="20.975257593952907" opacity="0.7712586037874949" transform="matrix(0.7478825529435206,-0.6638310681210109,0.6638310681210109,0.7478825529435206,-94.86834839403215,-149.16071189186738)" fill="none" stroke="#ff794e"></use><use xlink:href="#bbburst-shape-1" width="58.35209836340923" opacity="0.3010892614900794" transform="matrix(0.8610435995939127,-0.5085311392612626,0.5085311392612626,0.8610435995939127,394.7355573007976,-13.19538684022831)" fill="#ffa6d5"></use><use xlink:href="#bbburst-shape-1" width="32.53000142673476" opacity="0.6140199695378763" transform="matrix(0.955735159418938,-0.2942283212922526,0.2942283212922526,0.955735159418938,49.741590762407384,-37.60934115143351)" fill="#7dd5d9"></use><use xlink:href="#bbburst-shape-10" width="52.548381015333845" opacity="0.403130611906647" transform="matrix(0.9727918677968951,0.23168077595741143,-0.23168077595741143,0.9727918677968951,575.9330094428178,-83.18593808288762)" fill="none" stroke="#303841"></use><use xlink:href="#bbburst-shape-8" width="46.33497532825796" opacity="0.22661541451423883" transform="matrix(0.9979981061981442,0.06324381412373549,-0.06324381412373549,0.9979981061981442,503.61445839628317,188.13399900205263)" fill="none" stroke="#303841"></use><use xlink:href="#bbburst-shape-6" width="17.351367788482776" opacity="0.794904867235007" transform="matrix(0.9811874664751804,0.19305738947788734,-0.19305738947788734,0.9811874664751804,256.5667271568635,-311.8451990574246)" fill="#7dd5d9"></use><use xlink:href="#bbburst-shape-4" width="14.444457851785243" opacity="0.7227472911462759" transform="matrix(0.8328684750185231,0.5534709597804746,-0.5534709597804746,0.8328684750185231,282.39268467882584,-68.10500581751711)" fill="#303841"></use><use xlink:href="#bbburst-shape-7" width="21.961104139913516" opacity="0.6679539260011826" transform="matrix(0.8836464482006087,-0.46815484039198946,0.46815484039198946,0.8836464482006087,-13.74062667693292,-71.41798496099165)" fill="#ffa6d5"></use><use xlink:href="#bbburst-shape-7" width="11.816397928129732" opacity="0.8711156461403573" transform="matrix(0.901137013712519,0.4335344075356458,-0.4335344075356458,0.901137013712519,233.21177257709834,-251.83765234662144)" fill="#7dd5d9"></use><use xlink:href="#bbburst-shape-4" width="41.06274511101592" opacity="0.4096576491331113" transform="matrix(0.783493731523302,0.6213996883356894,-0.6213996883356894,0.783493731523302,818.5130671283432,-255.17078225574937)" fill="#303841"></use><use xlink:href="#bbburst-shape-4" width="18.58661534064926" opacity="0.782225221077393" transform="matrix(0.9756314981754145,-0.2194155413091702,0.2194155413091702,0.9756314981754145,-41.04046134656651,-177.68944604588705)" fill="#ff794e"></use><use xlink:href="#bbburst-shape-4" width="19.581127556161636" opacity="0.6816974679829826" transform="matrix(0.7977406546644683,0.6030007030638568,-0.6030007030638568,0.7977406546644683,357.21100401454885,-31.758618611026293)" fill="#7dd5d9"></use><use xlink:href="#bbburst-shape-4" width="10.971372972908938" opacity="0.9009331854277152" transform="matrix(0.7489342050922659,0.6626443664914202,-0.6626443664914202,0.7489342050922659,314.6788167760058,-219.97470090645493)" fill="#303841"></use><use xlink:href="#bbburst-shape-1" width="53.174703333155" opacity="0.35144287562540966" transform="matrix(0.8999896802924716,-0.4359112012406365,0.4359112012406365,0.8999896802924716,211.998333660848,153.96222778773563)" fill="#ffa6d5"></use><use xlink:href="#bbburst-shape-1" width="20.328938138348313" opacity="0.737398852407599" transform="matrix(0.9595584351278323,0.28150951951048775,-0.28150951951048775,0.9595584351278323,364.20834246707113,-361.21289203291036)" fill="#ffa6d5"></use><use xlink:href="#bbburst-shape-6" width="8.782484809019486" opacity="0.8862306322172782" transform="matrix(0.9663753973492275,-0.25713535618059735,0.25713535618059735,0.9663753973492275,-82.62397132784069,-274.3150975639162)" fill="#ffa6d5"></use><use xlink:href="#bbburst-shape-6" width="7.742477081146833" opacity="0.9547549103639104" transform="matrix(0.9757736759604225,0.2187823880084598,-0.2187823880084598,0.9757736759604225,101.14703851389159,-349.3956562823396)" fill="#ffa6d5"></use><use xlink:href="#bbburst-shape-7" width="38.93488801826402" opacity="0.21068025781714295" transform="matrix(0.9538964399557508,0.30013593893391843,-0.30013593893391843,0.9538964399557508,331.46125142484607,367.57874306471825)" fill="#ffbd9b"></use><use xlink:href="#bbburst-shape-8" width="40.64409373928227" opacity="0.2338078877940466" transform="matrix(0.8737704300691804,-0.48633860173414106,0.48633860173414106,0.8737704300691804,546.8061694766599,-235.60577377536737)" fill="none" stroke="#7dd5d9"></use><use xlink:href="#bbburst-shape-8" width="48.4111643079763" opacity="0.2079193052286361" transform="matrix(0.7168187465494782,0.6972595532477378,-0.6972595532477378,0.7168187465494782,1006.2835590649704,-33.849749141252744)" fill="none" stroke="#7dd5d9"></use><use xlink:href="#bbburst-shape-6" width="47.71110163997939" opacity="0.3205260934851446" transform="matrix(0.9540746300088732,-0.2995690243890909,0.2995690243890909,0.9540746300088732,512.4529512454958,-193.90917543323314)" fill="#ffa6d5"></use><use xlink:href="#bbburst-shape-7" width="51.33276084636098" opacity="0.09453080464196706" transform="matrix(0.9161414154466642,0.40085521937899554,-0.40085521937899554,0.9161414154466642,667.622587401333,356.62314122953734)" fill="#ffbd9b"></use><use xlink:href="#bbburst-shape-7" width="12.053174458603282" opacity="0.8623243211460123" transform="matrix(0.7877627045823641,0.6159788318352173,-0.6159788318352173,0.7877627045823641,256.4147883556132,-181.96946113241995)" fill="#303841"></use><use xlink:href="#bbburst-shape-1" width="24.910575714063846" opacity="0.6175201886242746" transform="matrix(0.9757497990314143,0.21888885236611408,-0.21888885236611408,0.9757497990314143,200.64008213172576,-31.602411819855377)" fill="#ffbd9b"></use><use xlink:href="#bbburst-shape-4" width="39.25407409764462" opacity="0.4820073200926299" transform="matrix(0.8911730858573135,0.45366345570648886,-0.45366345570648886,0.8911730858573135,414.4259071967605,88.0702583331763)" fill="#7dd5d9"></use></svg>