<svg xmlns="http://www.w3.org/2000/svg" version="1.1" xmlns:xlink="http://www.w3.org/1999/xlink" xmlns:svgjs="http://svgjs.dev/svgjs" viewBox="0 0 800 800"><defs><symbol id="bbburst-shape-1" viewBox="0 0 194 167"><path d="m97 0 96.129 166.5H.871L97 0Z"></path></symbol><symbol id="bbburst-shape-4" viewBox="0 0 149 143"><path d="M71.647 2.781c.898-2.764 4.808-2.764 5.706 0l15.445 47.534a3 3 0 0 0 2.853 2.073h49.98c2.906 0 4.115 3.719 1.764 5.427L106.96 87.193a2.999 2.999 0 0 0-1.09 3.354l15.445 47.534c.898 2.764-2.266 5.062-4.617 3.354l-40.435-29.378a3 3 0 0 0-3.526 0l-40.435 29.378c-2.351 1.708-5.515-.59-4.617-3.354L43.13 90.547a3 3 0 0 0-1.09-3.354L1.605 57.815c-2.35-1.708-1.142-5.427 1.764-5.427h49.98a3 3 0 0 0 2.853-2.073L71.647 2.781Z"></path></symbol><symbol id="bbburst-shape-6" viewBox="0 0 133 116"><path d="M59.7487 10.2513c-13.6683-13.66839-35.8291-13.66839-49.4974 0-13.66839 13.6683-13.66839 35.8291 0 49.4974l49.4974-49.4974ZM66.5 66.5 41.7513 91.2487 66.5 115.997l24.7487-24.7483L66.5 66.5Zm56.249-6.7513c13.668-13.6683 13.668-35.8291 0-49.4974-13.669-13.66839-35.8294-13.66839-49.4977 0l49.4977 49.4974Zm-112.4977 0 31.5 31.5 49.4974-49.4974-31.5-31.5-49.4974 49.4974Zm80.9974 31.5 31.5003-31.5-49.4977-49.4974-31.5 31.5 49.4974 49.4974Z"></path></symbol><symbol id="bbburst-shape-7" viewBox="0 0 139 124"><path fill-rule="evenodd" clip-rule="evenodd" d="M70.1641 15.0917C54.6093.764854 37.8293-2.10782 24.4032 2.82615 10.3804 7.97941.763366 21.4591 1.00047 37.0608c.1068 7.0273 2.86132 13.7317 7.0039 20.2001C12.1442 63.7249 17.853 70.2322 24.25 76.9024c3.8209 3.9842 7.8871 8.0312 12.0767 12.201h.0001c10.0335 9.9862 20.7748 20.6766 30.5497 32.8956 1.38 1.725 3.8972 2.005 5.6223.624.6706-.536 1.1228-1.244 1.3439-2.011 9.5768-11.748 20.0328-22.0735 29.8163-31.7351 4.19-4.1373 8.256-8.1528 12.078-12.1062 6.396-6.6176 12.106-13.0752 16.247-19.4911 4.144-6.4196 6.905-13.0811 7.012-20.0691.237-15.5124-9.399-28.8902-23.411-33.99923-13.32-4.85681-29.9542-2.08621-45.4209 11.88043Zm-3.7351 7.4919C52.1278 8.44857 37.6826 6.46918 27.1626 10.3352 16.2859 14.3323 8.8148 24.7824 8.99955 36.9392c.07575 4.9844 2.03755 10.2234 5.74165 16.0072 3.707 5.7881 8.9752 11.8418 15.2827 18.4187 3.5798 3.7328 7.4978 7.6329 11.6 11.7163 9.0476 9.0063 18.9911 18.9046 28.1786 29.8666 9.2999-11.068 19.4036-21.0473 28.5839-30.1144l.0007-.0006c4.1019-4.0508 8.0189-7.9196 11.5979-11.6222 6.307-6.5252 11.573-12.5298 15.278-18.2697 3.703-5.7362 5.658-10.924 5.734-15.8531.184-12.0276-7.267-22.3914-18.153-26.3608-10.71-3.90518-25.4722-1.80041-40.0023 12.867-1.5547 1.5694-4.0874 1.5813-5.6568.0265-.3146-.3116-.5666-.6625-.7559-1.0371Z"></path></symbol><symbol id="bbburst-shape-8" viewBox="0 0 87 168"><path d="m12 12 31.2546 18.0749c16.4102 9.4902 20.014 31.6325 7.4603 45.8369L36.3296 92.1884c-12.5684 14.2206-8.9394 36.3916 7.5068 45.8636L75 156" stroke-width="14" stroke-linecap="round" stroke-linejoin="round"></path></symbol><symbol id="bbburst-shape-10" viewBox="0 0 145 145"><circle cx="72.5" cy="72.5" r="61.5" fill="none" stroke-width="22"></circle></symbol></defs><use xlink:href="#bbburst-shape-4" width="8.600628034284796" opacity="0.8629309864655017" transform="matrix(0.9999754655641351,0.0070048747163148056,-0.0070048747163148056,0.9999754655641351,442.4409806075778,43.275939258462245)" fill="#ff794e"></use><use xlink:href="#bbburst-shape-6" width="26.82602436375044" opacity="0.2932985645144468" transform="matrix(0.8476448198130251,-0.5305640955098114,0.5305640955098114,0.8476448198130251,64.86168058169847,-229.75327262278893)" fill="#303841"></use><use xlink:href="#bbburst-shape-6" width="29.24258903876339" opacity="0.4411599377402835" transform="matrix(0.9364143036988969,-0.3508963548230591,0.3508963548230591,0.9364143036988969,64.28746612255176,204.4614678432951)" fill="#ff794e"></use><use xlink:href="#bbburst-shape-10" width="12.833539758697935" opacity="0.6931571615158236" transform="matrix(0.965741374466513,0.2595064501000512,-0.2595064501000512,0.965741374466513,558.1247742114974,-112.07186010026919)" fill="none" stroke="#7dd5d9"></use><use xlink:href="#bbburst-shape-10" width="49.30720711092907" opacity="-0.08840643388112057" transform="matrix(0.9060135936570828,-0.42324858902136747,0.42324858902136747,0.9060135936570828,550.2894111304342,398.7061424981863)" fill="none" stroke="#303841"></use><use xlink:href="#bbburst-shape-1" width="23.763767185897965" opacity="0.5627639823990671" transform="matrix(0.9410429882867938,0.338286999744686,-0.338286999744686,0.9410429882867938,703.4127241608669,100.63673849962044)" fill="#7dd5d9"></use><use xlink:href="#bbburst-shape-4" width="27.70972120880755" opacity="0.38653678853610285" transform="matrix(0.8424986963044004,0.5386983819591309,-0.5386983819591309,0.8424986963044004,503.4501401408233,312.7342400218138)" fill="#ffa6d5"></use><use xlink:href="#bbburst-shape-6" width="12.22061298926782" opacity="0.8068167544311493" transform="matrix(0.9523664867048489,-0.30495585746376935,0.30495585746376935,0.9523664867048489,230.0617243741217,96.95472477356691)" fill="#303841"></use><use xlink:href="#bbburst-shape-8" width="22.18475986186007" opacity="0.1700592333950578" transform="matrix(0.9645419139666533,-0.2639297182992949,0.2639297182992949,0.9645419139666533,240.3856100803377,388.0605508825004)" fill="none" stroke="#303841"></use><use xlink:href="#bbburst-shape-10" width="21.090535966249586" opacity="0.3034540822574554" transform="matrix(0.7458095888258095,-0.6661591830902559,0.6661591830902559,0.7458095888258095,438.2893371400451,85.93452339924897)" fill="none" stroke="#ffa6d5"></use><use xlink:href="#bbburst-shape-6" width="31.95924255901366" opacity="0.13368159927753265" transform="matrix(0.770551392004333,-0.6373778724431722,0.6373778724431722,0.770551392004333,-233.11186911934578,-32.69462781128516)" fill="#ffa6d5"></use><use xlink:href="#bbburst-shape-6" width="7.942810095239018" opacity="0.8819259025747774" transform="matrix(0.9541327394623471,0.29938389316407266,-0.29938389316407266,0.9541327394623471,526.8682274026935,-34.844446690767256)" fill="#ffbd9b"></use><use xlink:href="#bbburst-shape-4" width="20.888698779529555" opacity="0.5094397920137126" transform="matrix(0.9088863826448765,0.4170438147757513,-0.4170438147757513,0.9088863826448765,693.5644701709041,205.7965180036656)" fill="#ffa6d5"></use><use xlink:href="#bbburst-shape-7" width="13.079585000589285" opacity="0.6901339443935379" transform="matrix(0.7999117866143237,0.6001175998381323,-0.6001175998381323,0.7999117866143237,735.0925602670468,172.93462673635167)" fill="#ffbd9b"></use><use xlink:href="#bbburst-shape-10" width="34.55686655624803" opacity="0.18725438905835634" transform="matrix(0.8701596513139717,-0.49276990698007034,0.49276990698007034,0.8701596513139717,219.5814416234025,-303.90658691751196)" fill="none" stroke="#ffa6d5"></use><use xlink:href="#bbburst-shape-4" width="11.37786530877336" opacity="0.8612362284949373" transform="matrix(0.857016420476809,-0.5152890985001694,0.5152890985001694,0.857016420476809,133.74564550315344,89.19585245695612)" fill="#7dd5d9"></use><use xlink:href="#bbburst-shape-6" width="25.631416683958314" opacity="0.4929296485933117" transform="matrix(0.99299998669583,0.11811446322140819,-0.11811446322140819,0.99299998669583,650.1106835186955,-73.46246579630485)" fill="#7dd5d9"></use><use xlink:href="#bbburst-shape-10" width="8.670820616307997" opacity="0.929658318809258" transform="matrix(0.9924286142706586,-0.12282282188917566,0.12282282188917566,0.9924286142706586,374.1900053726376,-11.898613384910789)" fill="none" stroke="#ff794e"></use><use xlink:href="#bbburst-shape-6" width="26.806687025181432" opacity="0.301838408959315" transform="matrix(0.9997014387102217,0.02443426775479342,-0.02443426775479342,0.9997014387102217,382.80630929814123,313.6718138411016)" fill="#7dd5d9"></use><use xlink:href="#bbburst-shape-4" width="26.357960127795028" opacity="0.5685587168623116" transform="matrix(0.9745341412177521,-0.22423917499174492,0.22423917499174492,0.9745341412177521,390.66105955337093,-157.15362890030826)" fill="#ffbd9b"></use><use xlink:href="#bbburst-shape-6" width="10.75617769503879" opacity="0.7127241204364911" transform="matrix(0.9642537781605361,0.264980473437443,-0.264980473437443,0.9642537781605361,375.0688737381032,-17.15814788194359)" fill="#7dd5d9"></use><use xlink:href="#bbburst-shape-10" width="12.643453214070142" opacity="0.760450803119654" transform="matrix(0.7479601910320415,0.6637435895218213,-0.6637435895218213,0.7479601910320415,681.059084668437,202.4902965668129)" fill="none" stroke="#303841"></use><use xlink:href="#bbburst-shape-8" width="11.05815976526183" opacity="0.8485152416904862" transform="matrix(0.9215922164379576,-0.3881594860375984,0.3881594860375984,0.9215922164379576,271.52260140625333,-26.74382625210336)" fill="none" stroke="#ffa6d5"></use><use xlink:href="#bbburst-shape-10" width="37.08913218504709" opacity="0.12776654733244774" transform="matrix(0.7830074835774217,0.6220122833688686,-0.6220122833688686,0.7830074835774217,370.54856216119254,365.9571495449994)" fill="none" stroke="#303841"></use><use xlink:href="#bbburst-shape-4" width="16.579601606648122" opacity="0.6741400335260035" transform="matrix(0.9337121710407763,-0.35802455453546755,0.35802455453546755,0.9337121710407763,381.6873857378839,92.03611252651524)" fill="#ffbd9b"></use><use xlink:href="#bbburst-shape-1" width="33.42194445197958" opacity="0.33485154900891656" transform="matrix(0.999960185056409,0.00892346916576061,-0.00892346916576061,0.999960185056409,672.6868559915224,-88.93162136721173)" fill="#7dd5d9"></use><use xlink:href="#bbburst-shape-10" width="36.42404962570541" opacity="0.2457287486141817" transform="matrix(0.8013635241421054,0.5981776510156035,-0.5981776510156035,0.8013635241421054,791.5252084406947,364.14283930263105)" fill="none" stroke="#ff794e"></use><use xlink:href="#bbburst-shape-8" width="44.304597197493926" opacity="0.029391596152692934" transform="matrix(0.8407517677294917,0.5414207837345506,-0.5414207837345506,0.8407517677294917,239.79380337981786,-198.29435732689927)" fill="none" stroke="#ffbd9b"></use><use xlink:href="#bbburst-shape-4" width="27.618796900371557" opacity="0.23160533695140595" transform="matrix(0.7246173558353204,-0.6891514257565087,0.6891514257565087,0.7246173558353204,380.60338113961575,-100.92785439943006)" fill="#ffbd9b"></use><use xlink:href="#bbburst-shape-6" width="30.936540502927723" opacity="-0.09285459764873649" transform="matrix(0.9808601345630034,0.19471362670611142,-0.19471362670611142,0.9808601345630034,123.09122438483035,-351.0366249666409)" fill="#7dd5d9"></use><use xlink:href="#bbburst-shape-6" width="30.877341382720402" opacity="0.043564879714667715" transform="matrix(0.9674284114104171,0.25314475857879576,-0.25314475857879576,0.9674284114104171,716.8513924664246,-354.3304085539792)" fill="#ffa6d5"></use><use xlink:href="#bbburst-shape-1" width="40.11651138469621" opacity="-0.09309171176498166" transform="matrix(0.9373679618708364,-0.34834078724449463,0.34834078724449463,0.9373679618708364,588.1995034581772,-317.2247059853412)" fill="#ffbd9b"></use><use xlink:href="#bbburst-shape-10" width="32.358032347920954" opacity="0.2026618386171809" transform="matrix(0.7846472306289339,-0.6199425162596486,0.6199425162596486,0.7846472306289339,14.389146065189777,432.51806893565833)" fill="none" stroke="#303841"></use><use xlink:href="#bbburst-shape-4" width="19.51460261038705" opacity="0.6285225289302365" transform="matrix(0.914235778597608,-0.40518260220797425,0.40518260220797425,0.914235778597608,68.93559377069985,-9.881764166917435)" fill="#ffa6d5"></use><use xlink:href="#bbburst-shape-6" width="37.323619087137125" opacity="0.2585829918875634" transform="matrix(0.8511422905101689,-0.5249350448437439,0.5249350448437439,0.8511422905101689,-97.091275440358,263.6240255464015)" fill="#ffbd9b"></use><use xlink:href="#bbburst-shape-4" width="16.90617617214497" opacity="0.593760870447188" transform="matrix(0.9379728310076926,0.34670876581277055,-0.34670876581277055,0.9379728310076926,405.10246371117717,154.67802554410468)" fill="#ff794e"></use><use xlink:href="#bbburst-shape-4" width="8.08295942349046" opacity="0.8683913812592282" transform="matrix(0.948694993636079,-0.31619267709711435,0.31619267709711435,0.948694993636079,210.55402740269747,18.60161490174329)" fill="#303841"></use><use xlink:href="#bbburst-shape-7" width="34.49669975048579" opacity="0.2253050695083072" transform="matrix(0.7316755170644484,0.6816530919232099,-0.6816530919232099,0.7316755170644484,371.35375629230845,-100.06618746575447)" fill="#ff794e"></use><use xlink:href="#bbburst-shape-10" width="8.437873266194721" opacity="0.8297969989818738" transform="matrix(0.976167820398716,-0.21701701872899312,0.21701701872899312,0.976167820398716,377.8812778100098,44.092232382065845)" fill="none" stroke="#7dd5d9"></use><use xlink:href="#bbburst-shape-10" width="22.091024378992905" opacity="0.6068711083144172" transform="matrix(0.9997441090745264,-0.022621148750261482,0.022621148750261482,0.9997441090745264,518.195511275745,110.68463249317415)" fill="none" stroke="#7dd5d9"></use><use xlink:href="#bbburst-shape-1" width="23.674981120103343" opacity="0.34035933423400677" transform="matrix(0.9997105390547377,0.02405905448860574,-0.02405905448860574,0.9997105390547377,434.2314472720415,-294.7313099065728)" fill="#ffa6d5"></use><use xlink:href="#bbburst-shape-4" width="12.20626021265315" opacity="0.740172027125495" transform="matrix(0.8495764562746848,0.5274654917089351,-0.5274654917089351,0.8495764562746848,564.3897270074717,166.30530416234944)" fill="#ffa6d5"></use><use xlink:href="#bbburst-shape-4" width="8.58750490813853" opacity="0.8484149778759539" transform="matrix(0.8786487487134843,-0.47746871770224725,0.47746871770224725,0.8786487487134843,185.33309210422502,115.84029470482835)" fill="#ffa6d5"></use><use xlink:href="#bbburst-shape-1" width="10.52457513850888" opacity="0.8045243061990848" transform="matrix(0.9996982961659631,-0.024562504816699842,0.024562504816699842,0.9996982961659631,450.41210630314583,58.9811014764943)" fill="#ffa6d5"></use><use xlink:href="#bbburst-shape-8" width="12.732100190258082" opacity="0.7748109077925771" transform="matrix(0.9977225953863794,0.06745089069439301,-0.06745089069439301,0.9977225953863794,398.5887216771955,-98.42766257293198)" fill="none" stroke="#ffa6d5"></use><use xlink:href="#bbburst-shape-10" width="17.137089993059078" opacity="0.6959666412189286" transform="matrix(0.8231934110403245,0.5677610483467453,-0.5677610483467453,0.8231934110403245,621.2107336151273,-70.95234525612778)" fill="none" stroke="#7dd5d9"></use><use xlink:href="#bbburst-shape-4" width="22.066976515383235" opacity="0.5772832663392019" transform="matrix(0.8678566512057031,0.496814686737442,-0.496814686737442,0.8678566512057031,588.8325317993599,237.61539277260403)" fill="#7dd5d9"></use><use xlink:href="#bbburst-shape-4" width="9.962413118384388" opacity="0.8433536492494305" transform="matrix(0.9128732843756147,-0.4082430240350448,0.4082430240350448,0.9128732843756147,294.5385290173224,4.062814145902166)" fill="#ffa6d5"></use><use xlink:href="#bbburst-shape-4" width="32.807372101682404" opacity="0.4125030040968163" transform="matrix(0.8959704421316659,-0.4441136868262305,0.4441136868262305,0.8959704421316659,175.75747616417652,-213.5168082434484)" fill="#ffa6d5"></use><use xlink:href="#bbburst-shape-10" width="38.3328925677194" opacity="0.09451783647606438" transform="matrix(0.999272104996276,0.038147872500465224,-0.038147872500465224,0.999272104996276,205.56210880076503,-360.6095600589301)" fill="none" stroke="#ffa6d5"></use><use xlink:href="#bbburst-shape-10" width="9.583697139412282" opacity="0.9161440890838933" transform="matrix(0.7173736784676092,0.6966886000515949,-0.6966886000515949,0.7173736784676092,681.0248835775085,147.00088153850783)" fill="none" stroke="#ffa6d5"></use><use xlink:href="#bbburst-shape-8" width="16.002021046170917" opacity="0.717898253500679" transform="matrix(0.9907373243771014,0.1357923196874635,-0.1357923196874635,0.9907373243771014,379.7243418888596,-105.4134329208419)" fill="none" stroke="#ff794e"></use><use xlink:href="#bbburst-shape-10" width="25.094512760147673" opacity="0.5769334649722615" transform="matrix(0.9985486737342704,-0.053856719019354,0.053856719019354,0.9985486737342704,339.38874473821284,-187.26473727570647)" fill="none" stroke="#ff794e"></use><use xlink:href="#bbburst-shape-4" width="19.879153543961262" opacity="0.597218936027015" transform="matrix(0.894747395374958,0.4465726127627271,-0.4465726127627271,0.894747395374958,488.2933561635097,-124.24924466196967)" fill="#303841"></use><use xlink:href="#bbburst-shape-7" width="26.608649285649616" opacity="0.4601191391827071" transform="matrix(0.9837253535446774,-0.17967868207831295,0.17967868207831295,0.9837253535446774,217.93658405758651,-213.8292090538886)" fill="#7dd5d9"></use><use xlink:href="#bbburst-shape-4" width="12.18121678789025" opacity="0.6959365147006085" transform="matrix(0.9950886824233849,0.09898744421840559,-0.09898744421840559,0.9950886824233849,331.78854145745237,92.86082353136891)" fill="#303841"></use><use xlink:href="#bbburst-shape-8" width="17.540976301960285" opacity="0.6858492992295744" transform="matrix(0.9998418375083551,-0.01778482409010852,0.01778482409010852,0.9998418375083551,345.94522211686376,-135.89753005840208)" fill="none" stroke="#ffa6d5"></use><use xlink:href="#bbburst-shape-7" width="37.70858266878393" opacity="0.049750242396008115" transform="matrix(0.9550696573432561,0.29638142590627264,-0.29638142590627264,0.9550696573432561,145.0294077772506,250.1343226057349)" fill="#ffa6d5"></use><use xlink:href="#bbburst-shape-6" width="29.20175081932362" opacity="0.4120239165160745" transform="matrix(0.9379045942105692,0.3468933152407346,-0.3468933152407346,0.9379045942105692,273.1794688733529,-61.233641593214145)" fill="#7dd5d9"></use><use xlink:href="#bbburst-shape-1" width="26.67942101307197" opacity="0.4362022260437399" transform="matrix(0.8718219965848005,0.48982283151246847,-0.48982283151246847,0.8718219965848005,338.38884055978474,107.25382254461272)" fill="#303841"></use><use xlink:href="#bbburst-shape-7" width="13.504609886218546" opacity="0.6836333658327508" transform="matrix(0.8321436076832865,-0.5545602006922644,0.5545602006922644,0.8321436076832865,34.50137217484533,105.84198328484962)" fill="#ff794e"></use><use xlink:href="#bbburst-shape-8" width="7.303107292623947" opacity="0.9747736789712791" transform="matrix(0.820178605790254,0.5721075551012722,-0.5721075551012722,0.820178605790254,617.7952416582315,61.83848184563385)" fill="none" stroke="#7dd5d9"></use><use xlink:href="#bbburst-shape-6" width="8.782163860364491" opacity="0.8722769713479877" transform="matrix(0.9780259297901245,0.2084832862801296,-0.2084832862801296,0.9780259297901245,503.33528933724625,59.98955734972685)" fill="#ffbd9b"></use><use xlink:href="#bbburst-shape-8" width="11.318087289652013" opacity="0.797373925039103" transform="matrix(0.9245344980640544,-0.3810983624859164,0.3810983624859164,0.9245344980640544,231.15486279266779,122.83735312437221)" fill="none" stroke="#303841"></use><use xlink:href="#bbburst-shape-8" width="21.194714405148865" opacity="0.632560642008928" transform="matrix(0.9893253047485671,0.14572385317495173,-0.14572385317495173,0.9893253047485671,485.0811792892046,-158.3656103802104)" fill="none" stroke="#ff794e"></use><use xlink:href="#bbburst-shape-8" width="29.01828726592735" opacity="0.18525949853203683" transform="matrix(0.9954914234057097,0.09485159948927543,-0.09485159948927543,0.9954914234057097,356.6486653670623,-360.0602802514226)" fill="none" stroke="#ffa6d5"></use><use xlink:href="#bbburst-shape-8" width="27.75037323288816" opacity="0.4370661344116823" transform="matrix(0.9948705835921069,0.10115592866016579,-0.10115592866016579,0.9948705835921069,522.7889274718818,-233.7234127365723)" fill="none" stroke="#ffa6d5"></use><use xlink:href="#bbburst-shape-10" width="7.579189281054925" opacity="0.8868181216635422" transform="matrix(0.9997470417053044,0.022491167188309243,-0.022491167188309243,0.9997470417053044,440.9568653106554,-36.26158212333826)" fill="none" stroke="#303841"></use><use xlink:href="#bbburst-shape-6" width="34.94656359431894" opacity="0.14221860151982546" transform="matrix(0.9984413315784172,0.05581135543881056,-0.05581135543881056,0.9984413315784172,39.415967796072565,123.88398297331617)" fill="#7dd5d9"></use><use xlink:href="#bbburst-shape-4" width="11.430676745453361" opacity="0.7513816660530037" transform="matrix(0.8384311724849437,-0.5450074944489504,0.5450074944489504,0.8384311724849437,202.21270548098656,-41.29767270866813)" fill="#303841"></use><use xlink:href="#bbburst-shape-6" width="35.32862653176732" opacity="0.11469443209159247" transform="matrix(0.7076438976615718,0.70656925640898,-0.70656925640898,0.7076438976615718,407.36819348720826,-194.9881948049267)" fill="#ff794e"></use><use xlink:href="#bbburst-shape-8" width="18.041652939389927" opacity="0.6032538636187849" transform="matrix(0.9917915038102249,0.12786560510885162,-0.12786560510885162,0.9917915038102249,506.91722182047505,168.52294285514262)" fill="none" stroke="#ffa6d5"></use><use xlink:href="#bbburst-shape-4" width="12.712178726076052" opacity="0.7318221503014595" transform="matrix(0.9708726874561946,-0.2395959614676056,0.2395959614676056,0.9708726874561946,415.6470180347392,40.042018929289895)" fill="#7dd5d9"></use><use xlink:href="#bbburst-shape-1" width="26.579032192660218" opacity="0.13545215686722134" transform="matrix(0.823381936924215,0.5674876086285302,-0.5674876086285302,0.823381936924215,871.628115023542,-230.17230776771856)" fill="#ffbd9b"></use><use xlink:href="#bbburst-shape-8" width="14.162062505019755" opacity="0.6874798274039868" transform="matrix(0.7364295245267072,0.676514268441818,-0.676514268441818,0.7364295245267072,541.0728061764607,166.3867166157138)" fill="none" stroke="#7dd5d9"></use><use xlink:href="#bbburst-shape-10" width="38.717860225202976" opacity="0.3039075288959273" transform="matrix(0.9923264829249959,-0.12364526390326398,0.12364526390326398,0.9923264829249959,143.48948222960368,-245.20741008948647)" fill="none" stroke="#7dd5d9"></use><use xlink:href="#bbburst-shape-8" width="10.31679357537175" opacity="0.9119769054334548" transform="matrix(0.8389710107549138,0.5441761140594821,-0.5441761140594821,0.8389710107549138,582.1205445318725,85.97992061552975)" fill="none" stroke="#ffa6d5"></use><use xlink:href="#bbburst-shape-8" width="25.013437568712494" opacity="0.32401998194352044" transform="matrix(0.8875096750946956,-0.4607890803972115,0.4607890803972115,0.8875096750946956,285.833948861874,343.89847957521255)" fill="none" stroke="#ffa6d5"></use><use xlink:href="#bbburst-shape-4" width="35.4680755608437" opacity="0.37980093679215976" transform="matrix(0.9906373568643015,0.1365196952271375,-0.1365196952271375,0.9906373568643015,209.93078699190687,-160.86146562958453)" fill="#ffa6d5"></use><use xlink:href="#bbburst-shape-8" width="8.31320486020295" opacity="0.8832584461459821" transform="matrix(0.9944805992653247,-0.10492062564091299,0.10492062564091299,0.9944805992653247,403.9352818536375,-13.358279929733953)" fill="none" stroke="#303841"></use><use xlink:href="#bbburst-shape-1" width="10.997694520743437" opacity="0.8049910404901912" transform="matrix(0.8468935240836463,0.5317625023120589,-0.5317625023120589,0.8468935240836463,651.2143875255219,134.72938735834578)" fill="#ffa6d5"></use><use xlink:href="#bbburst-shape-7" width="13.799708509217778" opacity="0.7993300049301574" transform="matrix(0.9457022389000234,0.32503426794644774,-0.32503426794644774,0.9457022389000234,454.5968719822344,77.89013348209016)" fill="#7dd5d9"></use><use xlink:href="#bbburst-shape-4" width="35.48643625350019" opacity="0.1494660973806149" transform="matrix(0.875234921849068,0.4836980789457983,-0.4836980789457983,0.875234921849068,705.5531786860574,-319.4853548083587)" fill="#303841"></use><use xlink:href="#bbburst-shape-10" width="28.37649031678184" opacity="0.5236181813143257" transform="matrix(0.7883134835837134,-0.6152738021402426,0.6152738021402426,0.7883134835837134,-39.31556254118803,-19.83680237574748)" fill="none" stroke="#ffbd9b"></use><use xlink:href="#bbburst-shape-4" width="22.084947717017382" opacity="0.17518945189127644" transform="matrix(0.9842948198475387,-0.17653245486680724,0.17653245486680724,0.9842948198475387,689.4235595334044,-5.70997845505741)" fill="#ffa6d5"></use><use xlink:href="#bbburst-shape-6" width="10.065575214764728" opacity="0.8135672262200343" transform="matrix(0.9817757298727928,0.19004319570230588,-0.19004319570230588,0.9817757298727928,485.8093734419534,-76.25756620180192)" fill="#ffa6d5"></use><use xlink:href="#bbburst-shape-6" width="24.279756188374353" opacity="0.32095831644789985" transform="matrix(0.8823317686020705,-0.47062793172052836,0.47062793172052836,0.8823317686020705,455.8617251931525,221.41336537232837)" fill="#7dd5d9"></use><use xlink:href="#bbburst-shape-10" width="27.61185530125138" opacity="0.14426598970415105" transform="matrix(0.8913187694837422,-0.4533771621574994,0.4533771621574994,0.8913187694837422,578.3696449973611,149.14758879835972)" fill="none" stroke="#303841"></use><use xlink:href="#bbburst-shape-8" width="9.087546981750313" opacity="0.833704356471583" transform="matrix(0.8763002184976273,-0.48176542742398054,0.48176542742398054,0.8763002184976273,129.9670290379537,66.5175678812966)" fill="none" stroke="#303841"></use><use xlink:href="#bbburst-shape-6" width="24.4984592188225" opacity="0.2795641888166416" transform="matrix(0.8647400632444522,-0.5022196959697824,0.5022196959697824,0.8647400632444522,332.33516170053593,-230.2956643262566)" fill="#303841"></use><use xlink:href="#bbburst-shape-4" width="29.5740958440488" opacity="0.48736081726326563" transform="matrix(0.9888412697829085,0.1489729612182191,-0.1489729612182191,0.9888412697829085,214.28036026042105,0.7847606250696799)" fill="#303841"></use><use xlink:href="#bbburst-shape-10" width="37.42858904020245" opacity="0.14514553895360294" transform="matrix(0.7281707049993242,-0.685395815847155,0.685395815847155,0.7281707049993242,383.2857534229152,394.5099348479197)" fill="none" stroke="#ff794e"></use><use xlink:href="#bbburst-shape-1" width="31.2699994916444" opacity="0.23538680506919152" transform="matrix(0.7943069448279164,0.6075166478362065,-0.6075166478362065,0.7943069448279164,934.1939710536376,-89.04292480922504)" fill="#7dd5d9"></use><use xlink:href="#bbburst-shape-4" width="22.106498468367466" opacity="0.6074157622699379" transform="matrix(0.7140200802398409,-0.7001252209528601,0.7001252209528601,0.7140200802398409,239.8695509330347,0.17165680032991304)" fill="#303841"></use><use xlink:href="#bbburst-shape-8" width="9.371805843190064" opacity="0.8384747886547167" transform="matrix(0.78735280936236,0.6165026793041529,-0.6165026793041529,0.78735280936236,614.0140387523836,15.47491459966659)" fill="none" stroke="#ffa6d5"></use><use xlink:href="#bbburst-shape-7" width="22.084184797714514" opacity="0.5011788878569166" transform="matrix(0.9991715629720814,0.040696286660185564,-0.040696286660185564,0.9991715629720814,285.8048453563866,189.97486637539475)" fill="#7dd5d9"></use><use xlink:href="#bbburst-shape-8" width="26.422725916209746" opacity="0.28686316500588915" transform="matrix(0.8832939018273845,-0.46881967001668634,0.46881967001668634,0.8832939018273845,514.0082594972417,122.77943558792879)" fill="none" stroke="#7dd5d9"></use><use xlink:href="#bbburst-shape-10" width="28.58696880216649" opacity="0.4257683105321439" transform="matrix(0.7768460200974857,-0.6296906074086677,0.6296906074086677,0.7768460200974857,160.8315529980929,355.56687997815277)" fill="none" stroke="#ffbd9b"></use><use xlink:href="#bbburst-shape-6" width="33.14354762933041" opacity="0.34134158905028067" transform="matrix(0.7376797199587205,-0.6751508207516478,0.6751508207516478,0.7376797199587205,318.0170499866673,334.58870045841064)" fill="#303841"></use><use xlink:href="#bbburst-shape-6" width="9.711333413768747" opacity="0.8029577096560259" transform="matrix(0.9430062967479963,0.3327748853108209,-0.3327748853108209,0.9430062967479963,615.1146859485146,40.298778814165985)" fill="#303841"></use><use xlink:href="#bbburst-shape-6" width="7.695661169718213" opacity="0.96880629617424" transform="matrix(0.9613612152916173,0.27529005382146426,-0.27529005382146426,0.9613612152916173,515.7478391154561,3.9094402940672808)" fill="#ffa6d5"></use><use xlink:href="#bbburst-shape-4" width="8.360882059066125" opacity="0.9356251685874445" transform="matrix(0.9459919311148507,-0.32419016990895255,0.32419016990895255,0.9459919311148507,257.24326747025293,-4.527147132508674)" fill="#ffbd9b"></use><use xlink:href="#bbburst-shape-8" width="30.70027958982781" opacity="0.4778983089701955" transform="matrix(0.9990333165413828,0.043959440855464695,-0.043959440855464695,0.9990333165413828,250.2112475940045,-179.40871699264716)" fill="none" stroke="#7dd5d9"></use><use xlink:href="#bbburst-shape-4" width="30.449533741523496" opacity="0.4567328820383766" transform="matrix(0.7946929177966887,-0.607011669083705,0.607011669083705,0.7946929177966887,107.56691555894838,332.95624004318205)" fill="#7dd5d9"></use><use xlink:href="#bbburst-shape-8" width="23.84403319318709" opacity="0.4200270316694694" transform="matrix(0.9931437610266959,0.11689940091270419,-0.11689940091270419,0.9931437610266959,676.6376430967164,99.77128625295967)" fill="none" stroke="#7dd5d9"></use><use xlink:href="#bbburst-shape-6" width="25.32657493133216" opacity="0.6162355368711259" transform="matrix(0.8176234512055719,-0.5757533256861742,0.5757533256861742,0.8176234512055719,-13.346803965789974,81.10759512570928)" fill="#303841"></use><use xlink:href="#bbburst-shape-6" width="8.890965551948907" opacity="0.9110928066689162" transform="matrix(0.7759744018187483,0.6307643995360199,-0.6307643995360199,0.7759744018187483,688.8430420774575,88.11208632285638)" fill="#ffbd9b"></use><use xlink:href="#bbburst-shape-4" width="24.85901857572575" opacity="0.1410422379471984" transform="matrix(0.9544627198012003,-0.2983302138733108,0.2983302138733108,0.9544627198012003,634.9828955396687,-101.84732918889125)" fill="#ff794e"></use><use xlink:href="#bbburst-shape-1" width="11.216830699571451" opacity="0.8628413842948235" transform="matrix(0.7260202066215431,-0.6876733669244519,0.6876733669244519,0.7260202066215431,123.08186582167775,175.14085362068454)" fill="#ffa6d5"></use><use xlink:href="#bbburst-shape-8" width="10.349561840482023" opacity="0.8154822387259621" transform="matrix(0.9999908911659283,0.004268206317937279,-0.004268206317937279,0.9999908911659283,477.9382736191118,-16.376493090914607)" fill="none" stroke="#7dd5d9"></use><use xlink:href="#bbburst-shape-6" width="15.47961668410477" opacity="0.6817921970395001" transform="matrix(0.9118744997285896,-0.4104691178940682,0.4104691178940682,0.9118744997285896,351.94269084032294,-34.573356581607925)" fill="#7dd5d9"></use><use xlink:href="#bbburst-shape-1" width="17.857749814539723" opacity="0.638285583218394" transform="matrix(0.9919373397347645,-0.1267292943242343,0.1267292943242343,0.9919373397347645,500.5757939708015,33.63125335408478)" fill="#7dd5d9"></use><use xlink:href="#bbburst-shape-10" width="24.48838770285757" opacity="0.48003873379325157" transform="matrix(0.9442053238159259,0.3293574144871533,-0.3293574144871533,0.9442053238159259,706.2963594256761,160.09228876633625)" fill="none" stroke="#303841"></use><use xlink:href="#bbburst-shape-10" width="24.519416065005224" opacity="0.4285688431103105" transform="matrix(0.9724119830504173,0.23327009071022145,-0.23327009071022145,0.9724119830504173,257.1249650489279,133.99187363919725)" fill="none" stroke="#7dd5d9"></use><use xlink:href="#bbburst-shape-4" width="20.465141225011994" opacity="0.6174063516440549" transform="matrix(0.7839219747326669,-0.6208593540659881,0.6208593540659881,0.7839219747326669,25.299087110135645,-32.243136135142265)" fill="#7dd5d9"></use><use xlink:href="#bbburst-shape-8" width="14.732546648479708" opacity="0.7119437663121218" transform="matrix(0.7598385303576367,0.6501118425193828,-0.6501118425193828,0.7598385303576367,708.8204218559255,208.94603719786755)" fill="none" stroke="#7dd5d9"></use><use xlink:href="#bbburst-shape-6" width="10.857651801004813" opacity="0.801519915892415" transform="matrix(0.9117314831424789,-0.4107866875238484,0.4107866875238484,0.9117314831424789,176.64662418166796,-33.537858062323096)" fill="#ffa6d5"></use><use xlink:href="#bbburst-shape-7" width="15.582489962318718" opacity="0.6790818325030566" transform="matrix(0.9722677043820099,0.23387071431826725,-0.23387071431826725,0.9722677043820099,578.1884315010892,-101.84048936835774)" fill="#7dd5d9"></use><use xlink:href="#bbburst-shape-10" width="13.931766346050228" opacity="0.729241615306619" transform="matrix(0.9927181454844031,0.1204602989619715,-0.1204602989619715,0.9927181454844031,350.2436112755713,-78.91823196070726)" fill="none" stroke="#7dd5d9"></use><use xlink:href="#bbburst-shape-10" width="32.08660134623405" opacity="0.18404892201357925" transform="matrix(0.8440112494331568,0.5363254709877964,-0.5363254709877964,0.8440112494331568,233.81402413095188,55.158596969876385)" fill="none" stroke="#ffbd9b"></use><use xlink:href="#bbburst-shape-4" width="9.8385879652645" opacity="0.8173715971935341" transform="matrix(0.9343678312422881,0.35630991557853553,-0.35630991557853553,0.9343678312422881,469.22078160386855,-20.58959693438362)" fill="#303841"></use><use xlink:href="#bbburst-shape-6" width="27.97490120555042" opacity="0.06260919285684208" transform="matrix(0.8503887965945344,0.5261548200164088,-0.5261548200164088,0.8503887965945344,815.595903277435,414.1971007345583)" fill="#7dd5d9"></use><use xlink:href="#bbburst-shape-7" width="9.584763585250881" opacity="0.8200883545883848" transform="matrix(0.9430844131851185,-0.3325534387241856,0.3325534387241856,0.9430844131851185,280.80253611164505,103.21538895041755)" fill="#7dd5d9"></use><use xlink:href="#bbburst-shape-7" width="37.698437537029356" opacity="-0.08964013243821767" transform="matrix(0.879561151379478,0.4757858562252633,-0.4757858562252633,0.879561151379478,230.89397175811015,389.8009917697705)" fill="#303841"></use><use xlink:href="#bbburst-shape-8" width="7.390361975910001" opacity="0.9482552905671685" transform="matrix(0.8864610813362132,-0.46280314527478283,0.46280314527478283,0.8864610813362132,233.94104161438872,53.699405249491974)" fill="none" stroke="#ffa6d5"></use><use xlink:href="#bbburst-shape-1" width="10.32562655391945" opacity="0.7775953939191766" transform="matrix(0.9965776274826472,0.08266215821679247,-0.08266215821679247,0.9965776274826472,515.9664444085707,-46.62608816382999)" fill="#303841"></use><use xlink:href="#bbburst-shape-1" width="8.034007487626205" opacity="0.9260910506416263" transform="matrix(0.9193094610849254,0.3935354047093399,-0.3935354047093399,0.9193094610849254,566.1217763836157,-0.15428520072669016)" fill="#7dd5d9"></use><use xlink:href="#bbburst-shape-10" width="27.320779589490044" opacity="0.1814805619305786" transform="matrix(0.998871472822805,0.04749506059371265,-0.04749506059371265,0.998871472822805,733.3454771344935,167.40546576396554)" fill="none" stroke="#7dd5d9"></use><use xlink:href="#bbburst-shape-6" width="22.507352494635594" opacity="0.488221223218263" transform="matrix(0.9996250089651618,-0.027383233034104146,0.027383233034104146,0.9996250089651618,532.6735991196015,-169.98692665764892)" fill="#7dd5d9"></use><use xlink:href="#bbburst-shape-4" width="7.155595208807518" opacity="0.8884550579776729" transform="matrix(0.9670703415339413,-0.2545092425147387,0.2545092425147387,0.9670703415339413,340.5567904990745,34.58741205220804)" fill="#303841"></use><use xlink:href="#bbburst-shape-6" width="28.765452123503422" opacity="0.2736018957365467" transform="matrix(0.7491070420931646,-0.6624489712320714,0.6624489712320714,0.7491070420931646,-192.12499232080654,27.671516362893726)" fill="#7dd5d9"></use><use xlink:href="#bbburst-shape-7" width="7.700475039689546" opacity="0.8921015133171756" transform="matrix(0.9020359293950161,-0.4316609573270087,0.4316609573270087,0.9020359293950161,212.83723926089348,-6.434794970029202)" fill="#7dd5d9"></use><use xlink:href="#bbburst-shape-4" width="11.482478395940255" opacity="0.749244316680102" transform="matrix(0.937336969634768,0.3484241744711611,-0.3484241744711611,0.937336969634768,432.4919809334409,-26.242118028563254)" fill="#303841"></use><use xlink:href="#bbburst-shape-6" width="23.200834197142957" opacity="0.5609426407211078" transform="matrix(0.9779728412998425,0.2087321769155707,-0.2087321769155707,0.9779728412998425,410.33787703412054,194.04825529900552)" fill="#7dd5d9"></use><use xlink:href="#bbburst-shape-10" width="10.80576049427341" opacity="0.7149015122383005" transform="matrix(0.9920815579359075,-0.1255953120282068,0.1255953120282068,0.9920815579359075,216.11253786725814,4.987674645200968)" fill="none" stroke="#ff794e"></use><use xlink:href="#bbburst-shape-10" width="10.19250943421401" opacity="0.805609235497686" transform="matrix(0.9986103561951689,0.052700630923717844,-0.052700630923717844,0.9986103561951689,330.42217338901486,-17.878224135369635)" fill="none" stroke="#ffa6d5"></use><use xlink:href="#bbburst-shape-7" width="11.755354171923887" opacity="0.7802428778215497" transform="matrix(0.9955654557502744,0.0940713735242995,-0.0940713735242995,0.9955654557502744,481.8377444047006,-84.04607162325101)" fill="#7dd5d9"></use><use xlink:href="#bbburst-shape-10" width="9.30653889342043" opacity="0.8788326263346232" transform="matrix(0.8181072797957037,0.5750656299460732,-0.5750656299460732,0.8181072797957037,590.8335575181001,28.59797584478264)" fill="none" stroke="#303841"></use><use xlink:href="#bbburst-shape-10" width="18.476846009130007" opacity="0.6511441464676503" transform="matrix(0.8142070174941015,-0.5805746572692955,0.5805746572692955,0.8142070174941015,82.28391410259741,215.9375695562863)" fill="none" stroke="#ff794e"></use><use xlink:href="#bbburst-shape-10" width="14.439299277700538" opacity="0.7247652137991913" transform="matrix(0.9648588266205765,-0.26276880464081775,0.26276880464081775,0.9648588266205765,279.9074511423867,139.5493498411734)" fill="none" stroke="#ffbd9b"></use><use xlink:href="#bbburst-shape-6" width="19.32608850891762" opacity="0.5688954231701014" transform="matrix(0.9528643864424464,-0.30339654093225926,0.30339654093225926,0.9528643864424464,83.08975525188112,75.73734163829147)" fill="#ff794e"></use><use xlink:href="#bbburst-shape-1" width="6.5357204106281905" opacity="0.9560754923139801" transform="matrix(0.7761805033946585,-0.6305107660857303,0.6305107660857303,0.7761805033946585,126.4694037894927,97.7134316243662)" fill="#ffa6d5"></use><use xlink:href="#bbburst-shape-10" width="22.80646917563464" opacity="0.4272315123609869" transform="matrix(0.8737301130847901,-0.4864110293659468,0.4864110293659468,0.8737301130847901,313.63546690639873,285.1187073887616)" fill="none" stroke="#ffbd9b"></use><use xlink:href="#bbburst-shape-7" width="23.028387277345146" opacity="0.5300743502670333" transform="matrix(0.9992843431812816,0.03782593650862622,-0.03782593650862622,0.9992843431812816,611.7418195531422,36.867404978894456)" fill="#ff794e"></use><use xlink:href="#bbburst-shape-8" width="34.74401114883224" opacity="0.30669284308678546" transform="matrix(0.8240370942630342,0.566535848184857,-0.566535848184857,0.8240370942630342,428.04249149540885,312.30931882991246)" fill="none" stroke="#7dd5d9"></use><use xlink:href="#bbburst-shape-8" width="8.56333205113488" opacity="0.9216242657765445" transform="matrix(0.9035138553362608,0.4285588795199633,-0.4285588795199633,0.9035138553362608,590.7150466275571,63.358771380387566)" fill="none" stroke="#7dd5d9"></use><use xlink:href="#bbburst-shape-6" width="22.032660777455664" opacity="0.6266755801843242" transform="matrix(0.9930499088292559,-0.11769400398578726,0.11769400398578726,0.9930499088292559,502.4579694213766,-45.625551387620476)" fill="#ffbd9b"></use><use xlink:href="#bbburst-shape-8" width="11.415647991830774" opacity="0.8575827339943953" transform="matrix(0.89114443075597,0.4537197411757815,-0.4537197411757815,0.89114443075597,640.3679107743671,44.893009877321276)" fill="none" stroke="#ffbd9b"></use><use xlink:href="#bbburst-shape-4" width="13.87827206596563" opacity="0.7489962920400803" transform="matrix(0.7188395730834227,-0.6951759979812613,0.6951759979812613,0.7188395730834227,187.73491856086196,205.31763383933463)" fill="#ffa6d5"></use><use xlink:href="#bbburst-shape-7" width="30.273204907434828" opacity="0.4043248122223775" transform="matrix(0.7597621716579266,0.6502010785269671,-0.6502010785269671,0.7597621716579266,872.4587455408607,-61.12469235192955)" fill="#ffa6d5"></use><use xlink:href="#bbburst-shape-8" width="21.38954112159521" opacity="0.6215780394457533" transform="matrix(0.9439964665257017,0.3299555594121575,-0.3299555594121575,0.9439964665257017,619.1761849032604,158.63434444143292)" fill="none" stroke="#303841"></use><use xlink:href="#bbburst-shape-10" width="11.364228589536872" opacity="0.7780803960199574" transform="matrix(0.7717817706136989,-0.6358874889069479,0.6358874889069479,0.7717817706136989,41.89154332676776,104.83837442176292)" fill="none" stroke="#ffa6d5"></use><use xlink:href="#bbburst-shape-7" width="19.799414088743124" opacity="0.6599481056187442" transform="matrix(0.9384059279982342,0.3455348235674269,-0.3455348235674269,0.9384059279982342,496.5139383717536,170.7519950466912)" fill="#7dd5d9"></use><use xlink:href="#bbburst-shape-8" width="21.059620601154137" opacity="0.5730942947629858" transform="matrix(0.9772309628396122,0.21217833364310418,-0.21217833364310418,0.9772309628396122,666.1840628373593,-7.043842606487317)" fill="none" stroke="#303841"></use><use xlink:href="#bbburst-shape-10" width="19.24518230460964" opacity="0.4103244013912881" transform="matrix(0.784086548734486,0.6206514997111039,-0.6206514997111039,0.784086548734486,904.0423570157327,113.13152730879438)" fill="none" stroke="#303841"></use><use xlink:href="#bbburst-shape-6" width="23.8237475494319" opacity="0.5547822716837518" transform="matrix(0.8998483747605903,0.4362028225960077,-0.4362028225960077,0.8998483747605903,734.9746656510415,-69.18113910853805)" fill="#ffa6d5"></use><use xlink:href="#bbburst-shape-1" width="13.919008037812068" opacity="0.6698522287122199" transform="matrix(0.8252063432803857,-0.5648313828124409,0.5648313828124409,0.8252063432803857,190.17358265392258,220.8157833907007)" fill="#303841"></use><use xlink:href="#bbburst-shape-6" width="13.486293472900593" opacity="0.7445244847212429" transform="matrix(0.791976673819851,-0.610551347656563,0.610551347656563,0.791976673819851,81.22882758214143,179.12327122515063)" fill="#ffa6d5"></use><use xlink:href="#bbburst-shape-10" width="30.480537131670804" opacity="0.031284322183596" transform="matrix(0.9054206573994598,0.42451552757741395,-0.42451552757741395,0.9054206573994598,917.6894437191513,274.70149417301695)" fill="none" stroke="#ffa6d5"></use><use xlink:href="#bbburst-shape-4" width="18.268703082163373" opacity="0.5338445817681389" transform="matrix(0.9536928207959973,-0.30078231923132354,0.30078231923132354,0.9536928207959973,67.88762699816093,-31.217590432675195)" fill="#7dd5d9"></use><use xlink:href="#bbburst-shape-10" width="29.682349283709364" opacity="0.5151165941060878" transform="matrix(0.7952652558036464,-0.6062616373411408,0.6062616373411408,0.7952652558036464,176.87884221921715,-125.06583825090698)" fill="none" stroke="#ffbd9b"></use><use xlink:href="#bbburst-shape-1" width="22.61438375913455" opacity="0.5744347796790813" transform="matrix(0.9230464502852856,-0.3846885111564078,0.3846885111564078,0.9230464502852856,72.95495999179482,136.09555606011992)" fill="#ff794e"></use><use xlink:href="#bbburst-shape-4" width="32.01969681353014" opacity="0.040680451403542595" transform="matrix(0.9077880823485482,0.4194291329246758,-0.4194291329246758,0.9077880823485482,910.2538438610281,-212.47763504143808)" fill="#ffa6d5"></use><use xlink:href="#bbburst-shape-8" width="10.01217216080931" opacity="0.9276258177405278" transform="matrix(0.9896307114780241,0.1436351450707656,-0.1436351450707656,0.9896307114780241,424.6753192212846,-13.497445561357267)" fill="none" stroke="#7dd5d9"></use><use xlink:href="#bbburst-shape-8" width="8.566658753224873" opacity="0.8995092669870308" transform="matrix(0.9691205233527764,-0.24658753256489022,0.24658753256489022,0.9691205233527764,281.56220231969075,55.83378904442844)" fill="none" stroke="#7dd5d9"></use><use xlink:href="#bbburst-shape-8" width="7.828095934002375" opacity="0.8376433214327053" transform="matrix(0.9381824760431656,-0.3461410718847373,0.3461410718847373,0.9381824760431656,251.9201083965422,-46.73588579900223)" fill="none" stroke="#ffa6d5"></use><use xlink:href="#bbburst-shape-4" width="14.33215303744407" opacity="0.7319937028563768" transform="matrix(0.9026699697212417,-0.43033350527637576,0.43033350527637576,0.9026699697212417,337.20911547089355,8.350859579682663)" fill="#ff794e"></use><use xlink:href="#bbburst-shape-6" width="21.992835518401854" opacity="0.5136633145012809" transform="matrix(0.8121979175131823,-0.583381987026725,0.583381987026725,0.8121979175131823,213.71475801986148,293.1020457537678)" fill="#303841"></use><use xlink:href="#bbburst-shape-6" width="8.630023311576402" opacity="0.9457956835937844" transform="matrix(0.9991142302108459,-0.042080339710948156,0.042080339710948156,0.9991142302108459,370.4212100663685,23.42286654313176)" fill="#303841"></use><use xlink:href="#bbburst-shape-10" width="25.555595052689796" opacity="0.16611534500070746" transform="matrix(0.8575025715830593,-0.5144796786350654,0.5144796786350654,0.8575025715830593,267.9249026498826,429.1429717519122)" fill="none" stroke="#7dd5d9"></use><use xlink:href="#bbburst-shape-6" width="27.680040153640377" opacity="0.3390837406950503" transform="matrix(0.7082070564727072,0.7060047911751476,-0.7060047911751476,0.7082070564727072,375.32345048841376,115.92848984424893)" fill="#ff794e"></use><use xlink:href="#bbburst-shape-4" width="31.071227378392212" opacity="0.29167518672488113" transform="matrix(0.8978225186052438,-0.44035749691056314,0.44035749691056314,0.8978225186052438,-91.65572973392536,150.93881394524647)" fill="#ff794e"></use><use xlink:href="#bbburst-shape-10" width="15.005691789500343" opacity="0.7745185281151594" transform="matrix(0.7571657274916095,-0.6532228265393837,0.6532228265393837,0.7571657274916095,40.58124549493516,143.85239765778942)" fill="none" stroke="#303841"></use><use xlink:href="#bbburst-shape-8" width="8.450638136112062" opacity="0.9127845713899845" transform="matrix(0.8124612863832602,0.5830151439958126,-0.5830151439958126,0.8124612863832602,590.6505603461412,75.67384610643836)" fill="none" stroke="#ffa6d5"></use><use xlink:href="#bbburst-shape-8" width="11.965162759395009" opacity="0.8216483521210776" transform="matrix(0.9796016421272952,0.20094930390898771,-0.20094930390898771,0.9796016421272952,531.9947777446444,-49.06017507822321)" fill="none" stroke="#7dd5d9"></use><use xlink:href="#bbburst-shape-6" width="14.157312064623277" opacity="0.7658503455133364" transform="matrix(0.9282962006976987,0.37184158424014097,-0.37184158424014097,0.9282962006976987,647.5026980385694,23.52978729171042)" fill="#ff794e"></use><use xlink:href="#bbburst-shape-4" width="10.22540635762137" opacity="0.748688818623898" transform="matrix(0.9575939807718192,-0.288121099521678,0.288121099521678,0.9575939807718192,362.26219523521127,-59.00855385225549)" fill="#ffa6d5"></use><use xlink:href="#bbburst-shape-1" width="26.0238893310888" opacity="0.44931879828868093" transform="matrix(0.9957687309411084,0.0918946923382113,-0.0918946923382113,0.9957687309411084,670.3097008239348,-24.76841676989943)" fill="#ffbd9b"></use><use xlink:href="#bbburst-shape-4" width="10.092569966790165" opacity="0.8611227303434839" transform="matrix(0.7815393112146378,0.6238559970266772,-0.6238559970266772,0.7815393112146378,605.8227087794274,132.45050389672758)" fill="#ffa6d5"></use><use xlink:href="#bbburst-shape-4" width="8.315113012579916" opacity="0.9755995290400796" transform="matrix(0.9600782373782126,-0.27973161800687535,0.27973161800687535,0.9600782373782126,288.37292158348066,27.261194388041304)" fill="#ffbd9b"></use><use xlink:href="#bbburst-shape-1" width="14.922107765360755" opacity="0.6487481015485278" transform="matrix(0.7319605629571228,-0.6813469999020264,0.6813469999020264,0.7319605629571228,-13.360187485536983,30.716283741150676)" fill="#7dd5d9"></use><use xlink:href="#bbburst-shape-10" width="34.05476399361939" opacity="0.0676421728236174" transform="matrix(0.9850369436690769,0.1723433190091333,-0.1723433190091333,0.9850369436690769,240.19801268048548,365.130165231837)" fill="none" stroke="#7dd5d9"></use><use xlink:href="#bbburst-shape-4" width="14.501389968097365" opacity="0.7524321255252033" transform="matrix(0.9219495389103993,-0.3873100149788309,0.3873100149788309,0.9219495389103993,334.0253742186962,91.19191241318742)" fill="#303841"></use><use xlink:href="#bbburst-shape-4" width="13.120849794737776" opacity="0.6833219580786325" transform="matrix(0.9052914728949709,0.42479094753025765,-0.42479094753025765,0.9052914728949709,706.2671347672328,27.370249920806657)" fill="#ffa6d5"></use><use xlink:href="#bbburst-shape-4" width="36.09347432523596" opacity="0.3453472243829059" transform="matrix(0.7428453562811734,-0.6694630509979596,0.6694630509979596,0.7428453562811734,305.56151025670295,-112.88537770098029)" fill="#ffa6d5"></use><use xlink:href="#bbburst-shape-4" width="10.691553849228844" opacity="0.8736364963083028" transform="matrix(0.9949212846461402,0.1006560348815421,-0.1006560348815421,0.9949212846461402,383.4801294569973,-22.68496784752108)" fill="#303841"></use></svg>