<svg xmlns="http://www.w3.org/2000/svg" version="1.1" xmlns:xlink="http://www.w3.org/1999/xlink" xmlns:svgjs="http://svgjs.dev/svgjs" viewBox="0 0 800 800"><defs><filter id="bbburst-blur-1" x="-100%" y="-100%" width="400%" height="400%"><feGaussianBlur in="SourceGraphic" stdDeviation="1"></feGaussianBlur></filter><filter id="bbburst-blur-2" x="-100%" y="-100%" width="400%" height="400%"><feGaussianBlur in="SourceGraphic" stdDeviation="2"></feGaussianBlur></filter><filter id="bbburst-blur-3" x="-100%" y="-100%" width="400%" height="400%"><feGaussianBlur in="SourceGraphic" stdDeviation="4"></feGaussianBlur></filter><filter id="bbburst-blur-4" x="-100%" y="-100%" width="400%" height="400%"><feGaussianBlur in="SourceGraphic" stdDeviation="12"></feGaussianBlur></filter><symbol id="bbburst-shape-1" viewBox="0 0 194 167"><path d="m97 0 96.129 166.5H.871L97 0Z"></path></symbol><symbol id="bbburst-shape-4" viewBox="0 0 149 143"><path d="M71.647 2.781c.898-2.764 4.808-2.764 5.706 0l15.445 47.534a3 3 0 0 0 2.853 2.073h49.98c2.906 0 4.115 3.719 1.764 5.427L106.96 87.193a2.999 2.999 0 0 0-1.09 3.354l15.445 47.534c.898 2.764-2.266 5.062-4.617 3.354l-40.435-29.378a3 3 0 0 0-3.526 0l-40.435 29.378c-2.351 1.708-5.515-.59-4.617-3.354L43.13 90.547a3 3 0 0 0-1.09-3.354L1.605 57.815c-2.35-1.708-1.142-5.427 1.764-5.427h49.98a3 3 0 0 0 2.853-2.073L71.647 2.781Z"></path></symbol><symbol id="bbburst-shape-6" viewBox="0 0 133 116"><path d="M59.7487 10.2513c-13.6683-13.66839-35.8291-13.66839-49.4974 0-13.66839 13.6683-13.66839 35.8291 0 49.4974l49.4974-49.4974ZM66.5 66.5 41.7513 91.2487 66.5 115.997l24.7487-24.7483L66.5 66.5Zm56.249-6.7513c13.668-13.6683 13.668-35.8291 0-49.4974-13.669-13.66839-35.8294-13.66839-49.4977 0l49.4977 49.4974Zm-112.4977 0 31.5 31.5 49.4974-49.4974-31.5-31.5-49.4974 49.4974Zm80.9974 31.5 31.5003-31.5-49.4977-49.4974-31.5 31.5 49.4974 49.4974Z"></path></symbol><symbol id="bbburst-shape-7" viewBox="0 0 139 124"><path fill-rule="evenodd" clip-rule="evenodd" d="M70.1641 15.0917C54.6093.764854 37.8293-2.10782 24.4032 2.82615 10.3804 7.97941.763366 21.4591 1.00047 37.0608c.1068 7.0273 2.86132 13.7317 7.0039 20.2001C12.1442 63.7249 17.853 70.2322 24.25 76.9024c3.8209 3.9842 7.8871 8.0312 12.0767 12.201h.0001c10.0335 9.9862 20.7748 20.6766 30.5497 32.8956 1.38 1.725 3.8972 2.005 5.6223.624.6706-.536 1.1228-1.244 1.3439-2.011 9.5768-11.748 20.0328-22.0735 29.8163-31.7351 4.19-4.1373 8.256-8.1528 12.078-12.1062 6.396-6.6176 12.106-13.0752 16.247-19.4911 4.144-6.4196 6.905-13.0811 7.012-20.0691.237-15.5124-9.399-28.8902-23.411-33.99923-13.32-4.85681-29.9542-2.08621-45.4209 11.88043Zm-3.7351 7.4919C52.1278 8.44857 37.6826 6.46918 27.1626 10.3352 16.2859 14.3323 8.8148 24.7824 8.99955 36.9392c.07575 4.9844 2.03755 10.2234 5.74165 16.0072 3.707 5.7881 8.9752 11.8418 15.2827 18.4187 3.5798 3.7328 7.4978 7.6329 11.6 11.7163 9.0476 9.0063 18.9911 18.9046 28.1786 29.8666 9.2999-11.068 19.4036-21.0473 28.5839-30.1144l.0007-.0006c4.1019-4.0508 8.0189-7.9196 11.5979-11.6222 6.307-6.5252 11.573-12.5298 15.278-18.2697 3.703-5.7362 5.658-10.924 5.734-15.8531.184-12.0276-7.267-22.3914-18.153-26.3608-10.71-3.90518-25.4722-1.80041-40.0023 12.867-1.5547 1.5694-4.0874 1.5813-5.6568.0265-.3146-.3116-.5666-.6625-.7559-1.0371Z"></path></symbol><symbol id="bbburst-shape-8" viewBox="0 0 87 168"><path d="m12 12 31.2546 18.0749c16.4102 9.4902 20.014 31.6325 7.4603 45.8369L36.3296 92.1884c-12.5684 14.2206-8.9394 36.3916 7.5068 45.8636L75 156" stroke-width="14" stroke-linecap="round" stroke-linejoin="round"></path></symbol><symbol id="bbburst-shape-10" viewBox="0 0 145 145"><circle cx="72.5" cy="72.5" r="61.5" fill="none" stroke-width="22"></circle></symbol></defs><use xlink:href="#bbburst-shape-8" width="31.987937948669522" opacity="0.38230388424479844" transform="matrix(0.868430855889141,-0.4958102949109206,0.4958102949109206,0.868430855889141,403.1475775804711,406.9022765389522)" fill="none" stroke="#ffbd9b" filter="url(#bbburst-blur-2)"></use><use xlink:href="#bbburst-shape-4" width="37.39302352952798" opacity="0.3922891059188941" transform="matrix(0.7483148912265198,0.6633436692760712,-0.6633436692760712,0.7483148912265198,835.825846374735,321.9537168996332)" fill="#ffa6d5" filter="url(#bbburst-blur-2)"></use><use xlink:href="#bbburst-shape-6" width="28.79352941804789" opacity="0.5696432781410392" transform="matrix(0.9994730056821087,0.03246091361578626,-0.03246091361578626,0.9994730056821087,86.31716042047591,-21.577660698026364)" fill="#ffbd9b" filter="url(#bbburst-blur-1)"></use><use xlink:href="#bbburst-shape-8" width="28.75373734346499" opacity="0.4908650413334208" transform="matrix(0.8632223706857434,0.5048238690352161,-0.5048238690352161,0.8632223706857434,312.3285379059246,-46.64819324516009)" fill="none" stroke="#303841" filter="url(#bbburst-blur-1)"></use><use xlink:href="#bbburst-shape-6" width="14.64864493899128" opacity="0.7145554859827954" transform="matrix(0.8581238161747152,0.5134428070522983,-0.5134428070522983,0.8581238161747152,482.8887080054502,422.36452486732026)" fill="#303841"></use><use xlink:href="#bbburst-shape-10" width="14.196453292107769" opacity="0.8337087017370379" transform="matrix(0.7462625298709303,0.6656517381564017,-0.6656517381564017,0.7462625298709303,306.2672013956671,336.7688677346779)" fill="none" stroke="#303841"></use><use xlink:href="#bbburst-shape-10" width="17.502035240274516" opacity="0.8106273820803761" transform="matrix(0.9363987325525208,0.3509379057241219,-0.3509379057241219,0.9363987325525208,150.7055031306083,233.90506756837482)" fill="none" stroke="#ffa6d5"></use><use xlink:href="#bbburst-shape-7" width="12.130523662086288" opacity="0.9321041320601515" transform="matrix(0.9832943053754721,0.1820228255361614,-0.1820228255361614,0.9832943053754721,111.29879413464523,354.2830072191762)" fill="#ffbd9b"></use><use xlink:href="#bbburst-shape-8" width="22.09588967017984" opacity="0.7271204329995693" transform="matrix(0.7293411708475614,-0.6841501710200095,0.6841501710200095,0.7293411708475614,-136.68385626413715,284.6761090645536)" fill="none" stroke="#303841"></use><use xlink:href="#bbburst-shape-4" width="22.252026592131475" opacity="0.5369098556869792" transform="matrix(0.9411264018090187,0.33805487101653997,-0.33805487101653997,0.9411264018090187,160.84169558507233,-41.87386944919598)" fill="#303841" filter="url(#bbburst-blur-1)"></use><use xlink:href="#bbburst-shape-7" width="12.089817652330328" opacity="0.872367013326099" transform="matrix(0.9921286251903336,0.12522296545737335,-0.12522296545737335,0.9921286251903336,159.2383679788834,347.41246609643537)" fill="#ffa6d5"></use><use xlink:href="#bbburst-shape-8" width="19.703749534484054" opacity="0.8357405830749358" transform="matrix(0.9684632009523793,0.24915663427063617,-0.24915663427063617,0.9684632009523793,213.1611527255192,301.3372958737346)" fill="none" stroke="#ffa6d5"></use><use xlink:href="#bbburst-shape-7" width="27.03688198316425" opacity="0.7201283045833202" transform="matrix(0.9999716434377856,-0.007530758284147296,0.007530758284147296,0.9999716434377856,175.63720736596332,196.72720850282866)" fill="#ffbd9b"></use><use xlink:href="#bbburst-shape-6" width="16.118187155488286" opacity="0.9099436646100526" transform="matrix(0.882598004254712,0.47012845360135275,-0.47012845360135275,0.882598004254712,258.9633761308869,398.2028321920493)" fill="#ffa6d5"></use><use xlink:href="#bbburst-shape-4" width="37.584596635829506" opacity="0.32784913985869646" transform="matrix(0.9991897187554063,-0.040248055027442185,0.040248055027442185,0.9991897187554063,16.91147823182257,-269.0383651776226)" fill="#303841" filter="url(#bbburst-blur-2)"></use><use xlink:href="#bbburst-shape-10" width="7.940168996319985" opacity="0.9562084926537123" transform="matrix(0.9646361811135848,0.26358497318056495,-0.26358497318056495,0.9646361811135848,132.87437874520447,382.4416362527458)" fill="none" stroke="#7dd5d9"></use><use xlink:href="#bbburst-shape-6" width="29.89376106330208" opacity="0.4718382140473264" transform="matrix(0.8822497359808452,-0.4707816939535021,0.4707816939535021,0.8822497359808452,325.73895026505915,422.91868468898303)" fill="#ffa6d5" filter="url(#bbburst-blur-1)"></use><use xlink:href="#bbburst-shape-7" width="39.311963837867964" opacity="0.5282053374587512" transform="matrix(0.9161884111955585,0.4007477949920101,-0.4007477949920101,0.9161884111955585,498.5155301293869,116.37752871557802)" fill="#303841" filter="url(#bbburst-blur-1)"></use><use xlink:href="#bbburst-shape-1" width="9.446715870386221" opacity="0.9469256151123826" transform="matrix(0.8348068053841067,0.5505430025750779,-0.5505430025750779,0.8348068053841067,230.42475384943637,412.33568869610554)" fill="#ffbd9b"></use><use xlink:href="#bbburst-shape-1" width="21.367731705010932" opacity="0.6223781376724651" transform="matrix(0.9903517457392418,0.13857640387611497,-0.13857640387611497,0.9903517457392418,170.66991944862883,46.36305276095794)" fill="#ffa6d5" filter="url(#bbburst-blur-1)"></use><use xlink:href="#bbburst-shape-8" width="17.579794343348233" opacity="0.8380376004952473" transform="matrix(0.9222282454076646,-0.38664591472340754,0.38664591472340754,0.9222282454076646,-14.442013769973272,369.4518244879702)" fill="none" stroke="#ffa6d5"></use><use xlink:href="#bbburst-shape-4" width="30.83178187677493" opacity="0.5964045299842551" transform="matrix(0.9997255726728257,-0.023426039869998205,0.023426039869998205,0.9997255726728257,186.28051588659537,56.48996767358608)" fill="#ffa6d5" filter="url(#bbburst-blur-1)"></use><use xlink:href="#bbburst-shape-4" width="48.300932919244445" opacity="0.4216304179277244" transform="matrix(0.9097492517435933,-0.41515816136982303,0.41515816136982303,0.9097492517435933,15.887126884997059,-95.06811236962704)" fill="#ff794e" filter="url(#bbburst-blur-2)"></use><use xlink:href="#bbburst-shape-7" width="11.773170146333761" opacity="0.8788094175467914" transform="matrix(0.9985155207596196,-0.054467924525775833,0.054467924525775833,0.9985155207596196,65.85539446552299,323.8857932465803)" fill="#ffbd9b"></use><use xlink:href="#bbburst-shape-1" width="23.93522215374423" opacity="0.4481392145917348" transform="matrix(0.9015910321618031,-0.43258942511972537,0.43258942511972537,0.9015910321618031,358.77436315622873,343.82115988919446)" fill="#303841" filter="url(#bbburst-blur-2)"></use><use xlink:href="#bbburst-shape-7" width="19.26090043796644" opacity="0.5774246570379333" transform="matrix(0.9716399504061413,0.23646523375488296,-0.23646523375488296,0.9716399504061413,502.6531754254896,343.6835059177056)" fill="#ff794e" filter="url(#bbburst-blur-1)"></use><use xlink:href="#bbburst-shape-4" width="10.17347493518012" opacity="0.8529303367097697" transform="matrix(0.7906549474952456,0.6122619978418475,-0.6122619978418475,0.7906549474952456,255.8521312043775,334.325598570892)" fill="#7dd5d9"></use><use xlink:href="#bbburst-shape-10" width="42.37047442497088" opacity="0.4490864946698131" transform="matrix(0.7087954519355402,-0.7054140679880813,0.7054140679880813,0.7087954519355402,148.2006597742647,207.17271778417285)" fill="none" stroke="#ff794e" filter="url(#bbburst-blur-2)"></use><use xlink:href="#bbburst-shape-7" width="15.316625925711492" opacity="0.659667875865029" transform="matrix(0.7746375394601878,0.6324054731412957,-0.6324054731412957,0.7746375394601878,269.53368409075574,145.67851110566772)" fill="#ffa6d5"></use><use xlink:href="#bbburst-shape-10" width="40.20729977750802" opacity="0.4618783854388715" transform="matrix(0.9961937880075041,0.08716614443268657,-0.08716614443268657,0.9961937880075041,296.1411973993304,-58.971772005772436)" fill="none" stroke="#ffa6d5" filter="url(#bbburst-blur-1)"></use><use xlink:href="#bbburst-shape-4" width="42.074636690905706" opacity="0.31556141764896395" transform="matrix(0.8634142769400821,-0.5044955761709267,0.5044955761709267,0.8634142769400821,414.28332802827356,207.96122798889115)" fill="#ffa6d5" filter="url(#bbburst-blur-2)"></use><use xlink:href="#bbburst-shape-6" width="50.26089812382805" opacity="0.31498345665335525" transform="matrix(0.799618810138579,0.600507917077338,-0.600507917077338,0.799618810138579,429.4006747370323,-187.198992224638)" fill="#303841" filter="url(#bbburst-blur-2)"></use><use xlink:href="#bbburst-shape-7" width="22.032672337978603" opacity="0.5627751731190285" transform="matrix(0.8315470360639916,0.5554543426900096,-0.5554543426900096,0.8315470360639916,363.3730459254279,50.67437275118431)" fill="#7dd5d9" filter="url(#bbburst-blur-1)"></use><use xlink:href="#bbburst-shape-7" width="10.40853257874324" opacity="0.8931837985161826" transform="matrix(0.8507882567902646,-0.5255086508401006,0.5255086508401006,0.8507882567902646,-109.48983050794841,443.78306934427627)" fill="#7dd5d9"></use><use xlink:href="#bbburst-shape-8" width="21.20196252800198" opacity="0.7617436105415095" transform="matrix(0.711806523025498,-0.7023755930969919,0.7023755930969919,0.711806523025498,-201.70858625132277,300.83581931944514)" fill="none" stroke="#ff794e"></use><use xlink:href="#bbburst-shape-4" width="16.04754045440697" opacity="0.800714259520895" transform="matrix(0.8176665570337288,0.5756921065192816,-0.5756921065192816,0.8176665570337288,391.28308031429583,360.46834178799986)" fill="#ff794e"></use><use xlink:href="#bbburst-shape-4" width="16.40209999837358" opacity="0.7094866361170475" transform="matrix(0.7308537077012951,-0.682534144156371,0.682534144156371,0.7308537077012951,-166.23361493075942,245.53127842028823)" fill="#303841"></use><use xlink:href="#bbburst-shape-6" width="29.53665175463841" opacity="0.518861066181062" transform="matrix(0.9939394679615878,-0.10992876797379168,0.10992876797379168,0.9939394679615878,412.17598898700163,304.9658022434366)" fill="#7dd5d9" filter="url(#bbburst-blur-1)"></use><use xlink:href="#bbburst-shape-10" width="37.03614196431672" opacity="0.3995827138619974" transform="matrix(0.785654118482891,-0.6186659891337745,0.6186659891337745,0.785654118482891,-159.51831664570224,-94.40916025626208)" fill="none" stroke="#ffa6d5" filter="url(#bbburst-blur-2)"></use><use xlink:href="#bbburst-shape-4" width="38.309891063761626" opacity="0.5322048529476708" transform="matrix(0.8763691005779974,0.48164011414344615,-0.48164011414344615,0.8763691005779974,468.3525967820224,75.18721501743715)" fill="#ff794e" filter="url(#bbburst-blur-1)"></use><use xlink:href="#bbburst-shape-4" width="38.1038525222892" opacity="0.11678967858651335" transform="matrix(0.9993132531206359,0.03705431334476396,-0.03705431334476396,0.9993132531206359,466.11120808731687,-347.95971934857516)" fill="#303841" filter="url(#bbburst-blur-3)"></use><use xlink:href="#bbburst-shape-10" width="31.305348832935223" opacity="0.6027997249806998" transform="matrix(0.8916880118298897,0.4526505159158206,-0.4526505159158206,0.8916880118298897,495.6612960164907,213.04139211479037)" fill="none" stroke="#7dd5d9" filter="url(#bbburst-blur-1)"></use><use xlink:href="#bbburst-shape-7" width="24.415108753347795" opacity="0.670705497025612" transform="matrix(0.940954491887118,-0.3385330769621419,0.3385330769621419,0.940954491887118,180.90271666479285,397.3676750678556)" fill="#303841"></use><use xlink:href="#bbburst-shape-10" width="36.37982888365802" opacity="0.19986286548194954" transform="matrix(0.8024467866306152,-0.5967236836478002,0.5967236836478002,0.8024467866306152,500.33296178334973,221.02990600549612)" fill="none" stroke="#ffbd9b" filter="url(#bbburst-blur-3)"></use><use xlink:href="#bbburst-shape-8" width="17.489481235460595" opacity="0.7315678818977754" transform="matrix(0.9265971584039616,-0.37605545606692586,0.37605545606692586,0.9265971584039616,-96.47777668645318,171.48697477781423)" fill="none" stroke="#ffa6d5"></use><use xlink:href="#bbburst-shape-4" width="31.207389348631466" opacity="0.2883624782500691" transform="matrix(0.9979264094638541,0.06436521804965838,-0.06436521804965838,0.9979264094638541,720.6958045247508,360.03958767563705)" fill="#303841" filter="url(#bbburst-blur-2)"></use><use xlink:href="#bbburst-shape-4" width="40.57312336639919" opacity="0.3509203250496351" transform="matrix(0.9697672387116412,-0.24403176580436967,0.24403176580436967,0.9697672387116412,369.88015899775166,-11.852186702933295)" fill="#ffa6d5" filter="url(#bbburst-blur-2)"></use><use xlink:href="#bbburst-shape-8" width="24.61603596672002" opacity="0.7349285006102051" transform="matrix(0.8439382784927008,-0.5364402875388617,0.5364402875388617,0.8439382784927008,-9.870506263454814,314.1143901013541)" fill="none" stroke="#303841"></use><use xlink:href="#bbburst-shape-8" width="13.714795654432892" opacity="0.7013264707133845" transform="matrix(0.977895100807281,0.20909608273977212,-0.20909608273977212,0.977895100807281,104.90778582489466,110.04760448586546)" fill="none" stroke="#7dd5d9"></use><use xlink:href="#bbburst-shape-6" width="17.21604622326884" opacity="0.7585523809865954" transform="matrix(0.9972689619937921,0.07385538195571373,-0.07385538195571373,0.9972689619937921,237.19879165986157,293.04778722492614)" fill="#ffbd9b"></use><use xlink:href="#bbburst-shape-4" width="45.53534688099712" opacity="-0.01833833098629123" transform="matrix(0.7634858106435161,0.6458246023077885,-0.6458246023077885,0.7634858106435161,939.9500659986944,-260.5870489916322)" fill="#ffa6d5" filter="url(#bbburst-blur-3)"></use><use xlink:href="#bbburst-shape-7" width="7.941275497358394" opacity="0.9407957872641536" transform="matrix(0.7787249256607295,-0.6273655155925383,0.6273655155925383,0.7787249256607295,-198.18503601556716,471.44911069620855)" fill="#7dd5d9"></use><use xlink:href="#bbburst-shape-4" width="16.113855018694107" opacity="0.7759507530288114" transform="matrix(0.9475449559043229,0.3196225219540618,-0.3196225219540618,0.9475449559043229,151.407656117478,196.5541370586272)" fill="#ff794e"></use><use xlink:href="#bbburst-shape-6" width="16.570349390635894" opacity="0.7545229892728014" transform="matrix(0.9769540349383038,0.21344979179602727,-0.21344979179602727,0.9769540349383038,321.63275951515243,383.9245988281822)" fill="#303841"></use><use xlink:href="#bbburst-shape-6" width="13.11174081719438" opacity="0.8979433917953138" transform="matrix(0.7236425874914703,-0.6901749094024281,0.6901749094024281,0.7236425874914703,-242.3441124151718,420.53934997573725)" fill="#7dd5d9"></use><use xlink:href="#bbburst-shape-4" width="28.584056591811173" opacity="0.5195670588663435" transform="matrix(0.9705941392100409,0.2407218663335754,-0.2407218663335754,0.9705941392100409,291.1287156276834,-24.379812858530386)" fill="#ffa6d5" filter="url(#bbburst-blur-1)"></use><use xlink:href="#bbburst-shape-8" width="47.88718210472196" opacity="0.41666649085926566" transform="matrix(0.9986444145098118,0.05205125712559806,-0.05205125712559806,0.9986444145098118,520.1866761664078,141.49980955331057)" fill="none" stroke="#7dd5d9" filter="url(#bbburst-blur-2)"></use><use xlink:href="#bbburst-shape-8" width="51.715947940894715" opacity="0.1271439710813681" transform="matrix(0.8742036554611962,0.48555943897558235,-0.48555943897558235,0.8742036554611962,916.6856589870049,-16.93781032941058)" fill="none" stroke="#303841" filter="url(#bbburst-blur-3)"></use><use xlink:href="#bbburst-shape-7" width="28.695751812719145" opacity="0.5674814257332095" transform="matrix(0.8787370503727625,-0.4773061871610058,0.4773061871610058,0.8787370503727625,205.14857330932261,314.0572096795548)" fill="#303841" filter="url(#bbburst-blur-1)"></use><use xlink:href="#bbburst-shape-4" width="15.658569609928568" opacity="0.8284104418965854" transform="matrix(0.8131954501837514,-0.5819906870392738,0.5819906870392738,0.8131954501837514,-68.89954747132097,457.9325198166744)" fill="#303841"></use><use xlink:href="#bbburst-shape-6" width="24.61192934096928" opacity="0.4569644436832846" transform="matrix(0.9024187862464285,0.4308599937677236,-0.4308599937677236,0.9024187862464285,195.71092669042474,-108.20969653954961)" fill="#ffa6d5" filter="url(#bbburst-blur-1)"></use><use xlink:href="#bbburst-shape-7" width="12.402606730328305" opacity="0.9224337761468894" transform="matrix(0.8762396097279231,0.4818756544419494,-0.4818756544419494,0.8762396097279231,202.3537320732337,370.4035418329096)" fill="#7dd5d9"></use><use xlink:href="#bbburst-shape-10" width="11.617678222465603" opacity="0.9203945174852082" transform="matrix(0.9301431619280227,-0.367197083755495,0.367197083755495,0.9301431619280227,-73.73744610088146,417.121808723563)" fill="none" stroke="#ffbd9b"></use><use xlink:href="#bbburst-shape-6" width="35.59045762165746" opacity="0.6113435733885132" transform="matrix(0.8706793605364266,0.4918510456793595,-0.4918510456793595,0.8706793605364266,450.49242663470056,162.68985790677397)" fill="#ffbd9b" filter="url(#bbburst-blur-1)"></use><use xlink:href="#bbburst-shape-8" width="28.50209096467352" opacity="0.6891694739864426" transform="matrix(0.9246490427443124,-0.38082036152499354,0.38082036152499354,0.9246490427443124,109.62668504387142,290.936999607013)" fill="none" stroke="#7dd5d9"></use><use xlink:href="#bbburst-shape-7" width="27.108180511957634" opacity="0.6248420102894787" transform="matrix(0.8030629245104114,0.5958942349752893,-0.5958942349752893,0.8030629245104114,569.4463250462843,316.5292162890543)" fill="#303841" filter="url(#bbburst-blur-1)"></use><use xlink:href="#bbburst-shape-8" width="14.830445502755667" opacity="0.8249076748195996" transform="matrix(0.9989914695879295,0.04490037517158215,-0.04490037517158215,0.9989914695879295,107.26558415064952,254.11196653457318)" fill="none" stroke="#303841"></use><use xlink:href="#bbburst-shape-4" width="12.752865156229676" opacity="0.7416672009088288" transform="matrix(0.7328022829307315,0.6804416316860015,-0.6804416316860015,0.7328022829307315,284.9182868360507,244.80411362288544)" fill="#ffa6d5"></use><use xlink:href="#bbburst-shape-4" width="12.120586977911858" opacity="0.8667368412814893" transform="matrix(0.9536145385785503,-0.3010304167548831,0.3010304167548831,0.9536145385785503,-46.4080585966381,313.64529475776845)" fill="#ff794e"></use><use xlink:href="#bbburst-shape-1" width="35.043458393973005" opacity="0.29481664231978566" transform="matrix(0.9829269813524583,-0.18399605791794585,0.18399605791794585,0.9829269813524583,596.4244479942031,252.01944855338013)" fill="#ffbd9b" filter="url(#bbburst-blur-2)"></use><use xlink:href="#bbburst-shape-10" width="71.16017008659671" opacity="0.21070805019450667" transform="matrix(0.9178574936087456,-0.39691009237139785,0.39691009237139785,0.9178574936087456,415.0164808187011,-58.2087658582804)" fill="none" stroke="#ffbd9b" filter="url(#bbburst-blur-3)"></use><use xlink:href="#bbburst-shape-10" width="35.664407702853204" opacity="0.23873554906855032" transform="matrix(0.8379824088788483,-0.5456972442752507,0.5456972442752507,0.8379824088788483,-133.53574853587457,-280.17134135862045)" fill="none" stroke="#303841" filter="url(#bbburst-blur-3)"></use><use xlink:href="#bbburst-shape-8" width="55.49723799061316" opacity="0.2836679282194292" transform="matrix(0.8563154885861293,-0.5164530801607234,0.5164530801607234,0.8563154885861293,232.83665381792505,-74.63511138652407)" fill="none" stroke="#ffa6d5" filter="url(#bbburst-blur-2)"></use><use xlink:href="#bbburst-shape-6" width="12.109891277254093" opacity="0.8623489213041169" transform="matrix(0.8154362008655873,-0.5788469593233582,0.5788469593233582,0.8154362008655873,-100.29933549799412,457.2382058812426)" fill="#7dd5d9"></use><use xlink:href="#bbburst-shape-1" width="24.303644733287953" opacity="0.7804784660873587" transform="matrix(0.9998958042678666,-0.01443539426258045,0.01443539426258045,0.9998958042678666,138.96007722447317,246.70035332976056)" fill="#ff794e"></use><use xlink:href="#bbburst-shape-6" width="35.24134230906098" opacity="0.2292090549494652" transform="matrix(0.7834461718042732,-0.6214596494425276,0.6214596494425276,0.7834461718042732,415.29233445992145,130.329380995802)" fill="#ffa6d5" filter="url(#bbburst-blur-3)"></use><use xlink:href="#bbburst-shape-6" width="17.886079786689262" opacity="0.6332934746839263" transform="matrix(0.9681232719596552,-0.25047421082844346,0.25047421082844346,0.9681232719596552,-40.708144035114174,54.670637909427796)" fill="#303841" filter="url(#bbburst-blur-1)"></use><use xlink:href="#bbburst-shape-8" width="11.825468508424247" opacity="0.8874588728377251" transform="matrix(0.9367276080303676,-0.3500591212262667,0.3500591212262667,0.9367276080303676,-130.7305399246425,315.81924968942525)" fill="none" stroke="#7dd5d9"></use><use xlink:href="#bbburst-shape-4" width="26.723880669745526" opacity="0.6825789157237461" transform="matrix(0.9997830959134555,-0.020826932700383584,0.020826932700383584,0.9997830959134555,282.3948229454067,309.3455740994339)" fill="#ff794e"></use><use xlink:href="#bbburst-shape-8" width="38.884234016652165" opacity="0.4256006267066521" transform="matrix(0.9757272328936163,-0.21898942209560424,0.21898942209560424,0.9757272328936163,272.5148349030759,-17.57977430672031)" fill="none" stroke="#303841" filter="url(#bbburst-blur-2)"></use><use xlink:href="#bbburst-shape-4" width="15.026031945967556" opacity="0.8620942023239321" transform="matrix(0.7126693377125813,-0.7015001176652151,0.7015001176652151,0.7126693377125813,-233.07952737229246,392.84177023906074)" fill="#ffa6d5"></use><use xlink:href="#bbburst-shape-10" width="57.98702915211433" opacity="0.13410376623607223" transform="matrix(0.9784939628236873,0.20627545835022754,-0.20627545835022754,0.9784939628236873,620.9293656927867,-251.99746471823508)" fill="none" stroke="#303841" filter="url(#bbburst-blur-3)"></use><use xlink:href="#bbburst-shape-10" width="21.648957475901824" opacity="0.7385242415176896" transform="matrix(0.7870669748997036,0.6168675522526934,-0.6168675522526934,0.7870669748997036,488.14449219328515,401.6126877831009)" fill="none" stroke="#ffbd9b"></use><use xlink:href="#bbburst-shape-8" width="25.382235571384633" opacity="0.22567489398656304" transform="matrix(0.9034597804575629,0.42867286489300005,-0.42867286489300005,0.9034597804575629,927.1852969623351,328.24221398366626)" fill="none" stroke="#ffa6d5" filter="url(#bbburst-blur-3)"></use><use xlink:href="#bbburst-shape-8" width="30.75621215117623" opacity="0.5288994600911867" transform="matrix(0.8678284301580375,0.49686398119549413,-0.49686398119549413,0.8678284301580375,597.6898141988565,217.29610829947234)" fill="none" stroke="#ffbd9b" filter="url(#bbburst-blur-1)"></use><use xlink:href="#bbburst-shape-8" width="17.33595527151106" opacity="0.7904701757367296" transform="matrix(0.8061046253821257,0.5917730417461942,-0.5917730417461942,0.8061046253821257,437.7986177613776,447.7946535326063)" fill="none" stroke="#ffa6d5"></use><use xlink:href="#bbburst-shape-4" width="10.676055399871705" opacity="0.9047814666290057" transform="matrix(0.7239229201723084,-0.6898808633736679,0.6898808633736679,0.7239229201723084,-221.28947226120943,439.00776237281895)" fill="#7dd5d9"></use><use xlink:href="#bbburst-shape-8" width="27.59524576627948" opacity="0.4840814522874314" transform="matrix(0.8912677577550906,-0.4534774349250613,0.4534774349250613,0.8912677577550906,290.7945815063654,272.41330237808927)" fill="none" stroke="#303841" filter="url(#bbburst-blur-1)"></use><use xlink:href="#bbburst-shape-1" width="9.87832555326666" opacity="0.9695646410153146" transform="matrix(0.9888013168679023,-0.14923791663080208,0.14923791663080208,0.9888013168679023,-55.24506476419797,376.2598062623944)" fill="#ffbd9b"></use><use xlink:href="#bbburst-shape-8" width="8.3736042464891" opacity="0.962988661561344" transform="matrix(0.7489386843495967,0.662639303908767,-0.662639303908767,0.7489386843495967,297.80466556892037,488.5873774184307)" fill="none" stroke="#303841"></use><use xlink:href="#bbburst-shape-10" width="24.817251743603375" opacity="0.6691262550462393" transform="matrix(0.8009732425248879,-0.598700145948844,0.598700145948844,0.8009732425248879,7.945003750976923,279.0945957621223)" fill="none" stroke="#303841"></use><use xlink:href="#bbburst-shape-8" width="19.863542033598005" opacity="0.657942699932982" transform="matrix(0.8267864458094516,-0.5625159313528594,0.5625159313528594,0.8267864458094516,-81.2387368429261,168.4320714570411)" fill="none" stroke="#303841"></use><use xlink:href="#bbburst-shape-6" width="49.629303491465734" opacity="0.24569870794894344" transform="matrix(0.8207784701302865,0.5712466218461046,-0.5712466218461046,0.8207784701302865,585.3414820341146,-195.69573867191738)" fill="#ffbd9b" filter="url(#bbburst-blur-3)"></use><use xlink:href="#bbburst-shape-4" width="47.06405564631851" opacity="0.20194505454628886" transform="matrix(0.8086595627543569,-0.5882769004184444,0.5882769004184444,0.8086595627543569,23.880375679232714,-257.58253313880687)" fill="#ffa6d5" filter="url(#bbburst-blur-3)"></use><use xlink:href="#bbburst-shape-4" width="45.7419720862264" opacity="0.3618052134303327" transform="matrix(0.8610673200619972,0.5084909736870952,-0.5084909736870952,0.8610673200619972,505.28878512535493,-107.25722822433985)" fill="#303841" filter="url(#bbburst-blur-2)"></use><use xlink:href="#bbburst-shape-8" width="18.098650781977568" opacity="0.8025346514467436" transform="matrix(0.8402842301678544,-0.5421461173255937,0.5421461173255937,0.8402842301678544,-154.72724904942487,284.0504758932234)" fill="none" stroke="#ffa6d5"></use><use xlink:href="#bbburst-shape-8" width="31.336648309925344" opacity="0.6683537677276734" transform="matrix(0.7528709174096933,-0.6581682016921562,0.6581682016921562,0.7528709174096933,-75.94304480558475,243.9466343757049)" fill="none" stroke="#ffbd9b"></use><use xlink:href="#bbburst-shape-6" width="21.285016945318866" opacity="0.6276446502088484" transform="matrix(0.9327857356300013,0.3604313685088984,-0.3604313685088984,0.9327857356300013,496.4894565162448,336.8661560378675)" fill="#7dd5d9" filter="url(#bbburst-blur-1)"></use><use xlink:href="#bbburst-shape-6" width="8.9237149557791" opacity="0.9847631609406463" transform="matrix(0.9999868234200127,0.005133515983456728,-0.005133515983456728,0.9999868234200127,9.612019367402755,390.61918062853465)" fill="#ffa6d5"></use><use xlink:href="#bbburst-shape-8" width="17.38739352491237" opacity="0.5436947295364574" transform="matrix(0.9220798783593,0.38699960972189407,-0.38699960972189407,0.9220798783593,602.3515342321632,401.8744325279368)" fill="none" stroke="#303841" filter="url(#bbburst-blur-1)"></use><use xlink:href="#bbburst-shape-10" width="20.759379421991746" opacity="0.7775678123662044" transform="matrix(0.9395850867229344,-0.34231544634716077,0.34231544634716077,0.9395850867229344,-23.548055962849062,242.47627198913722)" fill="none" stroke="#ffa6d5"></use><use xlink:href="#bbburst-shape-4" width="17.521441471166273" opacity="0.6793125088325798" transform="matrix(0.9860326312038804,-0.16655224465960314,0.16655224465960314,0.9860326312038804,7.5233855701139305,97.24254874937088)" fill="#ffbd9b"></use><use xlink:href="#bbburst-shape-6" width="19.53765229658301" opacity="0.7969866255424775" transform="matrix(0.8479130718038403,-0.5301352871335538,0.5301352871335538,0.8479130718038403,-27.81867276746462,401.58489001782897)" fill="#ff794e"></use><use xlink:href="#bbburst-shape-4" width="23.00615633319468" opacity="0.6183895021130037" transform="matrix(0.9119297291237609,0.41034640139797,-0.41034640139797,0.9119297291237609,534.5003180446157,406.6112238031081)" fill="#7dd5d9" filter="url(#bbburst-blur-1)"></use><use xlink:href="#bbburst-shape-10" width="52.8112217842632" opacity="0.05510044249580526" transform="matrix(0.7144663382545364,0.6996698160569415,-0.6996698160569415,0.7144663382545364,988.2183835337433,-107.57883698486665)" fill="none" stroke="#ffbd9b" filter="url(#bbburst-blur-3)"></use><use xlink:href="#bbburst-shape-1" width="49.15931270626925" opacity="0.32829828619021617" transform="matrix(0.8232509958813055,-0.5676775473633239,0.5676775473633239,0.8232509958813055,318.69122519696054,122.94442879869115)" fill="#303841" filter="url(#bbburst-blur-2)"></use><use xlink:href="#bbburst-shape-4" width="21.815533147740354" opacity="0.6027413510770925" transform="matrix(0.7404525238246874,0.6721086667806411,-0.6721086667806411,0.7404525238246874,286.52647932120175,100.08070357459047)" fill="#ff794e" filter="url(#bbburst-blur-1)"></use></svg>