<svg xmlns="http://www.w3.org/2000/svg" version="1.1" xmlns:xlink="http://www.w3.org/1999/xlink" xmlns:svgjs="http://svgjs.dev/svgjs" viewBox="0 0 800 800"><defs><filter id="bbburst-blur-1" x="-100%" y="-100%" width="400%" height="400%"><feGaussianBlur in="SourceGraphic" stdDeviation="1"></feGaussianBlur></filter><filter id="bbburst-blur-2" x="-100%" y="-100%" width="400%" height="400%"><feGaussianBlur in="SourceGraphic" stdDeviation="2"></feGaussianBlur></filter><filter id="bbburst-blur-3" x="-100%" y="-100%" width="400%" height="400%"><feGaussianBlur in="SourceGraphic" stdDeviation="4"></feGaussianBlur></filter><filter id="bbburst-blur-4" x="-100%" y="-100%" width="400%" height="400%"><feGaussianBlur in="SourceGraphic" stdDeviation="12"></feGaussianBlur></filter><symbol id="bbburst-shape-1" viewBox="0 0 194 167"><path d="m97 0 96.129 166.5H.871L97 0Z"></path></symbol><symbol id="bbburst-shape-4" viewBox="0 0 149 143"><path d="M71.647 2.781c.898-2.764 4.808-2.764 5.706 0l15.445 47.534a3 3 0 0 0 2.853 2.073h49.98c2.906 0 4.115 3.719 1.764 5.427L106.96 87.193a2.999 2.999 0 0 0-1.09 3.354l15.445 47.534c.898 2.764-2.266 5.062-4.617 3.354l-40.435-29.378a3 3 0 0 0-3.526 0l-40.435 29.378c-2.351 1.708-5.515-.59-4.617-3.354L43.13 90.547a3 3 0 0 0-1.09-3.354L1.605 57.815c-2.35-1.708-1.142-5.427 1.764-5.427h49.98a3 3 0 0 0 2.853-2.073L71.647 2.781Z"></path></symbol><symbol id="bbburst-shape-6" viewBox="0 0 133 116"><path d="M59.7487 10.2513c-13.6683-13.66839-35.8291-13.66839-49.4974 0-13.66839 13.6683-13.66839 35.8291 0 49.4974l49.4974-49.4974ZM66.5 66.5 41.7513 91.2487 66.5 115.997l24.7487-24.7483L66.5 66.5Zm56.249-6.7513c13.668-13.6683 13.668-35.8291 0-49.4974-13.669-13.66839-35.8294-13.66839-49.4977 0l49.4977 49.4974Zm-112.4977 0 31.5 31.5 49.4974-49.4974-31.5-31.5-49.4974 49.4974Zm80.9974 31.5 31.5003-31.5-49.4977-49.4974-31.5 31.5 49.4974 49.4974Z"></path></symbol><symbol id="bbburst-shape-7" viewBox="0 0 139 124"><path fill-rule="evenodd" clip-rule="evenodd" d="M70.1641 15.0917C54.6093.764854 37.8293-2.10782 24.4032 2.82615 10.3804 7.97941.763366 21.4591 1.00047 37.0608c.1068 7.0273 2.86132 13.7317 7.0039 20.2001C12.1442 63.7249 17.853 70.2322 24.25 76.9024c3.8209 3.9842 7.8871 8.0312 12.0767 12.201h.0001c10.0335 9.9862 20.7748 20.6766 30.5497 32.8956 1.38 1.725 3.8972 2.005 5.6223.624.6706-.536 1.1228-1.244 1.3439-2.011 9.5768-11.748 20.0328-22.0735 29.8163-31.7351 4.19-4.1373 8.256-8.1528 12.078-12.1062 6.396-6.6176 12.106-13.0752 16.247-19.4911 4.144-6.4196 6.905-13.0811 7.012-20.0691.237-15.5124-9.399-28.8902-23.411-33.99923-13.32-4.85681-29.9542-2.08621-45.4209 11.88043Zm-3.7351 7.4919C52.1278 8.44857 37.6826 6.46918 27.1626 10.3352 16.2859 14.3323 8.8148 24.7824 8.99955 36.9392c.07575 4.9844 2.03755 10.2234 5.74165 16.0072 3.707 5.7881 8.9752 11.8418 15.2827 18.4187 3.5798 3.7328 7.4978 7.6329 11.6 11.7163 9.0476 9.0063 18.9911 18.9046 28.1786 29.8666 9.2999-11.068 19.4036-21.0473 28.5839-30.1144l.0007-.0006c4.1019-4.0508 8.0189-7.9196 11.5979-11.6222 6.307-6.5252 11.573-12.5298 15.278-18.2697 3.703-5.7362 5.658-10.924 5.734-15.8531.184-12.0276-7.267-22.3914-18.153-26.3608-10.71-3.90518-25.4722-1.80041-40.0023 12.867-1.5547 1.5694-4.0874 1.5813-5.6568.0265-.3146-.3116-.5666-.6625-.7559-1.0371Z"></path></symbol><symbol id="bbburst-shape-8" viewBox="0 0 87 168"><path d="m12 12 31.2546 18.0749c16.4102 9.4902 20.014 31.6325 7.4603 45.8369L36.3296 92.1884c-12.5684 14.2206-8.9394 36.3916 7.5068 45.8636L75 156" stroke-width="14" stroke-linecap="round" stroke-linejoin="round"></path></symbol><symbol id="bbburst-shape-10" viewBox="0 0 145 145"><circle cx="72.5" cy="72.5" r="61.5" fill="none" stroke-width="22"></circle></symbol></defs><use xlink:href="#bbburst-shape-8" width="21.205787914731072" opacity="0.6712548567338104" transform="matrix(0.9809941359557453,-0.1940373809873778,0.1940373809873778,0.9809941359557453,384.65795847269646,-359.8239537553567)" fill="none" stroke="#303841"></use><use xlink:href="#bbburst-shape-8" width="14.081883441607046" opacity="0.8495064866997168" transform="matrix(0.9041666533598426,-0.4271798953041473,0.4271798953041473,0.9041666533598426,549.9832197658764,-226.9335637057291)" fill="none" stroke="#ffa6d5"></use><use xlink:href="#bbburst-shape-10" width="13.689144346441992" opacity="0.9394942301869691" transform="matrix(0.9463363059840146,0.32318353296003416,-0.32318353296003416,0.9463363059840146,877.3985648374619,-340.7464776982101)" fill="none" stroke="#303841"></use><use xlink:href="#bbburst-shape-10" width="35.53940206099788" opacity="0.6364645387175529" transform="matrix(0.8825286403945602,-0.470258651045708,0.470258651045708,0.8825286403945602,477.9283052959949,-0.901609226534049)" fill="none" stroke="#303841" filter="url(#bbburst-blur-1)"></use><use xlink:href="#bbburst-shape-10" width="34.47818235303061" opacity="0.5872784342447421" transform="matrix(0.7825684491183669,-0.6225645528332576,0.6225645528332576,0.7825684491183669,176.89048267125708,-101.51686758086265)" fill="none" stroke="#ffa6d5" filter="url(#bbburst-blur-1)"></use><use xlink:href="#bbburst-shape-1" width="18.877467379219162" opacity="0.8599096180622903" transform="matrix(0.9205222311478289,-0.3906901866730503,0.3906901866730503,0.9205222311478289,526.2008044713676,-276.30429231924563)" fill="#303841"></use><use xlink:href="#bbburst-shape-10" width="37.827604140757494" opacity="0.5992591454985681" transform="matrix(0.903244572293886,-0.42912613835751706,0.42912613835751706,0.903244572293886,212.50147013097225,-313.4287152233857)" fill="none" stroke="#ffa6d5" filter="url(#bbburst-blur-1)"></use><use xlink:href="#bbburst-shape-10" width="13.622261919081517" opacity="0.8788343455111772" transform="matrix(0.8446294357026571,0.5353513952018906,-0.5353513952018906,0.8446294357026571,984.2459104301741,-222.76189844366775)" fill="none" stroke="#7dd5d9"></use><use xlink:href="#bbburst-shape-4" width="10.137710355906343" opacity="0.9419734732133002" transform="matrix(0.9999901080257864,-0.004447904065525773,0.004447904065525773,0.9999901080257864,736.5332400140503,-387.26047432392556)" fill="#7dd5d9"></use><use xlink:href="#bbburst-shape-7" width="29.877420496541415" opacity="0.5659663987415663" transform="matrix(0.9859164625865009,0.16723853862349033,-0.16723853862349033,0.9859164625865009,551.1429309707776,-84.11115944663362)" fill="#303841" filter="url(#bbburst-blur-1)"></use><use xlink:href="#bbburst-shape-6" width="40.796125074204916" opacity="0.49005442702070834" transform="matrix(0.9993955885183555,-0.03476287747079833,0.03476287747079833,0.9993955885183555,467.7818919428019,14.815861539017817)" fill="#7dd5d9" filter="url(#bbburst-blur-1)"></use><use xlink:href="#bbburst-shape-7" width="46.17912038228447" opacity="0.367870891735943" transform="matrix(0.9123464818285401,0.4094189750061487,-0.4094189750061487,0.9123464818285401,593.2922734945755,152.4052397805159)" fill="#303841" filter="url(#bbburst-blur-2)"></use><use xlink:href="#bbburst-shape-6" width="43.14813928213037" opacity="0.3933466331576355" transform="matrix(0.9749379805767961,-0.22247681683456053,0.22247681683456053,0.9749379805767961,170.70876632914022,-71.50343300798414)" fill="#ff794e" filter="url(#bbburst-blur-2)"></use><use xlink:href="#bbburst-shape-8" width="78.29904640752959" opacity="0.18409751437808441" transform="matrix(0.9580765125901033,0.28651247097322957,-0.28651247097322957,0.9580765125901033,304.1038769563113,186.39336895087172)" fill="none" stroke="#ff794e" filter="url(#bbburst-blur-3)"></use><use xlink:href="#bbburst-shape-6" width="17.27021617485593" opacity="0.7078212350529366" transform="matrix(0.9771219676603032,-0.21267971298564722,0.21267971298564722,0.9771219676603032,421.7266880854547,-323.6060880705831)" fill="#ffbd9b"></use><use xlink:href="#bbburst-shape-4" width="42.30580635856841" opacity="0.5464832862778306" transform="matrix(0.8315296543819888,-0.5554803631843075,0.5554803631843075,0.8315296543819888,124.48012365402025,-195.16821244395624)" fill="#ff794e" filter="url(#bbburst-blur-1)"></use><use xlink:href="#bbburst-shape-6" width="13.940129237402076" opacity="0.8117546277425169" transform="matrix(0.9965119116147627,0.08345064415504175,-0.08345064415504175,0.9965119116147627,749.7051604023108,-227.28823128459698)" fill="#ff794e"></use><use xlink:href="#bbburst-shape-1" width="37.23046259886493" opacity="0.5000778952030747" transform="matrix(0.8785366637410768,0.47767492132484635,-0.47767492132484635,0.8785366637410768,529.9281096035744,-131.99628160340998)" fill="#ffa6d5" filter="url(#bbburst-blur-1)"></use><use xlink:href="#bbburst-shape-6" width="64.22993718624915" opacity="0.2651847531576744" transform="matrix(0.9773250565648042,-0.21174450125234,0.21174450125234,0.9773250565648042,78.02197710242223,31.618826515394005)" fill="#ff794e" filter="url(#bbburst-blur-2)"></use><use xlink:href="#bbburst-shape-10" width="45.363853673569004" opacity="0.31097571063463725" transform="matrix(0.7975336603213605,-0.6032744488658646,0.6032744488658646,0.7975336603213605,-99.4549405648911,-50.21564829104457)" fill="none" stroke="#ffa6d5" filter="url(#bbburst-blur-2)"></use><use xlink:href="#bbburst-shape-8" width="32.5054179799433" opacity="0.6701773078343136" transform="matrix(0.9327716099678683,0.3604679231747965,-0.3604679231747965,0.9327716099678683,713.9717515084458,-128.89882614499825)" fill="none" stroke="#7dd5d9"></use><use xlink:href="#bbburst-shape-8" width="44.962689315689154" opacity="0.37935428653558434" transform="matrix(0.9999983582782211,-0.0018120267278380379,0.0018120267278380379,0.9999983582782211,159.75942302928033,-333.1037164449798)" fill="none" stroke="#ffa6d5" filter="url(#bbburst-blur-2)"></use><use xlink:href="#bbburst-shape-8" width="16.228488265808316" opacity="0.7148977232235937" transform="matrix(0.781194595864339,0.624287596699111,-0.624287596699111,0.781194595864339,779.0524272956537,-210.69668627950733)" fill="none" stroke="#303841"></use><use xlink:href="#bbburst-shape-7" width="44.301139915106155" opacity="0.2035048535311813" transform="matrix(0.8045458751599802,0.593890507385883,-0.593890507385883,0.8045458751599802,272.72783729782986,-58.379917676419836)" fill="#ffa6d5" filter="url(#bbburst-blur-3)"></use><use xlink:href="#bbburst-shape-4" width="8.458919284143608" opacity="0.9772337108669297" transform="matrix(0.8571872114586104,-0.5150049363955762,0.5150049363955762,0.8571872114586104,571.349981425187,-328.1883304243625)" fill="#303841"></use><use xlink:href="#bbburst-shape-8" width="13.219757479354305" opacity="0.8817260538066798" transform="matrix(0.9999016460216767,-0.014024916511036111,0.014024916511036111,0.9999016460216767,720.2707541830259,-302.75400486222605)" fill="none" stroke="#ffa6d5"></use><use xlink:href="#bbburst-shape-6" width="50.58414687522553" opacity="0.4231361961007485" transform="matrix(0.9999820537320232,-0.005991011090375266,0.005991011090375266,0.9999820537320232,220.82013575096101,-230.64083215051315)" fill="#7dd5d9" filter="url(#bbburst-blur-2)"></use><use xlink:href="#bbburst-shape-6" width="27.9482822005764" opacity="0.7209718708404826" transform="matrix(0.9791487040442034,-0.20314481378700514,0.20314481378700514,0.9791487040442034,627.1727914066796,-120.88314391145764)" fill="#ffa6d5"></use><use xlink:href="#bbburst-shape-6" width="23.095193070987452" opacity="0.6780772650443465" transform="matrix(0.9224256025275499,0.386174840974508,-0.386174840974508,0.9224256025275499,668.3129950789923,-206.9024595730547)" fill="#303841"></use><use xlink:href="#bbburst-shape-8" width="45.551834582528144" opacity="0.4515192923972665" transform="matrix(0.9958090649607036,-0.09145658063851421,0.09145658063851421,0.9958090649607036,512.2276253594677,102.37205291663122)" fill="none" stroke="#ff794e" filter="url(#bbburst-blur-1)"></use><use xlink:href="#bbburst-shape-7" width="35.656335860953774" opacity="0.59880431326272" transform="matrix(0.9950664399064368,-0.09921078657046034,0.09921078657046034,0.9950664399064368,533.3003570849777,-53.88921232072687)" fill="#303841" filter="url(#bbburst-blur-1)"></use><use xlink:href="#bbburst-shape-4" width="11.951897548261114" opacity="0.959563649325484" transform="matrix(0.9335722102764897,0.35838935279869816,-0.35838935279869816,0.9335722102764897,924.9852856500793,-337.1993460975495)" fill="#7dd5d9"></use><use xlink:href="#bbburst-shape-8" width="38.65594389274918" opacity="0.31564557312025343" transform="matrix(0.9938242598197204,-0.11096549280647942,0.11096549280647942,0.9938242598197204,602.3991594723492,275.7211090049837)" fill="none" stroke="#7dd5d9" filter="url(#bbburst-blur-2)"></use><use xlink:href="#bbburst-shape-8" width="10.691676426968007" opacity="0.9324795217872257" transform="matrix(0.8611426844562148,-0.5083633316905775,0.5083633316905775,0.8611426844562148,570.1782097063519,-277.8599500008087)" fill="none" stroke="#7dd5d9"></use><use xlink:href="#bbburst-shape-8" width="23.458540980362887" opacity="0.6828114457435228" transform="matrix(0.9195910079113339,0.39287705222959657,-0.39287705222959657,0.9195910079113339,910.0324404987571,-57.34371308334386)" fill="none" stroke="#ff794e"></use><use xlink:href="#bbburst-shape-10" width="52.676045499751936" opacity="0.4748232083291629" transform="matrix(0.9358080264182137,-0.3525100533194023,0.3525100533194023,0.9358080264182137,235.5826563890395,-23.283984747168688)" fill="none" stroke="#ffa6d5" filter="url(#bbburst-blur-1)"></use><use xlink:href="#bbburst-shape-8" width="37.02192574424973" opacity="0.49747971939839053" transform="matrix(0.9036767191152386,0.42821535158039137,-0.42821535158039137,0.9036767191152386,454.45858179074486,-320.1328683159488)" fill="none" stroke="#7dd5d9" filter="url(#bbburst-blur-1)"></use><use xlink:href="#bbburst-shape-4" width="22.2582689419518" opacity="0.7998233999972423" transform="matrix(0.8859055010722522,-0.46386575985938194,0.46386575985938194,0.8859055010722522,575.9352028394896,-151.06877839554505)" fill="#ffa6d5"></use><use xlink:href="#bbburst-shape-6" width="27.084715955326942" opacity="0.6921860059738525" transform="matrix(0.9200708509546134,-0.3917519996421889,0.3917519996421889,0.9200708509546134,487.56608378001926,-90.28526894213189)" fill="#ff794e"></use><use xlink:href="#bbburst-shape-8" width="36.7402423257247" opacity="0.5474484596327307" transform="matrix(0.971765744454637,-0.23594774401236623,0.23594774401236623,0.971765744454637,536.8943596081112,42.28908576459469)" fill="none" stroke="#ffa6d5" filter="url(#bbburst-blur-1)"></use><use xlink:href="#bbburst-shape-1" width="19.399691433297495" opacity="0.7297104905175855" transform="matrix(0.9549506725819592,-0.29676457493316777,0.29676457493316777,0.9549506725819592,471.3814518270317,-197.9892278945251)" fill="#7dd5d9"></use><use xlink:href="#bbburst-shape-6" width="17.40889829140869" opacity="0.751257039569964" transform="matrix(0.7970153978998377,0.6039589849572266,-0.6039589849572266,0.7970153978998377,822.5920867429031,-194.03912113916573)" fill="#ff794e"></use><use xlink:href="#bbburst-shape-6" width="23.6408171937497" opacity="0.7521148115564942" transform="matrix(0.7551741460833973,-0.65552422463797,0.65552422463797,0.7551741460833973,383.3938425330944,-93.60842089703536)" fill="#7dd5d9"></use><use xlink:href="#bbburst-shape-10" width="15.529854845889842" opacity="0.7324156797548791" transform="matrix(0.9994270162762606,-0.03384729142976051,0.03384729142976051,0.9994270162762606,511.82860592539527,-379.9963409590234)" fill="none" stroke="#7dd5d9"></use><use xlink:href="#bbburst-shape-8" width="34.380545588228856" opacity="0.3926624656119231" transform="matrix(0.9196714210681787,0.39268877915015205,-0.39268877915015205,0.9196714210681787,900.1972831346662,231.32838789011691)" fill="none" stroke="#303841" filter="url(#bbburst-blur-2)"></use><use xlink:href="#bbburst-shape-1" width="12.5819968566372" opacity="0.8534932111803367" transform="matrix(0.7730068141438177,-0.6343977185387928,0.6343977185387928,0.7730068141438177,408.0078025500694,-244.58644447472875)" fill="#ff794e"></use><use xlink:href="#bbburst-shape-6" width="28.491038179930854" opacity="0.6395663482443195" transform="matrix(0.8114504398339758,-0.5844212382291109,0.5844212382291109,0.8114504398339758,211.90450079268498,-204.7971356439528)" fill="#ffa6d5" filter="url(#bbburst-blur-1)"></use><use xlink:href="#bbburst-shape-4" width="13.757205388421852" opacity="0.9059690209379185" transform="matrix(0.8971902728961405,-0.44164421678603344,0.44164421678603344,0.8971902728961405,546.729365602752,-293.5450503863243)" fill="#ff794e"></use><use xlink:href="#bbburst-shape-6" width="13.330792472881264" opacity="0.8453443393226341" transform="matrix(0.9600010721834176,0.27999632391638424,-0.27999632391638424,0.9600010721834176,752.3642232591029,-364.95578943296056)" fill="#7dd5d9"></use><use xlink:href="#bbburst-shape-8" width="23.932478294969243" opacity="0.7498575098770794" transform="matrix(0.892885075866268,-0.45028462253922114,0.45028462253922114,0.892885075866268,585.0755352837343,-102.78952325298988)" fill="none" stroke="#ff794e"></use><use xlink:href="#bbburst-shape-8" width="19.284254302851842" opacity="0.8141173820851071" transform="matrix(0.914671297505609,-0.40419848777476347,0.40419848777476347,0.914671297505609,456.3160961960804,-294.4489092233302)" fill="none" stroke="#ffbd9b"></use><use xlink:href="#bbburst-shape-6" width="36.77606029667343" opacity="0.608209905710119" transform="matrix(0.9777572970623912,0.2097395242705745,-0.2097395242705745,0.9777572970623912,820.7889786252406,-5.77677838259433)" fill="#ffbd9b" filter="url(#bbburst-blur-1)"></use><use xlink:href="#bbburst-shape-8" width="57.70042534021745" opacity="0.09868968218014673" transform="matrix(0.953070469065666,0.302748544166527,-0.302748544166527,0.953070469065666,373.87080664534784,346.4059734997072)" fill="none" stroke="#ff794e" filter="url(#bbburst-blur-3)"></use><use xlink:href="#bbburst-shape-10" width="17.859244108546385" opacity="0.8435560340173403" transform="matrix(0.9067688131869591,-0.42162817675235315,0.42162817675235315,0.9067688131869591,599.4924736487899,-204.3132558522529)" fill="none" stroke="#ffbd9b"></use><use xlink:href="#bbburst-shape-8" width="35.777442347509385" opacity="0.443422307080825" transform="matrix(0.8915834010520488,-0.45285653243434776,0.45285653243434776,0.8915834010520488,472.47419009459134,192.54596058126413)" fill="none" stroke="#ffa6d5" filter="url(#bbburst-blur-2)"></use><use xlink:href="#bbburst-shape-7" width="25.305865222630473" opacity="0.8103067736533027" transform="matrix(0.996084269897075,0.08840886416876476,-0.08840886416876476,0.996084269897075,699.7978893894127,-255.04936584074088)" fill="#ff794e"></use><use xlink:href="#bbburst-shape-8" width="17.86406570334888" opacity="0.8018200515214151" transform="matrix(0.7910557540708065,0.6117440591877192,-0.6117440591877192,0.7910557540708065,877.9219285330255,-204.5492095822924)" fill="none" stroke="#ffbd9b"></use><use xlink:href="#bbburst-shape-6" width="70.2202564399909" opacity="0.001641346027379642" transform="matrix(0.9916150655422014,0.1292267843356622,-0.1292267843356622,0.9916150655422014,103.95422759540423,297.7196947558144)" fill="#ffbd9b" filter="url(#bbburst-blur-3)"></use><use xlink:href="#bbburst-shape-8" width="61.326353927426396" opacity="0.2590993539544677" transform="matrix(0.9581632089956357,0.2862224046562143,-0.2862224046562143,0.9581632089956357,149.6930838048429,-302.0543531706293)" fill="none" stroke="#7dd5d9" filter="url(#bbburst-blur-2)"></use><use xlink:href="#bbburst-shape-6" width="33.40639335892721" opacity="0.24466775805933771" transform="matrix(0.8833999780994071,-0.46861975918004894,0.46861975918004894,0.8833999780994071,519.3537325743895,405.7157577704653)" fill="#ff794e" filter="url(#bbburst-blur-3)"></use><use xlink:href="#bbburst-shape-6" width="13.22044617722027" opacity="0.8815224951978475" transform="matrix(0.9999846142991587,-0.005547176305359929,0.005547176305359929,0.9999846142991587,674.4980224057097,-379.35766329846786)" fill="#7dd5d9"></use><use xlink:href="#bbburst-shape-10" width="10.97502702853928" opacity="0.9081080259951831" transform="matrix(0.8068517962655047,0.5907539071924353,-0.5907539071924353,0.8068517962655047,1008.6358288757751,-237.0773453982402)" fill="none" stroke="#ffa6d5"></use><use xlink:href="#bbburst-shape-4" width="18.55484097496014" opacity="0.769742892259071" transform="matrix(0.8301916081832514,-0.5574781553586712,0.5574781553586712,0.8301916081832514,341.4582476235936,-293.7372786577329)" fill="#ffa6d5"></use><use xlink:href="#bbburst-shape-6" width="21.292913902778874" opacity="0.770780704597317" transform="matrix(0.8360052062153271,-0.5487215096757811,0.5487215096757811,0.8360052062153271,356.3141987227133,-249.89128245651716)" fill="#ffbd9b"></use><use xlink:href="#bbburst-shape-8" width="50.61729527074462" opacity="0.3461704112988919" transform="matrix(0.9837647285707474,0.17946297339597334,-0.17946297339597334,0.9837647285707474,386.5338129697355,66.24480198799233)" fill="none" stroke="#ff794e" filter="url(#bbburst-blur-2)"></use><use xlink:href="#bbburst-shape-8" width="71.58469227489496" opacity="0.2363861986347492" transform="matrix(0.986559263840983,-0.16340385224815743,0.16340385224815743,0.986559263840983,297.46325486090115,260.54101533716937)" fill="none" stroke="#ffbd9b" filter="url(#bbburst-blur-3)"></use><use xlink:href="#bbburst-shape-4" width="16.065273452105625" opacity="0.7662929985633629" transform="matrix(0.9823714518953927,-0.1869393765393963,0.1869393765393963,0.9823714518953927,626.9948738061148,-175.89270824482975)" fill="#ffa6d5"></use><use xlink:href="#bbburst-shape-10" width="14.599692305946665" opacity="0.8075204843853574" transform="matrix(0.8961519032456927,-0.4437474127351309,0.4437474127351309,0.8961519032456927,424.689290328502,-333.6770748382228)" fill="none" stroke="#303841"></use><use xlink:href="#bbburst-shape-6" width="52.147875846352754" opacity="0.2013420617995324" transform="matrix(0.7228536888284297,0.6910011176164129,-0.6910011176164129,0.7228536888284297,772.6733871254962,438.9641102111223)" fill="#ffa6d5" filter="url(#bbburst-blur-3)"></use><use xlink:href="#bbburst-shape-6" width="14.726717819962593" opacity="0.9087797979174405" transform="matrix(0.8207624152735796,-0.5712696890911332,0.5712696890911332,0.8207624152735796,478.4591411780231,-296.64020506632653)" fill="#ff794e"></use><use xlink:href="#bbburst-shape-6" width="25.76822983880166" opacity="0.6215993447014969" transform="matrix(0.8148688738929794,0.5796453384272039,-0.5796453384272039,0.8148688738929794,726.8789205610825,-95.78455900829996)" fill="#ff794e" filter="url(#bbburst-blur-1)"></use><use xlink:href="#bbburst-shape-6" width="56.12141383554057" opacity="0.333758030657648" transform="matrix(0.7150816121640028,-0.69904097730028,0.69904097730028,0.7150816121640028,258.6441323535959,354.4472528010274)" fill="#303841" filter="url(#bbburst-blur-2)"></use><use xlink:href="#bbburst-shape-4" width="52.09069245438358" opacity="0.12197431603941156" transform="matrix(0.8447299906598519,0.5351927156453147,-0.5351927156453147,0.8447299906598519,260.2251178228638,133.34862268633736)" fill="#ffa6d5" filter="url(#bbburst-blur-3)"></use><use xlink:href="#bbburst-shape-7" width="36.937257641103415" opacity="0.5187453033570815" transform="matrix(0.9613651995413292,-0.27527613974127935,0.27527613974127935,0.9613651995413292,625.2477305083493,99.54066005480945)" fill="#303841" filter="url(#bbburst-blur-1)"></use></svg>