<svg xmlns="http://www.w3.org/2000/svg" version="1.1" xmlns:xlink="http://www.w3.org/1999/xlink" xmlns:svgjs="http://svgjs.dev/svgjs" viewBox="0 0 800 800"><defs><filter id="bbburst-blur-1" x="-100%" y="-100%" width="400%" height="400%"><feGaussianBlur in="SourceGraphic" stdDeviation="1"></feGaussianBlur></filter><filter id="bbburst-blur-2" x="-100%" y="-100%" width="400%" height="400%"><feGaussianBlur in="SourceGraphic" stdDeviation="2"></feGaussianBlur></filter><filter id="bbburst-blur-3" x="-100%" y="-100%" width="400%" height="400%"><feGaussianBlur in="SourceGraphic" stdDeviation="4"></feGaussianBlur></filter><filter id="bbburst-blur-4" x="-100%" y="-100%" width="400%" height="400%"><feGaussianBlur in="SourceGraphic" stdDeviation="12"></feGaussianBlur></filter><symbol id="bbburst-shape-1" viewBox="0 0 194 167"><path d="m97 0 96.129 166.5H.871L97 0Z"></path></symbol><symbol id="bbburst-shape-4" viewBox="0 0 149 143"><path d="M71.647 2.781c.898-2.764 4.808-2.764 5.706 0l15.445 47.534a3 3 0 0 0 2.853 2.073h49.98c2.906 0 4.115 3.719 1.764 5.427L106.96 87.193a2.999 2.999 0 0 0-1.09 3.354l15.445 47.534c.898 2.764-2.266 5.062-4.617 3.354l-40.435-29.378a3 3 0 0 0-3.526 0l-40.435 29.378c-2.351 1.708-5.515-.59-4.617-3.354L43.13 90.547a3 3 0 0 0-1.09-3.354L1.605 57.815c-2.35-1.708-1.142-5.427 1.764-5.427h49.98a3 3 0 0 0 2.853-2.073L71.647 2.781Z"></path></symbol><symbol id="bbburst-shape-6" viewBox="0 0 133 116"><path d="M59.7487 10.2513c-13.6683-13.66839-35.8291-13.66839-49.4974 0-13.66839 13.6683-13.66839 35.8291 0 49.4974l49.4974-49.4974ZM66.5 66.5 41.7513 91.2487 66.5 115.997l24.7487-24.7483L66.5 66.5Zm56.249-6.7513c13.668-13.6683 13.668-35.8291 0-49.4974-13.669-13.66839-35.8294-13.66839-49.4977 0l49.4977 49.4974Zm-112.4977 0 31.5 31.5 49.4974-49.4974-31.5-31.5-49.4974 49.4974Zm80.9974 31.5 31.5003-31.5-49.4977-49.4974-31.5 31.5 49.4974 49.4974Z"></path></symbol><symbol id="bbburst-shape-7" viewBox="0 0 139 124"><path fill-rule="evenodd" clip-rule="evenodd" d="M70.1641 15.0917C54.6093.764854 37.8293-2.10782 24.4032 2.82615 10.3804 7.97941.763366 21.4591 1.00047 37.0608c.1068 7.0273 2.86132 13.7317 7.0039 20.2001C12.1442 63.7249 17.853 70.2322 24.25 76.9024c3.8209 3.9842 7.8871 8.0312 12.0767 12.201h.0001c10.0335 9.9862 20.7748 20.6766 30.5497 32.8956 1.38 1.725 3.8972 2.005 5.6223.624.6706-.536 1.1228-1.244 1.3439-2.011 9.5768-11.748 20.0328-22.0735 29.8163-31.7351 4.19-4.1373 8.256-8.1528 12.078-12.1062 6.396-6.6176 12.106-13.0752 16.247-19.4911 4.144-6.4196 6.905-13.0811 7.012-20.0691.237-15.5124-9.399-28.8902-23.411-33.99923-13.32-4.85681-29.9542-2.08621-45.4209 11.88043Zm-3.7351 7.4919C52.1278 8.44857 37.6826 6.46918 27.1626 10.3352 16.2859 14.3323 8.8148 24.7824 8.99955 36.9392c.07575 4.9844 2.03755 10.2234 5.74165 16.0072 3.707 5.7881 8.9752 11.8418 15.2827 18.4187 3.5798 3.7328 7.4978 7.6329 11.6 11.7163 9.0476 9.0063 18.9911 18.9046 28.1786 29.8666 9.2999-11.068 19.4036-21.0473 28.5839-30.1144l.0007-.0006c4.1019-4.0508 8.0189-7.9196 11.5979-11.6222 6.307-6.5252 11.573-12.5298 15.278-18.2697 3.703-5.7362 5.658-10.924 5.734-15.8531.184-12.0276-7.267-22.3914-18.153-26.3608-10.71-3.90518-25.4722-1.80041-40.0023 12.867-1.5547 1.5694-4.0874 1.5813-5.6568.0265-.3146-.3116-.5666-.6625-.7559-1.0371Z"></path></symbol><symbol id="bbburst-shape-8" viewBox="0 0 87 168"><path d="m12 12 31.2546 18.0749c16.4102 9.4902 20.014 31.6325 7.4603 45.8369L36.3296 92.1884c-12.5684 14.2206-8.9394 36.3916 7.5068 45.8636L75 156" stroke-width="14" stroke-linecap="round" stroke-linejoin="round"></path></symbol><symbol id="bbburst-shape-10" viewBox="0 0 145 145"><circle cx="72.5" cy="72.5" r="61.5" fill="none" stroke-width="22"></circle></symbol></defs><use xlink:href="#bbburst-shape-8" width="45.67723816692253" opacity="0.41057901560390064" transform="matrix(0.9010582711560284,0.43369804239967374,-0.43369804239967374,0.9010582711560284,391.9946215948178,248.55860068720585)" fill="none" stroke="#7dd5d9" filter="url(#bbburst-blur-2)"></use><use xlink:href="#bbburst-shape-6" width="11.999824693226534" opacity="0.8547465854162215" transform="matrix(0.8843971456820054,0.4667351376418125,-0.4667351376418125,0.8843971456820054,920.088914906436,311.7556039627199)" fill="#ffa6d5"></use><use xlink:href="#bbburst-shape-4" width="11.807803317045938" opacity="0.932754868267198" transform="matrix(0.805354634306526,0.5927933138970124,-0.5927933138970124,0.805354634306526,975.5882551860575,438.3210951166878)" fill="#ff794e"></use><use xlink:href="#bbburst-shape-10" width="17.91926174842174" opacity="0.7378750448402394" transform="matrix(0.9682112320589389,0.2501339843262238,-0.2501339843262238,0.9682112320589389,849.8706420263677,151.656766745734)" fill="none" stroke="#303841"></use><use xlink:href="#bbburst-shape-7" width="11.586673718142947" opacity="0.7969838255019517" transform="matrix(0.9468858868096043,-0.32156977059541714,0.32156977059541714,0.9468858868096043,463.58299556133176,405.64608910063674)" fill="#ffa6d5"></use><use xlink:href="#bbburst-shape-7" width="40.53205941264855" opacity="0.4808395232838515" transform="matrix(0.9999391087788879,0.011035340252270617,-0.011035340252270617,0.9999391087788879,642.4597765828925,-99.70676942353236)" fill="#303841" filter="url(#bbburst-blur-1)"></use><use xlink:href="#bbburst-shape-10" width="27.026484036253017" opacity="0.5453178240790963" transform="matrix(0.9843167879207977,0.17640992323926535,-0.17640992323926535,0.9843167879207977,474.1917525959284,158.95562444748055)" fill="none" stroke="#ff794e" filter="url(#bbburst-blur-1)"></use><use xlink:href="#bbburst-shape-6" width="16.081036316806156" opacity="0.8041999624166973" transform="matrix(0.864560673369139,0.5025284490091093,-0.5025284490091093,0.864560673369139,832.3986127877623,339.66664079140185)" fill="#ffa6d5"></use><use xlink:href="#bbburst-shape-1" width="20.388595115999628" opacity="0.731618757641245" transform="matrix(0.9997638473519402,-0.021731302953257575,0.021731302953257575,0.9997638473519402,536.1844633458738,290.629208008413)" fill="#7dd5d9"></use><use xlink:href="#bbburst-shape-4" width="17.170055267871568" opacity="0.801449692641619" transform="matrix(0.9036254813391967,-0.42832346360490803,0.42832346360490803,0.9036254813391967,485.38900409221617,297.14222856962544)" fill="#7dd5d9"></use><use xlink:href="#bbburst-shape-1" width="19.812850379918498" opacity="0.7559638220786278" transform="matrix(0.9905222042841195,-0.13735269498677105,0.13735269498677105,0.9905222042841195,570.9657997896252,224.7210269468984)" fill="#303841"></use><use xlink:href="#bbburst-shape-7" width="14.835493237470878" opacity="0.7735873577199607" transform="matrix(0.9256729217415085,-0.37832478369059963,0.37832478369059963,0.9256729217415085,422.72298392733353,375.2054895926543)" fill="#303841"></use><use xlink:href="#bbburst-shape-10" width="11.996405835512302" opacity="0.873721386522437" transform="matrix(0.8002985749066163,0.5996016936287282,-0.5996016936287282,0.8002985749066163,926.8683745206744,411.1294715744742)" fill="none" stroke="#ffa6d5"></use><use xlink:href="#bbburst-shape-10" width="34.786246595298046" opacity="0.23381935987374936" transform="matrix(0.8966069779305995,-0.44282719781666247,0.44282719781666247,0.8966069779305995,534.0604884677202,-313.61521813469926)" fill="none" stroke="#303841" filter="url(#bbburst-blur-3)"></use><use xlink:href="#bbburst-shape-8" width="18.390975549078924" opacity="0.6477247625960081" transform="matrix(0.9403835615299286,0.34011579969811295,-0.34011579969811295,0.9403835615299286,889.072925218381,70.53487536697492)" fill="none" stroke="#ffbd9b" filter="url(#bbburst-blur-1)"></use><use xlink:href="#bbburst-shape-4" width="17.085258561159193" opacity="0.839780303419818" transform="matrix(0.9997991008865811,0.020043898482680872,-0.020043898482680872,0.9997991008865811,701.4472358890192,273.19402049353533)" fill="#ffa6d5"></use><use xlink:href="#bbburst-shape-7" width="26.796844987894126" opacity="0.5376517664164628" transform="matrix(0.990923671058262,-0.13442573465083812,0.13442573465083812,0.990923671058262,681.2975097907189,-54.02864273698253)" fill="#7dd5d9" filter="url(#bbburst-blur-1)"></use><use xlink:href="#bbburst-shape-8" width="38.617222861389486" opacity="0.4256811124460752" transform="matrix(0.9999886349669008,-0.004767592372918892,0.004767592372918892,0.9999886349669008,532.5101802365308,-118.73970043211159)" fill="none" stroke="#ffa6d5" filter="url(#bbburst-blur-2)"></use><use xlink:href="#bbburst-shape-8" width="11.629238048268897" opacity="0.931467383834137" transform="matrix(0.8641011725434751,0.5033181534665638,-0.5033181534665638,0.8641011725434751,928.8243371914167,439.459169611906)" fill="none" stroke="#303841"></use><use xlink:href="#bbburst-shape-10" width="57.98385943752918" opacity="0.3393651002140594" transform="matrix(0.9929555739475785,-0.11848724896137532,0.11848724896137532,0.9929555739475785,273.91707363877185,-77.51163085362043)" fill="none" stroke="#303841" filter="url(#bbburst-blur-2)"></use><use xlink:href="#bbburst-shape-6" width="10.565851025156146" opacity="0.8974561255508849" transform="matrix(0.9649964547342881,-0.2622629259927052,0.2622629259927052,0.9649964547342881,588.2010740568527,403.0231986159123)" fill="#7dd5d9"></use><use xlink:href="#bbburst-shape-7" width="49.98638586644703" opacity="0.3709409993704189" transform="matrix(0.8702342544697216,-0.4926381454450394,0.4926381454450394,0.8702342544697216,428.67323455176404,-146.03693080110423)" fill="#7dd5d9" filter="url(#bbburst-blur-2)"></use><use xlink:href="#bbburst-shape-10" width="19.111475519598542" opacity="0.8232470185239713" transform="matrix(0.7241120271541623,0.6896823704653394,-0.6896823704653394,0.7241120271541623,1013.8341128362877,335.82588734406323)" fill="none" stroke="#ff794e"></use><use xlink:href="#bbburst-shape-10" width="74.29398150150189" opacity="-0.007390691028073659" transform="matrix(0.9571613556695518,-0.2895550711226204,0.2895550711226204,0.9571613556695518,-64.26227650082622,-283.8890097585288)" fill="none" stroke="#ffbd9b" filter="url(#bbburst-blur-3)"></use><use xlink:href="#bbburst-shape-8" width="10.509092783922911" opacity="0.9156968579039387" transform="matrix(0.8534570770235727,-0.5211631392168671,0.5211631392168671,0.8534570770235727,547.680052863543,386.8102888199058)" fill="none" stroke="#7dd5d9"></use><use xlink:href="#bbburst-shape-6" width="47.180199492234685" opacity="0.1775812556151073" transform="matrix(0.8507925356298048,0.525501723419255,-0.525501723419255,0.8507925356298048,610.8764556586373,-282.46606478858126)" fill="#7dd5d9" filter="url(#bbburst-blur-3)"></use><use xlink:href="#bbburst-shape-10" width="44.929396574997426" opacity="0.31578548374599535" transform="matrix(0.9195038667198376,0.39308095742132687,-0.39308095742132687,0.9195038667198376,672.0570885228672,-207.64645138038532)" fill="none" stroke="#303841" filter="url(#bbburst-blur-2)"></use><use xlink:href="#bbburst-shape-6" width="56.45696010244113" opacity="0.09054798289875932" transform="matrix(0.947952689337817,-0.3184112101939885,0.3184112101939885,0.947952689337817,106.75579523802546,-302.620962526818)" fill="#7dd5d9" filter="url(#bbburst-blur-3)"></use><use xlink:href="#bbburst-shape-10" width="64.19353213041562" opacity="0.09599008468787329" transform="matrix(0.9590319471445097,0.2832979427320474,-0.2832979427320474,0.9590319471445097,155.726319952222,-130.2740035165504)" fill="none" stroke="#303841" filter="url(#bbburst-blur-3)"></use><use xlink:href="#bbburst-shape-1" width="10.95213697580569" opacity="0.8878411403782395" transform="matrix(0.9971759585628832,0.07510065022484817,-0.07510065022484817,0.9971759585628832,776.1468017365777,299.56934319006155)" fill="#303841"></use><use xlink:href="#bbburst-shape-1" width="34.6658798670037" opacity="0.3868855157521415" transform="matrix(0.8061278527354724,-0.5917414004817447,0.5917414004817447,0.8061278527354724,506.3716894688886,-123.76426885341539)" fill="#ffbd9b" filter="url(#bbburst-blur-2)"></use><use xlink:href="#bbburst-shape-1" width="20.751614073288053" opacity="0.7005816423685358" transform="matrix(0.999367876080125,0.035550643582077386,-0.035550643582077386,0.999367876080125,781.7381760981826,101.30994855209622)" fill="#303841"></use><use xlink:href="#bbburst-shape-7" width="23.60919366306273" opacity="0.6757142657531301" transform="matrix(0.9124553269130666,-0.40917633898842287,0.40917633898842287,0.9124553269130666,545.2269396788469,125.67652541262942)" fill="#303841"></use><use xlink:href="#bbburst-shape-8" width="20.818042078923796" opacity="0.7554054730196469" transform="matrix(0.9970306150275497,0.07700618610076684,-0.07700618610076684,0.9970306150275497,694.7181720646632,190.56618499584692)" fill="none" stroke="#ff794e"></use><use xlink:href="#bbburst-shape-7" width="13.296849066828484" opacity="0.8425423544362558" transform="matrix(0.9563320614578981,-0.29228237755240594,0.29228237755240594,0.9563320614578981,552.668799508309,322.3963326151305)" fill="#ffa6d5"></use><use xlink:href="#bbburst-shape-4" width="20.642395612148942" opacity="0.6432678322390902" transform="matrix(0.8974250855481287,0.441166879795995,-0.441166879795995,0.8974250855481287,611.8390076796522,405.1999807883043)" fill="#ff794e" filter="url(#bbburst-blur-1)"></use><use xlink:href="#bbburst-shape-4" width="31.62673778769122" opacity="0.6382230257307733" transform="matrix(0.9969825710563104,0.07762572389323645,-0.07762572389323645,0.9969825710563104,521.3083994568511,189.14819437135833)" fill="#7dd5d9" filter="url(#bbburst-blur-1)"></use><use xlink:href="#bbburst-shape-8" width="44.03119573977225" opacity="0.38386139223576354" transform="matrix(0.9756916974203041,-0.21914769354270108,0.21914769354270108,0.9756916974203041,78.62375952939341,345.3166803311937)" fill="none" stroke="#ff794e" filter="url(#bbburst-blur-2)"></use><use xlink:href="#bbburst-shape-1" width="23.32587145298464" opacity="0.5828368619006559" transform="matrix(0.9424343083409007,-0.3343913492631172,0.3343913492631172,0.9424343083409007,248.86192072262892,332.8052914712272)" fill="#7dd5d9" filter="url(#bbburst-blur-1)"></use><use xlink:href="#bbburst-shape-8" width="29.58779234558798" opacity="0.5129494893923389" transform="matrix(0.9857978058587067,0.16793655338894997,-0.16793655338894997,0.9857978058587067,403.6824984155435,214.25330391517582)" fill="none" stroke="#303841" filter="url(#bbburst-blur-1)"></use><use xlink:href="#bbburst-shape-1" width="21.13985309639429" opacity="0.804604831754913" transform="matrix(0.8197398591745532,-0.57273603281135,0.57273603281135,0.8197398591745532,465.6310758601172,308.348537127617)" fill="#ffbd9b"></use><use xlink:href="#bbburst-shape-6" width="43.99003946841893" opacity="0.2234500375508074" transform="matrix(0.7726826582774721,0.6347924933372001,-0.6347924933372001,0.7726826582774721,278.4438786985469,310.4071820178287)" fill="#303841" filter="url(#bbburst-blur-3)"></use><use xlink:href="#bbburst-shape-8" width="14.571151829159671" opacity="0.84499848838348" transform="matrix(0.9346345836272134,-0.35560961051128154,0.35560961051128154,0.9346345836272134,633.2969020480181,274.7436447602947)" fill="none" stroke="#ffa6d5"></use><use xlink:href="#bbburst-shape-1" width="55.8518405803135" opacity="0.2256037947739925" transform="matrix(0.9020629251040578,-0.43160454023644257,0.43160454023644257,0.9020629251040578,381.06954891561315,-290.8606114183191)" fill="#303841" filter="url(#bbburst-blur-3)"></use><use xlink:href="#bbburst-shape-10" width="46.60896235382253" opacity="0.5349382421635208" transform="matrix(0.9073400331899388,-0.4203975073319068,0.4203975073319068,0.9073400331899388,406.834720928952,28.862263012932203)" fill="none" stroke="#ffa6d5" filter="url(#bbburst-blur-1)"></use><use xlink:href="#bbburst-shape-8" width="20.297026593033284" opacity="0.7752652008104818" transform="matrix(0.999673900108551,0.02553612033490892,-0.02553612033490892,0.999673900108551,729.1943888452997,186.6050563455325)" fill="none" stroke="#ffa6d5"></use><use xlink:href="#bbburst-shape-6" width="62.35871312729104" opacity="0.24118210676829643" transform="matrix(0.9149646371954626,0.40353402914968084,-0.40353402914968084,0.9149646371954626,324.91870105433986,-32.638936478349024)" fill="#303841" filter="url(#bbburst-blur-3)"></use><use xlink:href="#bbburst-shape-4" width="16.943006217593904" opacity="0.7737182366200577" transform="matrix(0.794809416438551,0.6068591200110699,-0.6068591200110699,0.794809416438551,1015.9985526774356,251.5514805815086)" fill="#ff794e"></use><use xlink:href="#bbburst-shape-6" width="14.719915280505948" opacity="0.9051349998093836" transform="matrix(0.8950283398231599,-0.44600927222805387,0.44600927222805387,0.8950283398231599,528.5128594479171,406.31263882404795)" fill="#ffa6d5"></use><use xlink:href="#bbburst-shape-10" width="12.408346982006258" opacity="0.6827256380251985" transform="matrix(0.9090034278722998,0.41678863722084436,-0.41678863722084436,0.9090034278722998,645.4335250544245,401.6732661136867)" fill="none" stroke="#ffa6d5"></use><use xlink:href="#bbburst-shape-8" width="44.07600003616327" opacity="0.44240594839449576" transform="matrix(0.963167154612715,0.2689033883669866,-0.2689033883669866,0.963167154612715,560.2989760199449,-43.53307734047098)" fill="none" stroke="#7dd5d9" filter="url(#bbburst-blur-2)"></use><use xlink:href="#bbburst-shape-7" width="28.573364633764267" opacity="0.6457863580193282" transform="matrix(0.9330803607867035,0.35966795842020055,-0.35966795842020055,0.9330803607867035,793.0550758237307,95.10025186229382)" fill="#7dd5d9" filter="url(#bbburst-blur-1)"></use><use xlink:href="#bbburst-shape-10" width="17.71657124939744" opacity="0.718354307215154" transform="matrix(0.7365424228265156,0.6763913507554974,-0.6763913507554974,0.7365424228265156,783.2492948668555,477.3607450340195)" fill="none" stroke="#ffa6d5"></use><use xlink:href="#bbburst-shape-6" width="11.5736461436655" opacity="0.8551763666549965" transform="matrix(0.9917101844771928,0.12849478590282273,-0.12849478590282273,0.9917101844771928,701.532723392477,388.3778310313558)" fill="#ffa6d5"></use><use xlink:href="#bbburst-shape-6" width="36.96765706395994" opacity="0.46619952542900034" transform="matrix(0.9539752852885787,-0.299885236479849,0.299885236479849,0.9539752852885787,612.7580404272152,-107.53265184285493)" fill="#303841" filter="url(#bbburst-blur-1)"></use><use xlink:href="#bbburst-shape-4" width="10.204474678646026" opacity="0.8736430929281035" transform="matrix(0.72593089300386,-0.6877676486885802,0.6877676486885802,0.72593089300386,500.4778685224455,388.49662635098525)" fill="#303841"></use><use xlink:href="#bbburst-shape-4" width="15.64077095371163" opacity="0.7302316802016571" transform="matrix(0.9480431540906201,-0.31814175768343994,0.31814175768343994,0.9480431540906201,402.85815635100346,360.98237007604945)" fill="#ffa6d5"></use><use xlink:href="#bbburst-shape-4" width="14.75094581203366" opacity="0.7576172253004477" transform="matrix(0.921212167604624,-0.3890605894423003,0.3890605894423003,0.921212167604624,396.0050830550393,414.7046297421782)" fill="#7dd5d9"></use><use xlink:href="#bbburst-shape-6" width="24.387664299614137" opacity="0.6907130463100155" transform="matrix(0.9426645265327028,0.3337418020219751,-0.3337418020219751,0.9426645265327028,627.384198153421,324.74360911565833)" fill="#7dd5d9"></use><use xlink:href="#bbburst-shape-4" width="36.74210597787345" opacity="0.4427333725263495" transform="matrix(0.7931141174261334,-0.6090730635476876,0.6090730635476876,0.7931141174261334,55.544265517176655,221.79132220982558)" fill="#303841" filter="url(#bbburst-blur-2)"></use><use xlink:href="#bbburst-shape-6" width="21.930145863793395" opacity="0.7575034940439885" transform="matrix(0.7397245637106332,0.6729097783827439,-0.6729097783827439,0.7397245637106332,862.5899338720774,357.3865210699827)" fill="#7dd5d9"></use><use xlink:href="#bbburst-shape-6" width="10.971838687882263" opacity="0.960204285447815" transform="matrix(0.9998883090629431,0.014945547806898798,-0.014945547806898798,0.9998883090629431,763.3912701723032,385.5695033922756)" fill="#7dd5d9"></use><use xlink:href="#bbburst-shape-4" width="12.001964052006379" opacity="0.9034118910983089" transform="matrix(0.7830122190500797,0.6220063221690516,-0.6220063221690516,0.7830122190500797,1029.9351461886642,387.5267131883745)" fill="#7dd5d9"></use><use xlink:href="#bbburst-shape-10" width="25.146672987522386" opacity="0.3077714364683751" transform="matrix(0.9366156305357818,0.3503586171853918,-0.3503586171853918,0.9366156305357818,851.6729573877633,-267.01828746320933)" fill="none" stroke="#ffbd9b" filter="url(#bbburst-blur-2)"></use><use xlink:href="#bbburst-shape-6" width="41.747729400433" opacity="0.2726604934963618" transform="matrix(0.7897989592190935,-0.6133657995164359,0.6133657995164359,0.7897989592190935,-187.33013414955101,445.1589793506462)" fill="#ff794e" filter="url(#bbburst-blur-2)"></use><use xlink:href="#bbburst-shape-4" width="14.195974340045328" opacity="0.8342460587003291" transform="matrix(0.780905411918489,-0.6246492917120895,0.6246492917120895,0.780905411918489,392.0084085050935,427.36298985134744)" fill="#303841"></use><use xlink:href="#bbburst-shape-6" width="24.573289289971612" opacity="0.6940042902628962" transform="matrix(0.8359000932349056,0.5488816212352863,-0.5488816212352863,0.8359000932349056,843.3771312131382,201.77972957392979)" fill="#ffa6d5"></use><use xlink:href="#bbburst-shape-7" width="51.607032726746624" opacity="0.29497988290683796" transform="matrix(0.8814537372826037,-0.4722703770410872,0.4722703770410872,0.8814537372826037,202.4234883847568,-130.4485113661389)" fill="#ffa6d5" filter="url(#bbburst-blur-2)"></use><use xlink:href="#bbburst-shape-8" width="31.16953243502865" opacity="0.5435556884058875" transform="matrix(0.8387202924582714,-0.5445624583266016,0.5445624583266016,0.8387202924582714,114.13705239007021,436.3012492280015)" fill="none" stroke="#ffa6d5" filter="url(#bbburst-blur-1)"></use><use xlink:href="#bbburst-shape-6" width="29.706435374833898" opacity="0.5846190756723866" transform="matrix(0.841502292747942,0.5402535435329943,-0.5402535435329943,0.841502292747942,888.6610139256303,56.21344897160532)" fill="#ffbd9b" filter="url(#bbburst-blur-1)"></use><use xlink:href="#bbburst-shape-4" width="17.583519932266437" opacity="0.599926596857536" transform="matrix(0.7861153141216821,0.6180798596487099,-0.6180798596487099,0.7861153141216821,641.1964705213524,452.4458896302927)" fill="#ffbd9b" filter="url(#bbburst-blur-1)"></use><use xlink:href="#bbburst-shape-6" width="30.178301644957596" opacity="0.643134269952703" transform="matrix(0.7428608819616029,-0.6694458230889409,0.6694458230889409,0.7428608819616029,282.4554277131069,247.54522631158915)" fill="#ffbd9b" filter="url(#bbburst-blur-1)"></use><use xlink:href="#bbburst-shape-10" width="14.666957519367323" opacity="0.8233272296881764" transform="matrix(0.9988379721976732,-0.048194452959238125,0.048194452959238125,0.9988379721976732,599.6883564450795,368.59272755546465)" fill="none" stroke="#7dd5d9"></use><use xlink:href="#bbburst-shape-10" width="28.029824658469455" opacity="0.5938777084432557" transform="matrix(0.9509219948802734,-0.3094307025052964,0.3094307025052964,0.9509219948802734,288.97498175453313,265.4909542386969)" fill="none" stroke="#303841" filter="url(#bbburst-blur-1)"></use><use xlink:href="#bbburst-shape-10" width="22.589922690219915" opacity="0.6442901722677271" transform="matrix(0.8165461123528911,0.5772802148015985,-0.5772802148015985,0.8165461123528911,677.597936461337,376.69100582235006)" fill="none" stroke="#7dd5d9" filter="url(#bbburst-blur-1)"></use><use xlink:href="#bbburst-shape-7" width="13.641118126604415" opacity="0.871568980795588" transform="matrix(0.997160926868075,0.07529997295883656,-0.07529997295883656,0.997160926868075,700.2031715375015,363.88527958472724)" fill="#ffa6d5"></use><use xlink:href="#bbburst-shape-7" width="11.76964577745846" opacity="0.8752443828932744" transform="matrix(0.8445593409142752,-0.5354619684668979,0.5354619684668979,0.8445593409142752,497.93921951495247,372.0899129826529)" fill="#303841"></use><use xlink:href="#bbburst-shape-10" width="10.282923004886218" opacity="0.9407531046896214" transform="matrix(0.7884351796484245,-0.6151178484589409,0.6151178484589409,0.7884351796484245,514.3080229700878,440.42329061738826)" fill="none" stroke="#ff794e"></use><use xlink:href="#bbburst-shape-7" width="15.802381207260531" opacity="0.7871902451944279" transform="matrix(0.979224279416535,0.2027802026854886,-0.2027802026854886,0.979224279416535,678.3767150425417,321.3401100045677)" fill="#7dd5d9"></use><use xlink:href="#bbburst-shape-10" width="11.35510548211742" opacity="0.961382765244643" transform="matrix(0.9691445302977386,-0.24649316297612733,0.24649316297612733,0.9691445302977386,683.2246422145507,377.2640444952113)" fill="none" stroke="#7dd5d9"></use><use xlink:href="#bbburst-shape-8" width="21.191702220560973" opacity="0.6546800226857297" transform="matrix(0.9679595614590533,-0.25110612772291574,0.25110612772291574,0.9679595614590533,378.85884976518753,264.24380008111876)" fill="none" stroke="#303841"></use><use xlink:href="#bbburst-shape-4" width="25.03384084748029" opacity="0.5965181213663837" transform="matrix(0.9004722185323735,-0.43491353583371656,0.43491353583371656,0.9004722185323735,582.6265377149157,43.07614571403343)" fill="#7dd5d9" filter="url(#bbburst-blur-1)"></use><use xlink:href="#bbburst-shape-7" width="25.023841164340773" opacity="0.6140497900076556" transform="matrix(0.9700830116362772,0.24277345516899176,-0.24277345516899176,0.9700830116362772,683.3817870180118,79.72883111571417)" fill="#303841" filter="url(#bbburst-blur-1)"></use><use xlink:href="#bbburst-shape-4" width="59.144187915906755" opacity="0.31771954713106876" transform="matrix(0.9608498451551309,0.27706962133254687,-0.27706962133254687,0.9608498451551309,275.3249023157947,96.12091530400403)" fill="#7dd5d9" filter="url(#bbburst-blur-2)"></use><use xlink:href="#bbburst-shape-10" width="46.03820313142602" opacity="0.4750250120773656" transform="matrix(0.9558618500979121,0.29381647933258703,-0.29381647933258703,0.9558618500979121,507.9642155371985,56.7781425877713)" fill="none" stroke="#ffa6d5" filter="url(#bbburst-blur-1)"></use><use xlink:href="#bbburst-shape-10" width="8.69000449731535" opacity="0.933666962454659" transform="matrix(0.7449957910552801,0.6670691653119019,-0.6670691653119019,0.7449957910552801,1051.351864333732,433.9090658579847)" fill="none" stroke="#ffa6d5"></use><use xlink:href="#bbburst-shape-8" width="49.83399892341448" opacity="0.37406530834028207" transform="matrix(0.9713051990939033,0.23783651993155452,-0.23783651993155452,0.9713051990939033,372.38190772112034,27.079224229490023)" fill="none" stroke="#ffa6d5" filter="url(#bbburst-blur-2)"></use><use xlink:href="#bbburst-shape-4" width="27.605535482219945" opacity="0.5033601492139894" transform="matrix(0.9711540245445938,0.23845305745751827,-0.23845305745751827,0.9711540245445938,399.7153707256775,289.60784686983857)" fill="#ff794e" filter="url(#bbburst-blur-1)"></use><use xlink:href="#bbburst-shape-4" width="11.153808507300374" opacity="0.8101210047824072" transform="matrix(0.9807953191443188,-0.19503984706873045,0.19503984706873045,0.9807953191443188,694.3401707713446,220.1999574345645)" fill="#ffa6d5"></use><use xlink:href="#bbburst-shape-10" width="54.39686071402521" opacity="0.29739884911307213" transform="matrix(0.9919486359305026,-0.12664084521044153,0.12664084521044153,0.9919486359305026,50.34946041489076,201.61731242003935)" fill="none" stroke="#ffa6d5" filter="url(#bbburst-blur-2)"></use><use xlink:href="#bbburst-shape-4" width="20.361878785512864" opacity="0.7027946149555214" transform="matrix(0.8014516634706234,-0.5980595548272518,0.5980595548272518,0.8014516634706234,303.95345379406865,322.7588330391032)" fill="#ffa6d5"></use><use xlink:href="#bbburst-shape-6" width="60.74938883557824" opacity="0.1822360792333768" transform="matrix(0.9989071896400602,-0.046737848531963284,0.046737848531963284,0.9989071896400602,12.498485938057783,50.56353362282192)" fill="#7dd5d9" filter="url(#bbburst-blur-3)"></use><use xlink:href="#bbburst-shape-8" width="39.63364479712301" opacity="0.4709223078677467" transform="matrix(0.7415342183610814,-0.6709150490185923,0.6709150490185923,0.7415342183610814,-10.148146648139459,470.8318664411245)" fill="none" stroke="#303841" filter="url(#bbburst-blur-1)"></use><use xlink:href="#bbburst-shape-6" width="39.37504837119831" opacity="0.5461136033594323" transform="matrix(0.9985971643400533,0.052950008234225555,-0.052950008234225555,0.9985971643400533,521.935172038601,41.96472652458846)" fill="#303841" filter="url(#bbburst-blur-1)"></use><use xlink:href="#bbburst-shape-7" width="10.122982204743428" opacity="0.9831980972924418" transform="matrix(0.8980411656844713,-0.43991142828537194,0.43991142828537194,0.8980411656844713,607.4173696557693,431.30232595890567)" fill="#303841"></use><use xlink:href="#bbburst-shape-10" width="24.61415798557317" opacity="0.7054208931592486" transform="matrix(0.9327256270296987,0.36058688922651555,-0.36058688922651555,0.9327256270296987,722.2770301971291,216.37585866583106)" fill="none" stroke="#ffa6d5"></use><use xlink:href="#bbburst-shape-10" width="20.153939905061552" opacity="0.7202492125363829" transform="matrix(0.9628712640436883,0.269960976585339,-0.269960976585339,0.9628712640436883,796.028154663978,151.7376665677736)" fill="none" stroke="#ffbd9b"></use><use xlink:href="#bbburst-shape-1" width="48.345120183129836" opacity="0.18722674477351775" transform="matrix(0.8511456780267779,-0.5249295522032805,0.5249295522032805,0.8511456780267779,16.046989223215775,-122.95164800679106)" fill="#ffa6d5" filter="url(#bbburst-blur-3)"></use><use xlink:href="#bbburst-shape-4" width="12.638143193179793" opacity="0.905666791407062" transform="matrix(0.7978164145479112,0.6029004633253449,-0.6029004633253449,0.7978164145479112,967.6214021115859,412.20508853468147)" fill="#ffbd9b"></use><use xlink:href="#bbburst-shape-1" width="26.580906671962254" opacity="0.577237167173273" transform="matrix(0.9958231993152676,-0.09130255037787684,0.09130255037787684,0.9958231993152676,435.48529905921237,120.68898260004812)" fill="#303841" filter="url(#bbburst-blur-1)"></use></svg>