<svg xmlns="http://www.w3.org/2000/svg" version="1.1" xmlns:xlink="http://www.w3.org/1999/xlink" xmlns:svgjs="http://svgjs.dev/svgjs" viewBox="0 0 800 800" opacity="1"><defs><symbol id="bbburst-shape-1" viewBox="0 0 194 167"><path d="m97 0 96.129 166.5H.871L97 0Z"></path></symbol><symbol id="bbburst-shape-4" viewBox="0 0 149 143"><path d="M71.647 2.781c.898-2.764 4.808-2.764 5.706 0l15.445 47.534a3 3 0 0 0 2.853 2.073h49.98c2.906 0 4.115 3.719 1.764 5.427L106.96 87.193a2.999 2.999 0 0 0-1.09 3.354l15.445 47.534c.898 2.764-2.266 5.062-4.617 3.354l-40.435-29.378a3 3 0 0 0-3.526 0l-40.435 29.378c-2.351 1.708-5.515-.59-4.617-3.354L43.13 90.547a3 3 0 0 0-1.09-3.354L1.605 57.815c-2.35-1.708-1.142-5.427 1.764-5.427h49.98a3 3 0 0 0 2.853-2.073L71.647 2.781Z"></path></symbol><symbol id="bbburst-shape-6" viewBox="0 0 133 116"><path d="M59.7487 10.2513c-13.6683-13.66839-35.8291-13.66839-49.4974 0-13.66839 13.6683-13.66839 35.8291 0 49.4974l49.4974-49.4974ZM66.5 66.5 41.7513 91.2487 66.5 115.997l24.7487-24.7483L66.5 66.5Zm56.249-6.7513c13.668-13.6683 13.668-35.8291 0-49.4974-13.669-13.66839-35.8294-13.66839-49.4977 0l49.4977 49.4974Zm-112.4977 0 31.5 31.5 49.4974-49.4974-31.5-31.5-49.4974 49.4974Zm80.9974 31.5 31.5003-31.5-49.4977-49.4974-31.5 31.5 49.4974 49.4974Z"></path></symbol><symbol id="bbburst-shape-7" viewBox="0 0 139 124"><path fill-rule="evenodd" clip-rule="evenodd" d="M70.1641 15.0917C54.6093.764854 37.8293-2.10782 24.4032 2.82615 10.3804 7.97941.763366 21.4591 1.00047 37.0608c.1068 7.0273 2.86132 13.7317 7.0039 20.2001C12.1442 63.7249 17.853 70.2322 24.25 76.9024c3.8209 3.9842 7.8871 8.0312 12.0767 12.201h.0001c10.0335 9.9862 20.7748 20.6766 30.5497 32.8956 1.38 1.725 3.8972 2.005 5.6223.624.6706-.536 1.1228-1.244 1.3439-2.011 9.5768-11.748 20.0328-22.0735 29.8163-31.7351 4.19-4.1373 8.256-8.1528 12.078-12.1062 6.396-6.6176 12.106-13.0752 16.247-19.4911 4.144-6.4196 6.905-13.0811 7.012-20.0691.237-15.5124-9.399-28.8902-23.411-33.99923-13.32-4.85681-29.9542-2.08621-45.4209 11.88043Zm-3.7351 7.4919C52.1278 8.44857 37.6826 6.46918 27.1626 10.3352 16.2859 14.3323 8.8148 24.7824 8.99955 36.9392c.07575 4.9844 2.03755 10.2234 5.74165 16.0072 3.707 5.7881 8.9752 11.8418 15.2827 18.4187 3.5798 3.7328 7.4978 7.6329 11.6 11.7163 9.0476 9.0063 18.9911 18.9046 28.1786 29.8666 9.2999-11.068 19.4036-21.0473 28.5839-30.1144l.0007-.0006c4.1019-4.0508 8.0189-7.9196 11.5979-11.6222 6.307-6.5252 11.573-12.5298 15.278-18.2697 3.703-5.7362 5.658-10.924 5.734-15.8531.184-12.0276-7.267-22.3914-18.153-26.3608-10.71-3.90518-25.4722-1.80041-40.0023 12.867-1.5547 1.5694-4.0874 1.5813-5.6568.0265-.3146-.3116-.5666-.6625-.7559-1.0371Z"></path></symbol><symbol id="bbburst-shape-8" viewBox="0 0 87 168"><path d="m12 12 31.2546 18.0749c16.4102 9.4902 20.014 31.6325 7.4603 45.8369L36.3296 92.1884c-12.5684 14.2206-8.9394 36.3916 7.5068 45.8636L75 156" stroke-width="14" stroke-linecap="round" stroke-linejoin="round"></path></symbol><symbol id="bbburst-shape-10" viewBox="0 0 145 145"><circle cx="72.5" cy="72.5" r="61.5" fill="none" stroke-width="22"></circle></symbol></defs><use xlink:href="#bbburst-shape-10" width="45.22461202787533" opacity="-0.06200142879765602" transform="matrix(0.9997766465020126,-0.021134263866760226,0.021134263866760226,0.9997766465020126,715.773938830551,329.3446315106845)" fill="none" stroke="#303841"></use><use xlink:href="#bbburst-shape-8" width="40.137123498253374" opacity="0.3749611540855241" transform="matrix(0.7803330946431073,-0.6253641030669344,0.6253641030669344,0.7803330946431073,407.5349734696761,34.11295681305734)" fill="none" stroke="#ffbd9b"></use><use xlink:href="#bbburst-shape-6" width="38.05336204310281" opacity="0.47094271098370366" transform="matrix(0.7170918749984941,-0.6969786530526915,0.6969786530526915,0.7170918749984941,345.42380411187344,136.58572232112255)" fill="#ffa6d5"></use><use xlink:href="#bbburst-shape-10" width="47.298188540247516" opacity="0.2189668811921497" transform="matrix(0.9979361162477344,0.06421454576953957,-0.06421454576953957,0.9979361162477344,752.4326501219963,27.315445705839522)" fill="none" stroke="#ffa6d5"></use><use xlink:href="#bbburst-shape-1" width="40.36290776581071" opacity="0.43894596595091895" transform="matrix(0.9999985961097309,-0.001675642732605164,0.001675642732605164,0.9999985961097309,531.2420937613882,-201.43480887714827)" fill="#7dd5d9"></use><use xlink:href="#bbburst-shape-8" width="39.357379402898005" opacity="0.5448988013170506" transform="matrix(0.9464375851956809,0.3228868181406113,-0.3228868181406113,0.9464375851956809,383.6943287647564,-145.72052319931993)" fill="none" stroke="#ffa6d5"></use><use xlink:href="#bbburst-shape-8" width="15.702824337811524" opacity="0.7809032247352085" transform="matrix(0.9991910337356222,0.04021539633447133,-0.04021539633447133,0.9991910337356222,407.8512939174469,-98.58493944474446)" fill="none" stroke="#ffa6d5"></use><use xlink:href="#bbburst-shape-4" width="36.63022945766054" opacity="0.18627363748054526" transform="matrix(0.999998471855693,-0.001748223749604101,0.001748223749604101,0.999998471855693,286.426299456497,-353.69113993254473)" fill="#ffa6d5"></use><use xlink:href="#bbburst-shape-8" width="16.096151166716687" opacity="0.8518338802671775" transform="matrix(0.9009600892717781,-0.433901967660196,0.433901967660196,0.9009600892717781,240.88906758072628,-19.936356163312553)" fill="none" stroke="#7dd5d9"></use><use xlink:href="#bbburst-shape-10" width="29.426300760326292" opacity="0.5449494770969532" transform="matrix(0.9804882880558946,0.19657750884885317,-0.19657750884885317,0.9804882880558946,577.4430085935858,175.52604151934253)" fill="none" stroke="#303841"></use><use xlink:href="#bbburst-shape-4" width="11.263144448661729" opacity="0.8838125409062789" transform="matrix(0.8176436779960901,-0.5757246006842388,0.5757246006842388,0.8176436779960901,217.04156068003272,70.11746908744732)" fill="#303841"></use><use xlink:href="#bbburst-shape-1" width="33.666252547106176" opacity="0.41512965106296595" transform="matrix(0.9730636813969015,-0.23053648723425427,0.23053648723425427,0.9730636813969015,225.64134479098908,269.5376973293821)" fill="#ffa6d5"></use><use xlink:href="#bbburst-shape-1" width="42.29764911984635" opacity="0.17707033833734154" transform="matrix(0.9912190307696053,0.1322302274072173,-0.1322302274072173,0.9912190307696053,787.0655030520576,-104.15197736210087)" fill="#7dd5d9"></use><use xlink:href="#bbburst-shape-8" width="30.638934696911353" opacity="0.5080040326308428" transform="matrix(0.8294067413463859,0.5586451981438391,-0.5586451981438391,0.8294067413463859,656.7158542242861,276.2535819141248)" fill="none" stroke="#303841"></use><use xlink:href="#bbburst-shape-10" width="38.825773259113284" opacity="0.3042974690533857" transform="matrix(0.997790547058704,-0.06643812309429167,0.06643812309429167,0.997790547058704,181.6267747347964,263.47603975859715)" fill="none" stroke="#ff794e"></use><use xlink:href="#bbburst-shape-8" width="35.68764164366841" opacity="0.18852393398841005" transform="matrix(0.9121797770883194,-0.4097902564374901,0.4097902564374901,0.9121797770883194,-51.84893087051782,-201.58407462174227)" fill="none" stroke="#ffbd9b"></use><use xlink:href="#bbburst-shape-8" width="26.43264629540029" opacity="0.6300143388800357" transform="matrix(0.8447663155967,-0.5351353772954809,0.5351353772954809,0.8447663155967,8.633111277355681,79.8866531427177)" fill="none" stroke="#7dd5d9"></use><use xlink:href="#bbburst-shape-8" width="29.209178693602055" opacity="0.631064766113828" transform="matrix(0.9133681892516388,-0.4071345611259041,0.4071345611259041,0.9133681892516388,389.6641169963614,33.23143300332947)" fill="none" stroke="#7dd5d9"></use><use xlink:href="#bbburst-shape-10" width="51.09974693137436" opacity="0.2805865903522914" transform="matrix(0.8535202915020805,-0.5210596050301763,0.5210596050301763,0.8535202915020805,-138.3903177166277,-27.306821415484762)" fill="none" stroke="#7dd5d9"></use><use xlink:href="#bbburst-shape-4" width="31.181837239658172" opacity="0.6469247616730287" transform="matrix(0.9727799749004873,0.23173070671062854,-0.23173070671062854,0.9727799749004873,333.4512157933425,-59.693708640689124)" fill="#ff794e"></use><use xlink:href="#bbburst-shape-8" width="22.769305676495144" opacity="0.6898685890464552" transform="matrix(0.9935135382558608,0.11371389230133805,-0.11371389230133805,0.9935135382558608,374.445178995688,-124.83140994509381)" fill="none" stroke="#7dd5d9"></use><use xlink:href="#bbburst-shape-4" width="22.07553701809072" opacity="0.7327009196097944" transform="matrix(0.9716642691609553,0.2363652851751006,-0.2363652851751006,0.9716642691609553,393.6482612053406,-70.86736051432592)" fill="#303841"></use><use xlink:href="#bbburst-shape-7" width="29.44055004507773" opacity="0.3851111222951824" transform="matrix(0.8555276688394431,-0.5177570934812464,0.5177570934812464,0.8555276688394431,-45.54928073614741,225.44560932084102)" fill="#7dd5d9"></use><use xlink:href="#bbburst-shape-7" width="32.81956818106625" opacity="0.5726659466976547" transform="matrix(0.9961904871363655,0.08720386080335472,-0.08720386080335472,0.9961904871363655,589.0889979546795,88.67671072919723)" fill="#7dd5d9"></use><use xlink:href="#bbburst-shape-8" width="16.990660408188663" opacity="0.8189310070155041" transform="matrix(0.7217690513076942,-0.6921339729953957,0.6921339729953957,0.7217690513076942,163.04025471486318,184.40928028388225)" fill="none" stroke="#ffbd9b"></use><use xlink:href="#bbburst-shape-8" width="32.47266950273688" opacity="0.10977086879120712" transform="matrix(0.8830838187078306,-0.46921526950472897,0.46921526950472897,0.8830838187078306,560.7614713142597,224.294910558891)" fill="none" stroke="#ffa6d5"></use><use xlink:href="#bbburst-shape-6" width="31.891087584859264" opacity="0.5517213113288543" transform="matrix(0.9903177961016096,-0.13881881257398362,0.13881881257398362,0.9903177961016096,278.01047812193775,-189.1710129879351)" fill="#7dd5d9"></use><use xlink:href="#bbburst-shape-4" width="44.08859107083638" opacity="0.41444125531490406" transform="matrix(0.8683091817957381,0.4960233510725234,-0.4960233510725234,0.8683091817957381,769.6795294825878,223.89987897722153)" fill="#ffbd9b"></use><use xlink:href="#bbburst-shape-8" width="38.48768757846635" opacity="0.08752107791892261" transform="matrix(0.9986113203827756,-0.05268235761020514,0.05268235761020514,0.9986113203827756,140.21864965422523,-345.4590665812634)" fill="none" stroke="#303841"></use><use xlink:href="#bbburst-shape-7" width="34.66432789275672" opacity="0.11590721680005633" transform="matrix(0.9174911754240862,0.39775613511161423,-0.39775613511161423,0.9174911754240862,714.8742758542593,-332.7936738556911)" fill="#303841"></use><use xlink:href="#bbburst-shape-7" width="27.294599860209736" opacity="0.6731409179327538" transform="matrix(0.9372723035845657,-0.34859809083424675,0.34859809083424675,0.9372723035845657,260.7271023480095,-116.63214164152157)" fill="#ffa6d5"></use><use xlink:href="#bbburst-shape-10" width="43.04717808285168" opacity="0.3384733625136629" transform="matrix(0.9612635221131864,-0.27563098710876394,0.27563098710876394,0.9612635221131864,365.0834844676337,-260.34686986084506)" fill="none" stroke="#303841"></use><use xlink:href="#bbburst-shape-8" width="11.27241391851494" opacity="0.912545546003348" transform="matrix(0.9033696310612528,0.4288628098544523,-0.4288628098544523,0.9033696310612528,593.0590937700005,7.236335996907769)" fill="none" stroke="#ffbd9b"></use><use xlink:href="#bbburst-shape-7" width="46.03771270046745" opacity="-0.06627646944045207" transform="matrix(0.9918866411042768,0.1271254938982559,-0.1271254938982559,0.9918866411042768,83.50190557698315,-333.85987834646863)" fill="#303841"></use><use xlink:href="#bbburst-shape-8" width="21.801475722195416" opacity="0.6728236833926462" transform="matrix(0.8543585127073108,0.519684069184877,-0.519684069184877,0.8543585127073108,646.9006763536905,191.6589249203073)" fill="none" stroke="#ffbd9b"></use><use xlink:href="#bbburst-shape-1" width="12.37033776175355" opacity="0.977342360226035" transform="matrix(0.8995411442396711,-0.4368360445521673,0.4368360445521673,0.8995411442396711,229.88210978077157,42.22186978668151)" fill="#7dd5d9"></use><use xlink:href="#bbburst-shape-4" width="35.82719443018932" opacity="0.3190622123504393" transform="matrix(0.8644958711450533,0.5026399195976732,-0.5026399195976732,0.8644958711450533,724.9303601572265,318.11480739276993)" fill="#ffbd9b"></use><use xlink:href="#bbburst-shape-8" width="21.98349599805954" opacity="0.770630892530062" transform="matrix(0.9427736976868033,-0.3334332841063592,0.3334332841063592,0.9427736976868033,261.278051941782,129.64977304565713)" fill="none" stroke="#303841"></use><use xlink:href="#bbburst-shape-6" width="38.48232809688906" opacity="0.07155200025203401" transform="matrix(0.7421442988041537,-0.6702401358860055,0.6702401358860055,0.7421442988041537,336.60906126199023,471.8532956146179)" fill="#ffa6d5"></use><use xlink:href="#bbburst-shape-8" width="22.82806760925385" opacity="0.591726676764012" transform="matrix(0.9393877904489809,0.34285649936289886,-0.34285649936289886,0.9393877904489809,453.81886657835656,189.10104635804646)" fill="none" stroke="#ff794e"></use><use xlink:href="#bbburst-shape-10" width="19.783525601144866" opacity="0.7429455783033015" transform="matrix(0.9839575003526023,-0.1784030198731471,0.1784030198731471,0.9839575003526023,377.6866379593283,-91.44453648259156)" fill="none" stroke="#ffa6d5"></use><use xlink:href="#bbburst-shape-8" width="36.94411470586306" opacity="0.39302729670175784" transform="matrix(0.8559752096047605,-0.5170168667868452,0.5170168667868452,0.8559752096047605,152.19664477381954,-204.8138507935979)" fill="none" stroke="#7dd5d9"></use><use xlink:href="#bbburst-shape-7" width="47.43204960421553" opacity="0.18757507966717268" transform="matrix(0.8547312050005226,0.5190708691482837,-0.5190708691482837,0.8547312050005226,303.9728148474246,276.8401117273498)" fill="#303841"></use><use xlink:href="#bbburst-shape-7" width="34.917391254909326" opacity="0.4415829049444189" transform="matrix(0.7606856909277528,0.6491203891557924,-0.6491203891557924,0.7606856909277528,395.2088624512045,73.86912762736779)" fill="#7dd5d9"></use><use xlink:href="#bbburst-shape-1" width="47.30722667529545" opacity="-0.06263873392185659" transform="matrix(0.95164357252455,-0.3072043470927966,0.3072043470927966,0.95164357252455,584.2350036256041,-319.77469456026904)" fill="#7dd5d9"></use><use xlink:href="#bbburst-shape-8" width="26.136406005406343" opacity="0.6147603413161209" transform="matrix(0.9736013775975211,-0.22825502741497092,0.22825502741497092,0.9736013775975211,400.8503700906622,-124.49408125644635)" fill="none" stroke="#7dd5d9"></use><use xlink:href="#bbburst-shape-4" width="28.861230830888616" opacity="0.4991204533321676" transform="matrix(0.9922187380453776,-0.12450693101847125,0.12450693101847125,0.9922187380453776,130.49015705266584,-87.89476735227265)" fill="#ff794e"></use><use xlink:href="#bbburst-shape-4" width="14.596814879128098" opacity="0.913368793351693" transform="matrix(0.9863609164233998,-0.1645969093038833,0.1645969093038833,0.9863609164233998,314.55388027534366,-30.285806408306428)" fill="#ffa6d5"></use><use xlink:href="#bbburst-shape-1" width="13.272498449670598" opacity="0.9413363385462454" transform="matrix(0.9092656312514241,-0.41621630413157673,0.41621630413157673,0.9092656312514241,201.26657641743566,42.1381754165738)" fill="#7dd5d9"></use><use xlink:href="#bbburst-shape-8" width="31.38351839935139" opacity="0.380308571890812" transform="matrix(0.8689229414578509,-0.49494739297044116,0.49494739297044116,0.8689229414578509,451.5202636869352,152.52269227388047)" fill="none" stroke="#7dd5d9"></use><use xlink:href="#bbburst-shape-8" width="21.41181908062822" opacity="0.8163198746824464" transform="matrix(0.9368356910428705,-0.34976976425675704,0.34976976425675704,0.9368356910428705,317.03377902883005,-19.43407516075257)" fill="none" stroke="#7dd5d9"></use><use xlink:href="#bbburst-shape-4" width="32.262034831595145" opacity="0.4924695975419906" transform="matrix(0.9190680129516678,0.39409895656937866,-0.39409895656937866,0.9190680129516678,402.96728801627296,206.61796929061632)" fill="#ff794e"></use><use xlink:href="#bbburst-shape-6" width="44.8277023983692" opacity="0.25934248642026536" transform="matrix(0.991186799928208,-0.13247161072500993,0.13247161072500993,0.991186799928208,2.4995989511704124,91.41700186198858)" fill="#ffbd9b"></use><use xlink:href="#bbburst-shape-4" width="16.345951479867967" opacity="0.845590436505239" transform="matrix(0.9378519740740756,0.34703555253800644,-0.34703555253800644,0.9378519740740756,515.1534331243312,89.65611559694338)" fill="#ffa6d5"></use><use xlink:href="#bbburst-shape-4" width="35.29647421762848" opacity="-0.07333629981815615" transform="matrix(0.925902313368381,0.3777630290262407,-0.3777630290262407,0.925902313368381,182.37615080672788,353.33683375052755)" fill="#ff794e"></use><use xlink:href="#bbburst-shape-6" width="30.498616962721197" opacity="0.10258339756320212" transform="matrix(0.9829865523466526,-0.1836775378363988,0.1836775378363988,0.9829865523466526,-49.47518718388377,190.58547825178505)" fill="#ff794e"></use><use xlink:href="#bbburst-shape-7" width="18.396753482313354" opacity="0.8535515073836131" transform="matrix(0.9996796621304032,0.02530954608132894,-0.02530954608132894,0.9996796621304032,335.4606769353545,7.9891624789279945)" fill="#303841"></use><use xlink:href="#bbburst-shape-8" width="48.6485568642793" opacity="0.19986946022637808" transform="matrix(0.8960482479190112,-0.44395668414978323,0.44395668414978323,0.8960482479190112,429.86944075758413,-225.26713604428977)" fill="none" stroke="#ffbd9b"></use><use xlink:href="#bbburst-shape-10" width="31.815710620655025" opacity="0.6188801916431432" transform="matrix(0.9997653891300801,0.021660256175297977,-0.021660256175297977,0.9997653891300801,253.96032950171298,100.4877969181095)" fill="none" stroke="#ffa6d5"></use><use xlink:href="#bbburst-shape-4" width="34.68278576809246" opacity="0.17582520737868357" transform="matrix(0.8014229891799329,-0.598097978941495,0.598097978941495,0.8014229891799329,235.03353378044784,450.0781753535383)" fill="#303841"></use><use xlink:href="#bbburst-shape-7" width="18.953608467794194" opacity="0.8524882246219834" transform="matrix(0.9871612570201542,-0.15972680626115676,0.15972680626115676,0.9871612570201542,270.38614774204734,-28.51231079165302)" fill="#303841"></use><use xlink:href="#bbburst-shape-8" width="42.02546303318718" opacity="0.20421162795697367" transform="matrix(0.9268919642211557,-0.3753282385622588,0.3753282385622588,0.9268919642211557,261.31929539117846,-319.6368972646943)" fill="none" stroke="#303841"></use><use xlink:href="#bbburst-shape-8" width="17.163824792384286" opacity="0.8487777955847835" transform="matrix(0.9012435254199248,-0.43331294452008395,0.43331294452008395,0.9012435254199248,169.50259096873097,89.98343069892258)" fill="none" stroke="#303841"></use><use xlink:href="#bbburst-shape-4" width="28.499828103040166" opacity="0.6979720813520185" transform="matrix(0.8850244657307285,0.4655445145826967,-0.4655445145826967,0.8850244657307285,668.4910283933982,136.6766952878578)" fill="#303841"></use><use xlink:href="#bbburst-shape-8" width="26.583215587884972" opacity="0.7609269954999577" transform="matrix(0.9029016096141457,0.42984727910757425,-0.42984727910757425,0.9029016096141457,453.52414843316785,17.30878863400835)" fill="none" stroke="#ff794e"></use><use xlink:href="#bbburst-shape-6" width="36.66346563877926" opacity="0.0799811414221886" transform="matrix(0.9668879836293862,0.255201150297368,-0.255201150297368,0.9668879836293862,830.0272679588691,-219.279818487209)" fill="#7dd5d9"></use><use xlink:href="#bbburst-shape-4" width="14.8246026674082" opacity="0.8655216549066616" transform="matrix(0.7731854554280053,-0.6341799835335297,0.6341799835335297,0.7731854554280053,194.3411398407669,123.26808285901183)" fill="#ffa6d5"></use><use xlink:href="#bbburst-shape-6" width="36.333036525761074" opacity="0.25428921066860877" transform="matrix(0.974599450423734,0.22395515451481757,-0.22395515451481757,0.974599450423734,756.4390866139288,183.94455361184885)" fill="#ffa6d5"></use><use xlink:href="#bbburst-shape-8" width="45.92687602532923" opacity="0.20131524488576502" transform="matrix(0.9651775968810047,-0.261595501641387,0.261595501641387,0.9651775968810047,-86.02251539823584,8.324468741551186)" fill="none" stroke="#ffa6d5"></use><use xlink:href="#bbburst-shape-8" width="20.928305725360833" opacity="0.7474718538767131" transform="matrix(0.9994711794842736,0.032517093663409415,-0.032517093663409415,0.9994711794842736,299.28352301276317,47.304604788082315)" fill="none" stroke="#303841"></use><use xlink:href="#bbburst-shape-7" width="33.94743133758924" opacity="0.4873609196833424" transform="matrix(0.9270635125447165,0.37490431273626645,-0.37490431273626645,0.9270635125447165,315.98616779459184,97.82520508043064)" fill="#7dd5d9"></use><use xlink:href="#bbburst-shape-1" width="39.099555802754466" opacity="0.20785660517884974" transform="matrix(0.9634118946616874,0.2680252249777578,-0.2680252249777578,0.9634118946616874,449.4796475599939,363.781521059165)" fill="#ffbd9b"></use><use xlink:href="#bbburst-shape-8" width="29.347452377813152" opacity="0.6239731157827277" transform="matrix(0.7329090449838039,0.6803266360954335,-0.6803266360954335,0.7329090449838039,649.7829704079604,265.66794582331175)" fill="none" stroke="#ffa6d5"></use><use xlink:href="#bbburst-shape-10" width="23.892840003278277" opacity="0.7797520765924166" transform="matrix(0.9928609310393963,0.11927770795745196,-0.11927770795745196,0.9928609310393963,534.5655960252949,-7.419385781018036)" fill="none" stroke="#303841"></use><use xlink:href="#bbburst-shape-1" width="31.02391608013172" opacity="0.3542445567457323" transform="matrix(0.7573986355430856,0.6529527600657434,-0.6529527600657434,0.7573986355430856,677.4758838736877,376.1733251022592)" fill="#ffa6d5"></use><use xlink:href="#bbburst-shape-8" width="21.976572126919304" opacity="0.7308403686451979" transform="matrix(0.7236603739022921,0.6901562600191314,-0.6901562600191314,0.7236603739022921,605.6081030449427,206.7015389081169)" fill="none" stroke="#ffa6d5"></use><use xlink:href="#bbburst-shape-1" width="35.463235448656754" opacity="0.10354975860230287" transform="matrix(0.876263318990439,-0.48183253915843033,0.48183253915843033,0.876263318990439,-166.5779005375716,-127.21529775083155)" fill="#303841"></use><use xlink:href="#bbburst-shape-10" width="17.540970201060226" opacity="0.9235026364458037" transform="matrix(0.9566726496752256,-0.2911656596568062,0.2911656596568062,0.9566726496752256,279.68478356149774,54.00752087132469)" fill="none" stroke="#7dd5d9"></use><use xlink:href="#bbburst-shape-6" width="43.61106343838381" opacity="0.34189211681701204" transform="matrix(0.9985947114971563,-0.05299624675306028,0.05299624675306028,0.9985947114971563,215.4896607912283,-258.4187472655604)" fill="#303841"></use><use xlink:href="#bbburst-shape-4" width="34.47622971616325" opacity="0.531800042824269" transform="matrix(0.9810008660847036,-0.1940033523964506,0.1940033523964506,0.9810008660847036,353.40830412359105,-194.19479818712713)" fill="#303841"></use><use xlink:href="#bbburst-shape-6" width="45.99146740654642" opacity="0.1522814183534661" transform="matrix(0.875869952684737,0.4825472266877477,-0.4825472266877477,0.875869952684737,429.26302789230203,391.963425607059)" fill="#303841"></use><use xlink:href="#bbburst-shape-10" width="44.21515287952555" opacity="0.1813318206129949" transform="matrix(0.8022619134370497,-0.5969722122915972,0.5969722122915972,0.8022619134370497,401.4389707859058,355.3017334969327)" fill="none" stroke="#ffa6d5"></use><use xlink:href="#bbburst-shape-6" width="41.413677484591936" opacity="0.05643724974304454" transform="matrix(0.7448496928169991,0.6672322947148333,-0.6672322947148333,0.7448496928169991,401.1837576595159,431.2385677660914)" fill="#7dd5d9"></use><use xlink:href="#bbburst-shape-4" width="39.29589155001638" opacity="0.5341180151679255" transform="matrix(0.8460072841382047,0.5331713375502278,-0.5331713375502278,0.8460072841382047,782.0913828296189,-46.59735633747914)" fill="#7dd5d9"></use><use xlink:href="#bbburst-shape-10" width="49.05155604119882" opacity="0.32671898235778307" transform="matrix(0.8958891274159995,0.44427769624166263,-0.44427769624166263,0.8958891274159995,806.2660443033963,-139.63613294582174)" fill="none" stroke="#303841"></use><use xlink:href="#bbburst-shape-1" width="15.734749423704896" opacity="0.8167893979002017" transform="matrix(0.97611371908634,0.21726022970491765,-0.21726022970491765,0.97611371908634,443.78969834485946,-66.57834470895853)" fill="#303841"></use><use xlink:href="#bbburst-shape-6" width="40.19092116825617" opacity="0.3835394038403407" transform="matrix(0.8514882368990184,0.524373704930559,-0.524373704930559,0.8514882368990184,379.2470710419805,-128.3865587472543)" fill="#7dd5d9"></use><use xlink:href="#bbburst-shape-10" width="27.221556196382267" opacity="0.694939606833894" transform="matrix(0.9659541553474226,0.2587132964635705,-0.2587132964635705,0.9659541553474226,610.9742289143521,-55.415598737186485)" fill="none" stroke="#7dd5d9"></use><use xlink:href="#bbburst-shape-6" width="20.328615488367795" opacity="0.7301662033449507" transform="matrix(0.9801199591429343,0.19840581062472135,-0.19840581062472135,0.9801199591429343,583.5216974441942,47.41241781870423)" fill="#ffa6d5"></use></svg>